<svg xmlns="http://www.w3.org/2000/svg" xmlns:xlink="http://www.w3.org/1999/xlink" width="1080" zoomAndPan="magnify" viewBox="0 0 810 809.999993" height="1080" preserveAspectRatio="xMidYMid meet" version="1.2"><g id="caaa0f569b"><rect x="0" width="810" y="0" height="809.999993" style="fill:#ffffff;fill-opacity:1;stroke:none;"/><rect x="0" width="810" y="0" height="809.999993" style="fill:#ffffff;fill-opacity:1;stroke:none;"/><path style=" stroke:none;fill-rule:nonzero;fill:#00a1f5;fill-opacity:1;" d="M 330.886719 400.445312 C 332.515625 401.984375 333.441406 403.410156 334.457031 405.4375 C 367.882812 405.4375 401.3125 405.4375 435.753906 405.4375 C 435.871094 404.847656 435.992188 404.261719 436.113281 403.652344 C 437.289062 401.394531 439.085938 400.167969 441.460938 399.375 C 446.703125 398.972656 446.703125 398.972656 448.953125 400.800781 C 450.832031 402.566406 452.105469 404.476562 452.195312 407.105469 C 452.058594 409.605469 451.578125 411.777344 449.726562 413.554688 C 447.511719 415.308594 445.390625 416.105469 442.53125 415.78125 C 440.027344 415.300781 438.160156 414.128906 436.46875 412.214844 C 436.46875 411.980469 436.46875 411.742188 436.46875 411.5 C 436.234375 411.382812 435.996094 411.265625 435.753906 411.144531 C 435.753906 411.027344 435.753906 410.910156 435.753906 410.789062 C 419.863281 410.789062 403.972656 410.789062 387.601562 410.789062 C 387.484375 414.671875 387.367188 418.558594 387.246094 422.558594 C 418.320312 422.558594 449.394531 422.558594 481.410156 422.558594 C 481.882812 421.617188 482.351562 420.675781 482.839844 419.707031 C 484.324219 418.035156 485.734375 416.910156 487.832031 416.136719 C 488.066406 416.019531 488.300781 415.902344 488.546875 415.78125 C 491.480469 415.933594 494.167969 416.652344 496.390625 418.636719 C 497.847656 420.667969 498.734375 422.964844 498.441406 425.492188 C 497.921875 428.328125 496.613281 430.152344 494.253906 431.832031 C 491.984375 433.03125 489.769531 433.289062 487.28125 432.679688 C 484.773438 431.828125 482.964844 430.300781 481.769531 427.910156 C 450.691406 427.910156 419.617188 427.910156 387.601562 427.910156 C 386.078125 446.046875 386.078125 446.046875 388.316406 463.578125 C 389.015625 464.070312 389.730469 464.546875 390.457031 465.003906 C 392.613281 467.167969 393.617188 469.0625 393.664062 472.136719 C 393.527344 474.027344 393.335938 475.558594 392.171875 477.085938 C 391.839844 477.335938 391.511719 477.589844 391.167969 477.84375 C 390.96875 478.003906 390.765625 478.160156 390.558594 478.320312 C 388.105469 480.175781 386.027344 480.617188 382.964844 480.34375 C 380.523438 479.636719 378.457031 478.125 377.105469 475.957031 C 376.0625 473.699219 376.054688 471.703125 376.542969 469.285156 C 376.664062 469.050781 376.78125 468.8125 376.902344 468.570312 C 374.910156 468.644531 374.910156 468.644531 373.335938 469.640625 C 373.335938 469.40625 373.335938 469.171875 373.335938 468.929688 C 373.117188 468.949219 372.902344 468.96875 372.679688 468.992188 C 370.144531 469.128906 368.273438 468.636719 366.199219 467.144531 C 363.992188 464.84375 363.570312 462.90625 363.605469 459.761719 C 363.820312 457.183594 364.996094 455.664062 366.921875 454.027344 C 367.628906 453.589844 367.628906 453.589844 369.765625 452.878906 C 369.765625 444.519531 369.765625 436.164062 369.765625 427.550781 C 368.824219 427.671875 367.882812 427.789062 366.914062 427.910156 C 366 427.941406 365.085938 427.953125 364.171875 427.953125 C 363.914062 427.953125 363.652344 427.957031 363.382812 427.957031 C 362.515625 427.957031 361.652344 427.957031 360.785156 427.957031 C 360.160156 427.957031 359.539062 427.957031 358.914062 427.957031 C 357.21875 427.957031 355.523438 427.957031 353.828125 427.957031 C 352.042969 427.957031 350.253906 427.957031 348.464844 427.957031 C 345.449219 427.957031 342.4375 427.957031 339.421875 427.957031 C 335.976562 427.953125 332.527344 427.953125 329.082031 427.957031 C 326.097656 427.957031 323.117188 427.957031 320.132812 427.957031 C 318.363281 427.957031 316.59375 427.957031 314.820312 427.957031 C 305.664062 427.964844 296.523438 427.835938 287.371094 427.550781 C 287.253906 427.789062 287.136719 428.023438 287.015625 428.265625 C 285.304688 430.609375 283.4375 432.234375 280.59375 432.902344 C 277.789062 433.261719 275.4375 432.613281 273.195312 430.894531 C 271.496094 429.335938 270.859375 427.414062 270.273438 425.234375 C 270.226562 422.628906 271.253906 420.546875 272.863281 418.539062 C 274.5625 416.792969 276.644531 416.105469 279.035156 416.003906 C 281.464844 416.039062 283.484375 416.882812 285.207031 418.613281 C 286.25 419.925781 286.714844 420.90625 287.015625 422.558594 C 287.464844 422.558594 287.914062 422.558594 288.378906 422.558594 C 299.042969 422.542969 309.710938 422.53125 320.378906 422.523438 C 321.6875 422.523438 323 422.519531 324.3125 422.519531 C 324.574219 422.519531 324.835938 422.519531 325.105469 422.519531 C 329.335938 422.515625 333.570312 422.511719 337.804688 422.503906 C 342.144531 422.496094 346.484375 422.492188 350.828125 422.492188 C 353.507812 422.492188 356.1875 422.488281 358.867188 422.480469 C 360.921875 422.476562 362.972656 422.476562 365.027344 422.476562 C 365.871094 422.476562 366.714844 422.476562 367.558594 422.472656 C 368.707031 422.46875 369.851562 422.472656 371 422.472656 C 371.339844 422.472656 371.675781 422.46875 372.023438 422.464844 C 372.332031 422.46875 372.636719 422.46875 372.953125 422.472656 C 373.21875 422.472656 373.480469 422.46875 373.753906 422.46875 C 374.40625 422.558594 374.40625 422.558594 375.117188 423.273438 C 375 423.507812 374.882812 423.742188 374.761719 423.984375 C 374.996094 423.984375 375.230469 423.984375 375.472656 423.984375 C 375.355469 424.222656 375.238281 424.457031 375.117188 424.699219 C 375.035156 425.542969 374.972656 426.390625 374.917969 427.242188 C 374.886719 427.699219 374.859375 428.15625 374.828125 428.625 C 374.804688 428.976562 374.785156 429.328125 374.761719 429.691406 C 374.996094 429.691406 375.230469 429.691406 375.472656 429.691406 C 375.355469 429.929688 375.238281 430.164062 375.117188 430.40625 C 375.0625 431.207031 375.027344 432.011719 375.003906 432.816406 C 374.992188 433.171875 374.992188 433.171875 374.984375 433.53125 C 374.960938 434.289062 374.9375 435.046875 374.917969 435.800781 C 374.902344 436.3125 374.886719 436.824219 374.871094 437.335938 C 374.832031 438.59375 374.796875 439.851562 374.761719 441.105469 C 374.996094 441.222656 375.230469 441.34375 375.472656 441.464844 C 375.238281 441.464844 375.003906 441.464844 374.761719 441.464844 C 374.878906 445.230469 374.996094 448.996094 375.117188 452.878906 C 376.058594 453.347656 377 453.820312 377.972656 454.304688 C 380.148438 456.433594 380.875 458.839844 381.179688 461.792969 C 380.945312 461.792969 380.710938 461.792969 380.46875 461.792969 C 380.351562 462.734375 380.234375 463.679688 380.113281 464.648438 C 380.640625 464.296875 380.640625 464.296875 381.179688 463.933594 C 381.535156 463.933594 381.886719 463.933594 382.25 463.933594 C 382.195312 463.621094 382.136719 463.308594 382.078125 462.984375 C 381.78125 460.890625 381.84375 458.777344 381.847656 456.664062 C 381.847656 456.183594 381.847656 455.699219 381.847656 455.21875 C 381.84375 453.914062 381.847656 452.609375 381.847656 451.304688 C 381.847656 449.9375 381.847656 448.570312 381.847656 447.203125 C 381.847656 444.90625 381.847656 442.613281 381.847656 440.316406 C 381.851562 437.664062 381.851562 435.015625 381.847656 432.363281 C 381.847656 430.082031 381.847656 427.804688 381.847656 425.523438 C 381.847656 424.164062 381.847656 422.804688 381.847656 421.441406 C 381.84375 420.164062 381.847656 418.886719 381.847656 417.609375 C 381.847656 416.917969 381.847656 416.222656 381.847656 415.53125 C 381.847656 414.914062 381.847656 414.914062 381.851562 414.28125 C 381.851562 413.921875 381.851562 413.566406 381.851562 413.195312 C 381.894531 412.238281 382.035156 411.363281 382.25 410.429688 C 381.898438 410.550781 381.546875 410.667969 381.179688 410.789062 C 380.539062 410.820312 379.894531 410.832031 379.25 410.832031 C 378.652344 410.832031 378.652344 410.832031 378.039062 410.832031 C 377.378906 410.832031 377.378906 410.832031 376.707031 410.828125 C 376.011719 410.828125 376.011719 410.828125 375.300781 410.828125 C 374.03125 410.828125 372.761719 410.828125 371.492188 410.824219 C 370.167969 410.820312 368.839844 410.820312 367.511719 410.820312 C 365 410.820312 362.488281 410.816406 359.976562 410.8125 C 357.117188 410.808594 354.253906 410.808594 351.394531 410.804688 C 345.511719 410.800781 339.625 410.796875 333.742188 410.789062 C 333.523438 411.1875 333.304688 411.582031 333.078125 411.992188 C 332.445312 413.140625 331.839844 413.789062 330.710938 414.488281 C 330.308594 414.746094 330.308594 414.746094 329.894531 415.011719 C 327.773438 416.121094 325.453125 416.035156 323.199219 415.378906 C 320.914062 414.53125 319.351562 413.242188 318.25 411.054688 C 317.308594 408.648438 317.296875 406.027344 318.316406 403.636719 C 319.445312 401.863281 321.132812 400.535156 322.972656 399.550781 C 325.703125 399.125 328.476562 398.929688 330.886719 400.445312 Z M 376.902344 467.5 C 376.664062 467.738281 376.429688 467.972656 376.1875 468.214844 C 376.542969 468.214844 376.894531 468.214844 377.257812 468.214844 C 377.140625 467.980469 377.023438 467.746094 376.902344 467.5 Z M 376.902344 467.5 "/><path style=" stroke:none;fill-rule:nonzero;fill:#009cf6;fill-opacity:1;" d="M 418.632812 344.445312 C 419.746094 345.484375 420.003906 346.503906 420.0625 348.011719 C 419.34375 350.929688 417.648438 353.125 415.097656 354.726562 C 412.398438 356.128906 409.957031 356.832031 406.953125 357.136719 C 403.675781 357.484375 400.890625 358.097656 398.527344 360.539062 C 395.734375 364.363281 395.96875 368.589844 395.988281 373.09375 C 395.992188 377.851562 395.742188 381.933594 392.246094 385.519531 C 389.601562 387.929688 386.871094 388.699219 383.320312 388.671875 C 380.636719 388.304688 378.214844 387.285156 376.1875 385.464844 C 375.789062 384.753906 375.789062 384.753906 375.472656 384.035156 C 374.941406 383.15625 374.941406 383.15625 374.40625 382.28125 C 373.421875 380.242188 373.222656 378.261719 373.160156 376.039062 C 373.136719 375.460938 373.113281 374.882812 373.085938 374.304688 C 373.054688 373.410156 373.023438 372.511719 372.996094 371.617188 C 372.851562 367.207031 372.617188 363.410156 369.417969 360.046875 C 366.894531 357.875 364.121094 357.378906 360.894531 357.128906 C 356.390625 356.664062 353.148438 355.722656 349.992188 352.269531 C 348.675781 350.628906 348.046875 349.046875 348.007812 346.941406 C 348.546875 345.519531 349.226562 344.582031 350.507812 343.730469 C 351.933594 343.496094 353.429688 343.386719 354.730469 344.082031 C 355.527344 344.742188 356.207031 345.507812 356.90625 346.273438 C 358.734375 347.933594 360.851562 348.171875 363.214844 348.34375 C 367.914062 348.796875 371.464844 349.90625 375.117188 353.003906 C 375.378906 353.21875 375.640625 353.429688 375.90625 353.648438 C 379.132812 356.53125 380.953125 360.820312 381.226562 365.101562 C 381.320312 367.277344 381.34375 369.453125 381.371094 371.628906 C 381.382812 372.460938 381.398438 373.292969 381.414062 374.121094 C 381.417969 374.5 381.417969 374.5 381.421875 374.886719 C 381.449219 376.300781 381.578125 377.433594 382.25 378.6875 C 383.160156 379.210938 383.722656 379.4375 384.769531 379.308594 C 386.28125 378.789062 386.28125 378.789062 387.246094 377.617188 C 387.289062 376.800781 387.308594 375.988281 387.320312 375.171875 C 387.332031 374.664062 387.339844 374.15625 387.351562 373.648438 C 387.367188 372.855469 387.378906 372.058594 387.386719 371.265625 C 387.472656 364.722656 388.125 358.34375 392.859375 353.371094 C 396.832031 349.800781 401.210938 348.636719 406.382812 348.054688 C 408.105469 347.847656 409.351562 347.636719 410.785156 346.582031 C 411.042969 346.472656 411.300781 346.363281 411.566406 346.25 C 412.382812 345.769531 412.53125 345.285156 412.925781 344.445312 C 415.007812 343.054688 416.492188 343.320312 418.632812 344.445312 Z M 418.632812 344.445312 "/><path style=" stroke:none;fill-rule:nonzero;fill:#00a9fc;fill-opacity:1;" d="M 283.710938 417.34375 C 285.628906 418.714844 286.597656 420.265625 287.015625 422.558594 C 287.464844 422.558594 287.914062 422.558594 288.378906 422.558594 C 299.042969 422.542969 309.710938 422.53125 320.378906 422.523438 C 321.6875 422.523438 323 422.519531 324.3125 422.519531 C 324.574219 422.519531 324.835938 422.519531 325.105469 422.519531 C 329.335938 422.515625 333.570312 422.511719 337.804688 422.503906 C 342.144531 422.496094 346.484375 422.492188 350.828125 422.492188 C 353.507812 422.492188 356.1875 422.488281 358.867188 422.480469 C 360.921875 422.476562 362.972656 422.476562 365.027344 422.476562 C 365.871094 422.476562 366.714844 422.476562 367.558594 422.472656 C 368.707031 422.46875 369.851562 422.472656 371 422.472656 C 371.339844 422.472656 371.675781 422.46875 372.023438 422.464844 C 372.332031 422.46875 372.636719 422.46875 372.953125 422.472656 C 373.21875 422.472656 373.480469 422.46875 373.753906 422.46875 C 374.40625 422.558594 374.40625 422.558594 375.117188 423.273438 C 375 423.507812 374.882812 423.742188 374.761719 423.984375 C 374.996094 423.984375 375.230469 423.984375 375.472656 423.984375 C 375.355469 424.222656 375.238281 424.457031 375.117188 424.699219 C 375.035156 425.542969 374.972656 426.390625 374.917969 427.242188 C 374.886719 427.699219 374.859375 428.15625 374.828125 428.625 C 374.804688 428.976562 374.785156 429.328125 374.761719 429.691406 C 374.996094 429.691406 375.230469 429.691406 375.472656 429.691406 C 375.355469 429.929688 375.238281 430.164062 375.117188 430.40625 C 375.0625 431.207031 375.027344 432.011719 375.003906 432.816406 C 374.992188 433.171875 374.992188 433.171875 374.984375 433.53125 C 374.960938 434.289062 374.9375 435.046875 374.917969 435.800781 C 374.902344 436.3125 374.886719 436.824219 374.871094 437.335938 C 374.832031 438.59375 374.796875 439.851562 374.761719 441.105469 C 374.996094 441.222656 375.230469 441.34375 375.472656 441.464844 C 375.238281 441.464844 375.003906 441.464844 374.761719 441.464844 C 374.878906 445.230469 374.996094 448.996094 375.117188 452.878906 C 375.824219 453.230469 376.53125 453.582031 377.257812 453.949219 C 377.910156 454.613281 377.910156 454.613281 378.417969 455.328125 C 378.589844 455.5625 378.757812 455.796875 378.9375 456.039062 C 380.222656 458.15625 380.382812 460.078125 380.113281 462.507812 C 379.480469 464.710938 378.109375 466.289062 376.1875 467.5 C 374.292969 468.402344 372.21875 468.984375 370.125 468.570312 C 367.382812 467.589844 365.574219 466.328125 364.304688 463.667969 C 363.78125 461.195312 363.730469 458.972656 365.011719 456.734375 C 366.402344 454.839844 368.03125 453.925781 370.125 452.878906 C 370.242188 444.402344 370.359375 435.925781 370.480469 427.195312 C 342.703125 427.195312 314.921875 427.195312 286.300781 427.195312 C 286.066406 427.902344 285.832031 428.609375 285.589844 429.335938 C 284.246094 431 282.34375 432.195312 280.238281 432.546875 C 277.726562 432.6875 275.253906 432.761719 273.214844 431.121094 C 271.382812 429.171875 270.300781 426.664062 270.25 423.984375 C 270.734375 421.421875 271.992188 419.023438 274.105469 417.441406 C 277.226562 415.578125 280.550781 415.589844 283.710938 417.34375 Z M 283.710938 417.34375 "/><path style=" stroke:none;fill-rule:nonzero;fill:#009bf5;fill-opacity:1;" d="M 330.085938 321.527344 C 330.988281 322.425781 331.351562 322.863281 331.601562 324.113281 C 331.484375 325.75 331.261719 326.960938 330.0625 328.125 C 329.746094 328.332031 329.429688 328.539062 329.105469 328.75 C 327.484375 330.21875 326.707031 331.28125 326.5 333.484375 C 326.476562 334.65625 326.460938 335.828125 326.457031 337 C 326.453125 337.75 326.433594 338.5 326.417969 339.25 C 326.382812 342.039062 326.519531 344.382812 328.390625 346.582031 C 330.449219 348.289062 332.519531 348.046875 335.085938 347.972656 C 336.675781 348.027344 337.265625 348.324219 338.378906 349.4375 C 339.214844 350.503906 339.242188 351.65625 339.207031 352.996094 C 338.957031 354.585938 338.050781 355.570312 336.796875 356.503906 C 334.132812 357.738281 331.082031 357.382812 328.320312 356.605469 C 324.261719 355.0625 321.332031 352.304688 319.472656 348.367188 C 318.535156 345.675781 318.210938 343.089844 318.136719 340.253906 C 318.125 339.878906 318.113281 339.503906 318.101562 339.121094 C 317.980469 334.582031 318.121094 330.527344 319.832031 326.253906 C 319.964844 325.917969 320.097656 325.585938 320.234375 325.242188 C 320.335938 324.988281 320.4375 324.730469 320.542969 324.46875 C 320.78125 324.46875 321.015625 324.46875 321.257812 324.46875 C 321.339844 324.261719 321.417969 324.058594 321.503906 323.84375 C 322.570312 322.015625 324.226562 321.304688 326.175781 320.714844 C 327.769531 320.371094 328.734375 320.667969 330.085938 321.527344 Z M 330.085938 321.527344 "/><path style=" stroke:none;fill-rule:nonzero;fill:#009af3;fill-opacity:1;" d="M 445.679688 322.050781 C 447.988281 323.9375 449.675781 327.242188 450.136719 330.183594 C 450.191406 330.921875 450.21875 331.65625 450.230469 332.398438 C 450.238281 332.671875 450.246094 332.941406 450.253906 333.21875 C 450.269531 333.789062 450.285156 334.359375 450.296875 334.929688 C 450.3125 335.789062 450.339844 336.644531 450.367188 337.503906 C 450.523438 343.097656 450.09375 348.433594 446.078125 352.714844 C 443.183594 355.523438 440.007812 357.109375 435.949219 357.308594 C 433.753906 357.25 431.980469 356.765625 430.40625 355.144531 C 429.675781 353.828125 429.507812 352.710938 429.691406 351.222656 C 430.445312 349.679688 431.226562 348.78125 432.859375 348.167969 C 433.78125 347.976562 434.613281 348.011719 435.554688 348.054688 C 437.304688 348.097656 438.390625 347.839844 439.800781 346.792969 C 441.980469 344.710938 442.082031 342.128906 442.164062 339.230469 C 442.183594 337.625 442.171875 336.019531 442.109375 334.410156 C 442.101562 334.164062 442.097656 333.914062 442.089844 333.65625 C 441.988281 331.886719 441.5 330.832031 440.390625 329.460938 C 439.6875 328.972656 438.976562 328.496094 438.25 328.035156 C 437.023438 326.695312 437 325.660156 437.054688 323.902344 C 437.238281 322.664062 437.667969 322.070312 438.609375 321.257812 C 440.914062 319.847656 443.527344 320.769531 445.679688 322.050781 Z M 445.679688 322.050781 "/><path style=" stroke:none;fill-rule:nonzero;fill:#009af4;fill-opacity:1;" d="M 415.066406 292.722656 C 417.324219 295.132812 418.882812 297.800781 419.058594 301.128906 C 419.023438 301.558594 419.023438 301.558594 418.992188 301.996094 C 419.34375 302.175781 419.34375 302.175781 419.703125 302.355469 C 419.253906 307.78125 418.660156 312.386719 414.34375 316.191406 C 411.417969 318.339844 407.609375 319.230469 404.007812 318.761719 C 402.335938 318.171875 401.359375 317.433594 400.441406 315.910156 C 400.035156 314.660156 399.890625 313.589844 400.347656 312.339844 C 400.964844 311.207031 401.503906 310.566406 402.582031 309.84375 C 403.867188 309.539062 405.042969 309.488281 406.351562 309.53125 C 407.757812 309.546875 408.621094 309.378906 409.714844 308.417969 C 410.03125 307.675781 410.03125 307.675781 410.074219 306.992188 C 410.308594 306.992188 410.542969 306.992188 410.785156 306.992188 C 411.019531 303.179688 411.019531 303.179688 409.359375 299.859375 C 408.28125 299.164062 407.277344 299.015625 406.015625 298.855469 C 404.113281 298.535156 403.191406 298.039062 401.871094 296.648438 C 401.203125 295.3125 401.324219 293.820312 401.511719 292.367188 C 402.015625 291.164062 402.773438 290.464844 403.980469 289.914062 C 407.945312 288.761719 411.9375 290.257812 415.066406 292.722656 Z M 415.066406 292.722656 "/><path style=" stroke:none;fill-rule:nonzero;fill:#009af4;fill-opacity:1;" d="M 366.199219 291.296875 C 367.039062 292.363281 367.0625 293.515625 367.03125 294.851562 C 366.839844 296.046875 366.246094 296.804688 365.488281 297.71875 C 364.320312 298.496094 363.691406 298.574219 362.320312 298.742188 C 360.054688 299.097656 360.054688 299.097656 358.351562 300.570312 C 357.421875 302.835938 357.234375 305.183594 358.085938 307.480469 C 358.9375 308.757812 359.5625 309.332031 361.050781 309.734375 C 362.46875 309.863281 363.855469 309.835938 365.277344 309.789062 C 366.277344 309.851562 366.800781 310 367.628906 310.558594 C 368.484375 311.625 369.058594 312.785156 369.046875 314.171875 C 368.695312 315.90625 367.976562 316.953125 366.558594 318.046875 C 364.3125 319.199219 361.464844 319.097656 359.0625 318.492188 C 355.371094 317.210938 352.480469 315.035156 350.507812 311.628906 C 348.546875 307.066406 348.742188 302.40625 350.148438 297.71875 C 351.542969 294.46875 353.96875 291.933594 357.171875 290.425781 C 360.3125 289.199219 363.515625 289.007812 366.199219 291.296875 Z M 366.199219 291.296875 "/><path style=" stroke:none;fill-rule:nonzero;fill:#009af3;fill-opacity:1;" d="M 345.15625 298.789062 C 346.289062 299.421875 346.792969 299.753906 347.183594 300.996094 C 347.238281 301.316406 347.238281 301.316406 347.296875 301.640625 C 347.53125 301.757812 347.765625 301.875 348.007812 301.996094 C 348.007812 302.585938 348.007812 303.175781 348.007812 303.78125 C 347.773438 303.78125 347.539062 303.78125 347.296875 303.78125 C 347.265625 304 347.238281 304.222656 347.207031 304.449219 C 346.9375 305.207031 346.9375 305.207031 346.203125 305.652344 C 345.976562 305.742188 345.746094 305.832031 345.511719 305.921875 C 345.511719 306.15625 345.511719 306.390625 345.511719 306.632812 C 345.277344 306.632812 345.042969 306.632812 344.800781 306.632812 C 344.800781 306.871094 344.800781 307.105469 344.800781 307.347656 C 344.570312 307.550781 344.339844 307.753906 344.105469 307.960938 C 342.503906 309.738281 342.988281 312.78125 343.050781 315.050781 C 343.171875 316.992188 343.328125 318.734375 344.085938 320.546875 C 345.769531 321.425781 346.90625 321.242188 348.746094 320.878906 C 350.164062 320.601562 350.734375 320.503906 352.132812 320.96875 C 352.421875 321.183594 352.707031 321.394531 353.003906 321.617188 C 353.214844 321.753906 353.429688 321.894531 353.648438 322.039062 C 354.359375 323.121094 354.464844 324.277344 354.429688 325.539062 C 353.816406 327.382812 352.804688 328.367188 351.21875 329.460938 C 348.457031 330.578125 345.078125 330.59375 342.300781 329.460938 C 338.832031 327.605469 337.042969 325.320312 335.519531 321.742188 C 333.867188 316.09375 334.058594 308.410156 336.664062 303.132812 C 338.714844 299.703125 341.242188 298.375 345.15625 298.789062 Z M 345.15625 298.789062 "/><path style=" stroke:none;fill-rule:nonzero;fill:#009bf5;fill-opacity:1;" d="M 428.59375 299.46875 C 430.847656 300.863281 431.996094 303.214844 433.011719 305.585938 C 434.277344 310.988281 434.742188 319.195312 431.941406 324.136719 C 429.835938 327.246094 427.542969 328.988281 423.984375 330.175781 C 421.050781 330.453125 418.40625 330.148438 415.78125 328.75 C 414.816406 327.910156 414.40625 327.476562 413.996094 326.253906 C 413.902344 324.78125 413.855469 323.773438 414.375 322.394531 C 415.332031 321.316406 416.191406 320.964844 417.5625 320.546875 C 418.613281 320.636719 418.613281 320.636719 419.703125 320.902344 C 421.117188 321.191406 422.226562 321.390625 423.605469 320.835938 C 424.398438 320.136719 424.589844 319.796875 424.699219 318.761719 C 424.933594 318.761719 425.167969 318.761719 425.410156 318.761719 C 425.441406 317.328125 425.460938 315.894531 425.476562 314.460938 C 425.488281 314.054688 425.496094 313.652344 425.503906 313.234375 C 425.523438 311.003906 425.511719 309.28125 424.339844 307.347656 C 423.726562 306.773438 423.726562 306.773438 423.027344 306.480469 C 422.636719 306.292969 422.246094 306.109375 421.84375 305.921875 C 421.726562 306.15625 421.609375 306.390625 421.488281 306.632812 C 420.347656 302.507812 420.347656 302.507812 421.332031 300.503906 C 423.488281 298.015625 425.828125 298.160156 428.59375 299.46875 Z M 428.59375 299.46875 "/><path style=" stroke:none;fill-rule:nonzero;fill:#009cf6;fill-opacity:1;" d="M 406.863281 322.863281 C 409.082031 324.710938 410.964844 326.679688 411.855469 329.460938 C 411.855469 329.816406 411.855469 330.167969 411.855469 330.53125 C 412.09375 330.652344 412.328125 330.769531 412.570312 330.890625 C 412.601562 332.085938 412.621094 333.28125 412.636719 334.480469 C 412.644531 334.816406 412.65625 335.152344 412.664062 335.496094 C 412.6875 337.574219 412.542969 339.058594 411.5 340.875 C 410.332031 341.957031 409.167969 342.304688 407.578125 342.304688 C 407.398438 342.65625 407.398438 342.65625 407.21875 343.015625 C 406.851562 342.957031 406.484375 342.898438 406.105469 342.839844 C 403.214844 342.484375 399.933594 342.136719 397.234375 343.375 C 396.386719 344.203125 396.386719 344.203125 395.648438 345.179688 C 394.179688 346.882812 394.179688 346.882812 392.730469 347.410156 C 390.992188 347.246094 389.648438 346.808594 388.359375 345.601562 C 387.652344 344.1875 387.449219 343.011719 387.789062 341.449219 C 388.710938 338.707031 390.464844 336.894531 392.964844 335.46875 C 393.957031 335.015625 394.710938 334.8125 395.804688 334.8125 C 395.921875 334.578125 396.042969 334.34375 396.164062 334.101562 C 398.753906 333.980469 401.339844 333.863281 404.007812 333.742188 C 402.9375 331.292969 402.9375 331.292969 401.289062 329.773438 C 400.105469 328.820312 399.558594 328.179688 399.371094 326.609375 C 399.578125 325.171875 399.933594 323.914062 400.972656 322.863281 C 402.964844 321.546875 404.804688 321.835938 406.863281 322.863281 Z M 406.863281 322.863281 "/><path style=" stroke:none;fill-rule:nonzero;fill:#009cf6;fill-opacity:1;" d="M 367.539062 322.886719 C 368.605469 324.042969 368.976562 325.039062 369.054688 326.609375 C 368.535156 328.722656 367.519531 329.636719 365.785156 330.902344 C 364.886719 331.863281 364.707031 332.835938 364.417969 334.101562 C 364.855469 334.082031 365.296875 334.066406 365.75 334.050781 C 370.148438 333.933594 374.152344 334.09375 377.703125 337.039062 C 379.210938 338.554688 380.460938 340.230469 380.847656 342.371094 C 380.824219 343.886719 380.621094 344.628906 379.753906 345.871094 C 378.425781 346.941406 377.171875 347.238281 375.472656 347.296875 C 373.625 346.679688 372.839844 345.773438 371.90625 344.085938 C 371.90625 343.851562 371.90625 343.617188 371.90625 343.375 C 369.0625 342.484375 366.371094 342.636719 363.417969 342.75 C 360.941406 342.800781 359.382812 342.585938 357.285156 341.234375 C 355.375 338.769531 355.671875 335.679688 355.953125 332.714844 C 356.472656 329.289062 357.902344 326.121094 360.492188 323.757812 C 362.839844 322.082031 364.90625 321.390625 367.539062 322.886719 Z M 367.539062 322.886719 "/><path style=" stroke:none;fill-rule:nonzero;fill:#009af3;fill-opacity:1;" d="M 377.613281 299.5 C 380.15625 302.226562 381.527344 305.027344 381.621094 308.78125 C 381.636719 309.300781 381.636719 309.300781 381.652344 309.832031 C 381.660156 310.199219 381.667969 310.570312 381.675781 310.953125 C 381.683594 311.339844 381.695312 311.726562 381.703125 312.121094 C 381.722656 312.9375 381.738281 313.753906 381.757812 314.570312 C 381.785156 315.808594 381.816406 317.050781 381.847656 318.292969 C 381.867188 319.085938 381.882812 319.878906 381.898438 320.671875 C 381.910156 321.042969 381.917969 321.410156 381.929688 321.789062 C 381.96875 323.898438 381.972656 326.046875 381.179688 328.035156 C 379.707031 329.167969 378.371094 329.335938 376.542969 329.105469 C 375.40625 328.527344 374.640625 328.089844 373.996094 326.972656 C 373.539062 325.363281 373.585938 323.792969 373.582031 322.128906 C 373.570312 321.382812 373.5625 320.632812 373.554688 319.882812 C 373.542969 318.707031 373.535156 317.535156 373.527344 316.359375 C 373.519531 315.21875 373.507812 314.082031 373.492188 312.945312 C 373.492188 312.59375 373.492188 312.246094 373.492188 311.882812 C 373.464844 309.988281 373.335938 308.625 372.265625 306.992188 C 371.640625 306.453125 371.640625 306.453125 370.949219 306.144531 C 370.558594 305.953125 370.167969 305.761719 369.765625 305.566406 C 369.765625 305.328125 369.765625 305.09375 369.765625 304.851562 C 369.53125 304.851562 369.296875 304.851562 369.054688 304.851562 C 368.152344 303.496094 368.183594 302.140625 368.339844 300.570312 C 368.742188 299.328125 369.367188 298.742188 370.480469 298.074219 C 372.746094 297.234375 375.699219 298.207031 377.613281 299.5 Z M 377.613281 299.5 "/><path style=" stroke:none;fill-rule:nonzero;fill:#009bf5;fill-opacity:1;" d="M 397.589844 298.074219 C 398.636719 298.964844 398.636719 298.964844 399.371094 299.859375 C 399.550781 300.035156 399.550781 300.035156 399.730469 300.214844 C 399.886719 301.679688 399.878906 303.015625 399.371094 304.40625 C 398.511719 305.375 397.589844 305.933594 396.460938 306.558594 C 395.527344 307.175781 395.148438 307.839844 394.871094 308.914062 C 394.742188 309.796875 394.6875 310.628906 394.683594 311.519531 C 394.679688 312 394.679688 312 394.675781 312.492188 C 394.675781 312.835938 394.675781 313.179688 394.671875 313.53125 C 394.664062 314.265625 394.65625 314.996094 394.648438 315.730469 C 394.636719 316.878906 394.625 318.027344 394.621094 319.179688 C 394.613281 320.292969 394.601562 321.40625 394.582031 322.515625 C 394.585938 322.859375 394.585938 323.203125 394.585938 323.554688 C 394.550781 325.574219 394.339844 326.8125 392.953125 328.394531 C 391.769531 329.128906 391.769531 329.128906 390.457031 329.460938 C 389.050781 329.042969 387.710938 328.582031 386.886719 327.324219 C 386.171875 325.027344 386.089844 322.964844 386.144531 320.570312 C 386.152344 320.203125 386.160156 319.835938 386.164062 319.457031 C 386.179688 318.683594 386.195312 317.910156 386.214844 317.136719 C 386.242188 315.960938 386.257812 314.785156 386.277344 313.609375 C 386.292969 312.851562 386.308594 312.097656 386.324219 311.339844 C 386.328125 310.996094 386.332031 310.648438 386.339844 310.289062 C 386.441406 306.542969 387.359375 303.113281 389.957031 300.3125 C 392.230469 298.203125 394.542969 297.273438 397.589844 298.074219 Z M 397.589844 298.074219 "/><path style=" stroke:none;fill-rule:nonzero;fill:#0099f3;fill-opacity:1;" d="M 392.859375 283.925781 C 394.828125 285.378906 396.183594 287.144531 396.875 289.511719 C 396.972656 291.230469 396.777344 292.367188 395.761719 293.773438 C 394.554688 294.636719 393.714844 295.015625 392.238281 295.21875 C 390.335938 294.671875 389.449219 293.953125 388.316406 292.367188 C 386.976562 290.929688 386.277344 290.289062 384.28125 290.136719 C 382.78125 290.238281 382.066406 290.453125 380.824219 291.296875 C 380.480469 291.765625 380.144531 292.242188 379.820312 292.722656 C 378.832031 294.128906 377.9375 294.714844 376.273438 295.144531 C 374.902344 295.273438 374.113281 294.886719 372.976562 294.152344 C 371.921875 292.984375 371.46875 292.113281 371.441406 290.5625 C 371.476562 290.097656 371.511719 289.632812 371.550781 289.15625 C 371.585938 288.671875 371.585938 288.671875 371.617188 288.175781 C 372.027344 287.039062 372.722656 286.652344 373.691406 285.945312 C 373.964844 285.660156 374.234375 285.371094 374.515625 285.078125 C 379.730469 280.105469 386.949219 280.167969 392.859375 283.925781 Z M 392.859375 283.925781 "/><path style=" stroke:none;fill-rule:nonzero;fill:#009cf6;fill-opacity:1;" d="M 424.699219 357.996094 C 425.664062 358.78125 426.285156 359.386719 426.835938 360.496094 C 427.054688 362.644531 426.636719 364.109375 425.410156 365.84375 C 422.742188 368.835938 419.332031 370.648438 415.3125 370.886719 C 414.351562 370.925781 413.394531 370.941406 412.4375 370.949219 C 412.113281 370.960938 411.789062 370.972656 411.457031 370.980469 C 409.289062 371 407.574219 370.710938 405.792969 369.410156 C 404.738281 368.242188 404.359375 367.21875 404.390625 365.621094 C 404.84375 363.980469 405.273438 363.03125 406.640625 361.988281 C 408.601562 361.347656 410.527344 361.484375 412.570312 361.566406 C 412.570312 361.683594 412.570312 361.800781 412.570312 361.921875 C 414.539062 362.042969 416.191406 361.867188 417.921875 360.851562 C 418.53125 360.246094 419.046875 359.625 419.554688 358.933594 C 420.980469 357.304688 422.75 357.449219 424.699219 357.996094 Z M 424.699219 357.996094 "/><path style=" stroke:none;fill-rule:nonzero;fill:#009cf5;fill-opacity:1;" d="M 347.296875 357.996094 C 348.375 358.683594 349.019531 359.347656 349.792969 360.359375 C 350.632812 361.355469 351.027344 361.621094 352.289062 361.921875 C 354.492188 362.113281 354.492188 362.113281 356.570312 361.566406 C 358.785156 361.414062 360.242188 361.761719 362.277344 362.636719 C 362.277344 362.871094 362.277344 363.105469 362.277344 363.347656 C 362.511719 363.347656 362.746094 363.347656 362.992188 363.347656 C 363.855469 366.496094 363.855469 366.496094 363.257812 368.140625 C 363.050781 368.441406 362.847656 368.746094 362.632812 369.054688 C 362.398438 369.410156 362.164062 369.761719 361.921875 370.125 C 359.816406 370.953125 357.441406 370.976562 355.210938 370.972656 C 354.742188 370.972656 354.742188 370.972656 354.265625 370.972656 C 351.734375 370.921875 349.609375 370.464844 347.296875 369.410156 C 347.027344 369.308594 346.757812 369.207031 346.480469 369.101562 C 344.082031 368.09375 342.582031 366.070312 341.589844 363.703125 C 341.359375 362.25 341.257812 360.777344 341.953125 359.441406 C 343.484375 357.535156 345.023438 357.421875 347.296875 357.996094 Z M 347.296875 357.996094 "/><path style=" stroke:none;fill-rule:nonzero;fill:#009df7;fill-opacity:1;" d="M 424.339844 333.742188 C 424.859375 333.917969 424.859375 333.917969 425.390625 334.101562 C 427.566406 334.8125 429.386719 334.597656 431.476562 333.742188 C 432.882812 333.566406 434.007812 333.613281 435.332031 334.144531 C 436.339844 335.007812 436.746094 335.695312 437.183594 336.953125 C 437.121094 338.652344 436.832031 339.90625 435.753906 341.234375 C 432.359375 343.816406 427.691406 343.484375 423.628906 343.375 C 423.628906 343.136719 423.628906 342.902344 423.628906 342.660156 C 423.3125 342.632812 422.996094 342.601562 422.667969 342.570312 C 421.28125 342.257812 420.695312 341.894531 419.703125 340.875 C 418.941406 339.527344 418.632812 338.640625 418.632812 337.085938 C 419.058594 335.648438 419.632812 335.046875 420.773438 334.101562 C 421.90625 333.535156 423.105469 333.644531 424.339844 333.742188 Z M 424.339844 333.742188 "/><path style=" stroke:none;fill-rule:nonzero;fill:#009af3;fill-opacity:1;" d="M 347.296875 334.101562 C 348.597656 335.234375 348.984375 336.351562 349.113281 338.027344 C 349.035156 339.644531 348.292969 340.617188 347.140625 341.679688 C 345.136719 343.046875 343.464844 343.148438 341.082031 343.21875 C 340.417969 343.246094 339.753906 343.308594 339.09375 343.375 C 338.972656 343.609375 338.855469 343.84375 338.734375 344.085938 C 338.617188 343.734375 338.5 343.382812 338.378906 343.015625 C 337.671875 343.136719 336.964844 343.253906 336.238281 343.375 C 336.238281 343.136719 336.238281 342.902344 336.238281 342.660156 C 335.929688 342.636719 335.621094 342.617188 335.300781 342.59375 C 333.589844 342.179688 332.527344 341.269531 331.46875 339.875 C 331.117188 338.640625 331.003906 337.492188 331.246094 336.238281 C 331.867188 335.164062 332.613281 334.308594 333.742188 333.742188 C 335.65625 333.648438 336.914062 333.851562 338.734375 334.457031 C 340.40625 334.589844 341.488281 334.550781 343.015625 333.875 C 344.585938 333.230469 345.773438 333.363281 347.296875 334.101562 Z M 347.296875 334.101562 "/><path style=" stroke:none;fill-rule:nonzero;fill:#07649b;fill-opacity:1;" d="M 286.300781 427.195312 C 314.082031 427.195312 341.859375 427.195312 370.480469 427.195312 C 370.480469 435.671875 370.480469 444.144531 370.480469 452.878906 C 369.890625 453.230469 369.304688 453.582031 368.699219 453.949219 C 366.621094 455.257812 365.105469 456.515625 364.417969 458.941406 C 364.039062 461.378906 364.382812 463.691406 365.84375 465.71875 C 367.773438 467.375 369.589844 468.335938 372.175781 468.289062 C 374.804688 468.042969 376.949219 466.996094 378.683594 465.003906 C 379.921875 462.964844 380.0625 460.910156 379.753906 458.585938 C 379.210938 456.984375 378.339844 455.601562 377.257812 454.304688 C 378.996094 455.046875 379.703125 456.179688 380.46875 457.871094 C 380.800781 459.167969 381.019531 460.464844 381.179688 461.792969 C 380.945312 461.792969 380.710938 461.792969 380.46875 461.792969 C 380.425781 462.105469 380.378906 462.414062 380.335938 462.730469 C 379.789062 465.6875 379.789062 465.6875 378.820312 466.65625 C 377.28125 467.542969 375.734375 468.367188 374.046875 468.929688 C 373.8125 469.164062 373.578125 469.398438 373.335938 469.640625 C 373.335938 469.40625 373.335938 469.171875 373.335938 468.929688 C 373.117188 468.949219 372.902344 468.96875 372.679688 468.992188 C 370.144531 469.128906 368.273438 468.636719 366.199219 467.144531 C 363.992188 464.84375 363.570312 462.90625 363.605469 459.761719 C 363.820312 457.183594 364.996094 455.664062 366.921875 454.027344 C 367.628906 453.589844 367.628906 453.589844 369.765625 452.878906 C 369.765625 444.519531 369.765625 436.164062 369.765625 427.550781 C 368.824219 427.671875 367.882812 427.789062 366.914062 427.910156 C 366 427.941406 365.085938 427.953125 364.171875 427.953125 C 363.914062 427.953125 363.652344 427.957031 363.382812 427.957031 C 362.515625 427.957031 361.652344 427.957031 360.785156 427.957031 C 360.160156 427.957031 359.539062 427.957031 358.914062 427.957031 C 357.21875 427.957031 355.523438 427.957031 353.828125 427.957031 C 352.042969 427.957031 350.253906 427.957031 348.464844 427.957031 C 345.449219 427.957031 342.4375 427.957031 339.421875 427.957031 C 335.976562 427.953125 332.527344 427.953125 329.082031 427.957031 C 326.097656 427.957031 323.117188 427.957031 320.132812 427.957031 C 318.363281 427.957031 316.59375 427.957031 314.820312 427.957031 C 305.664062 427.964844 296.523438 427.835938 287.371094 427.550781 C 287.253906 427.789062 287.136719 428.023438 287.015625 428.265625 C 285.308594 430.601562 283.433594 432.242188 280.59375 432.902344 C 278.835938 433.089844 277.523438 433.074219 275.957031 432.1875 C 276.226562 432.207031 276.492188 432.222656 276.769531 432.238281 C 279.5625 432.339844 282.210938 432.167969 284.398438 430.242188 C 285.21875 429.296875 285.742188 428.320312 286.300781 427.195312 Z M 286.300781 427.195312 "/><path style=" stroke:none;fill-rule:nonzero;fill:#057dc7;fill-opacity:1;" d="M 285.589844 419.707031 C 286.636719 420.570312 286.792969 421.246094 287.015625 422.558594 C 287.464844 422.558594 287.914062 422.558594 288.378906 422.558594 C 299.042969 422.542969 309.710938 422.53125 320.378906 422.523438 C 321.6875 422.523438 323 422.519531 324.3125 422.519531 C 324.574219 422.519531 324.835938 422.519531 325.105469 422.519531 C 329.335938 422.515625 333.570312 422.511719 337.804688 422.503906 C 342.144531 422.496094 346.484375 422.492188 350.828125 422.492188 C 353.507812 422.492188 356.1875 422.488281 358.867188 422.480469 C 360.921875 422.476562 362.972656 422.476562 365.027344 422.476562 C 365.871094 422.476562 366.714844 422.476562 367.558594 422.472656 C 368.707031 422.46875 369.851562 422.472656 371 422.472656 C 371.339844 422.472656 371.675781 422.46875 372.023438 422.464844 C 372.332031 422.46875 372.636719 422.46875 372.953125 422.472656 C 373.21875 422.472656 373.480469 422.46875 373.753906 422.46875 C 374.40625 422.558594 374.40625 422.558594 375.117188 423.273438 C 375 423.507812 374.882812 423.742188 374.761719 423.984375 C 374.996094 423.984375 375.230469 423.984375 375.472656 423.984375 C 375.355469 424.222656 375.238281 424.457031 375.117188 424.699219 C 375.035156 425.542969 374.972656 426.390625 374.917969 427.242188 C 374.886719 427.699219 374.859375 428.15625 374.828125 428.625 C 374.804688 428.976562 374.785156 429.328125 374.761719 429.691406 C 374.996094 429.691406 375.230469 429.691406 375.472656 429.691406 C 375.355469 429.929688 375.238281 430.164062 375.117188 430.40625 C 375.0625 431.207031 375.027344 432.011719 375.003906 432.816406 C 374.992188 433.171875 374.992188 433.171875 374.984375 433.53125 C 374.960938 434.289062 374.9375 435.046875 374.917969 435.800781 C 374.902344 436.3125 374.886719 436.824219 374.871094 437.335938 C 374.832031 438.59375 374.796875 439.851562 374.761719 441.105469 C 374.996094 441.222656 375.230469 441.34375 375.472656 441.464844 C 375.238281 441.464844 375.003906 441.464844 374.761719 441.464844 C 374.878906 445.230469 374.996094 448.996094 375.117188 452.878906 C 375.824219 453.230469 376.53125 453.582031 377.257812 453.949219 C 377.023438 454.066406 376.789062 454.183594 376.542969 454.304688 C 375.71875 453.949219 374.898438 453.597656 374.046875 453.234375 C 374.046875 443.347656 374.046875 433.460938 374.046875 423.273438 C 345.328125 423.273438 316.605469 423.273438 287.015625 423.273438 C 285.589844 420.417969 285.589844 420.417969 285.589844 419.707031 Z M 285.589844 419.707031 "/><path style=" stroke:none;fill-rule:nonzero;fill:#0574ba;fill-opacity:1;" d="M 333.027344 410.074219 C 349.507812 410.074219 365.988281 410.074219 382.964844 410.074219 C 382.964844 427.847656 382.964844 445.621094 382.964844 463.933594 C 381.730469 464.640625 381.730469 464.640625 380.46875 465.363281 C 380.234375 465.242188 379.996094 465.125 379.753906 465.003906 C 381.046875 463.933594 381.046875 463.933594 382.25 463.933594 C 382.195312 463.621094 382.136719 463.308594 382.078125 462.984375 C 381.78125 460.890625 381.84375 458.777344 381.847656 456.664062 C 381.847656 456.183594 381.847656 455.699219 381.847656 455.21875 C 381.84375 453.914062 381.847656 452.609375 381.847656 451.304688 C 381.847656 449.9375 381.847656 448.570312 381.847656 447.203125 C 381.847656 444.90625 381.847656 442.613281 381.847656 440.316406 C 381.851562 437.664062 381.851562 435.015625 381.847656 432.363281 C 381.847656 430.082031 381.847656 427.804688 381.847656 425.523438 C 381.847656 424.164062 381.847656 422.804688 381.847656 421.441406 C 381.84375 420.164062 381.847656 418.886719 381.847656 417.609375 C 381.847656 416.917969 381.847656 416.222656 381.847656 415.53125 C 381.847656 415.121094 381.847656 414.707031 381.851562 414.28125 C 381.851562 413.742188 381.851562 413.742188 381.851562 413.195312 C 381.894531 412.238281 382.035156 411.363281 382.25 410.429688 C 381.898438 410.550781 381.546875 410.667969 381.179688 410.789062 C 380.542969 410.816406 379.898438 410.824219 379.257812 410.820312 C 378.859375 410.816406 378.460938 410.816406 378.050781 410.8125 C 377.613281 410.808594 377.171875 410.804688 376.722656 410.800781 C 376.015625 410.796875 375.304688 410.792969 374.597656 410.789062 C 373.835938 410.78125 373.078125 410.777344 372.316406 410.769531 C 370.730469 410.757812 369.144531 410.753906 367.558594 410.746094 C 367.292969 410.746094 367.023438 410.742188 366.746094 410.742188 C 366.199219 410.742188 365.652344 410.738281 365.105469 410.734375 C 361.414062 410.71875 357.722656 410.703125 354.03125 410.671875 C 351.542969 410.652344 349.050781 410.640625 346.5625 410.632812 C 345.242188 410.632812 343.925781 410.625 342.609375 410.609375 C 341.140625 410.59375 339.671875 410.59375 338.203125 410.589844 C 337.761719 410.585938 337.324219 410.578125 336.875 410.570312 C 336.476562 410.570312 336.074219 410.574219 335.664062 410.574219 C 335.316406 410.574219 334.96875 410.570312 334.613281 410.570312 C 333.648438 410.710938 333.648438 410.710938 333.085938 411.691406 C 332.949219 411.984375 332.8125 412.273438 332.671875 412.570312 C 332.554688 412.335938 332.4375 412.101562 332.316406 411.859375 C 332.550781 411.269531 332.785156 410.679688 333.027344 410.074219 Z M 333.027344 410.074219 "/><path style=" stroke:none;fill-rule:nonzero;fill:#0370ba;fill-opacity:1;" d="M 441.820312 400.085938 C 441.414062 400.234375 441.007812 400.382812 440.59375 400.535156 C 439.285156 400.988281 439.285156 400.988281 439.078125 401.871094 C 439.039062 402.105469 439.003906 402.339844 438.964844 402.585938 C 438.277344 403.183594 437.636719 403.605469 436.824219 404.011719 C 436.296875 405.070312 436.296875 405.070312 435.753906 406.152344 C 402.089844 406.152344 368.425781 406.152344 333.742188 406.152344 C 333.390625 405.089844 333.035156 404.03125 332.671875 402.941406 C 333.742188 404.011719 333.742188 404.011719 334.457031 405.4375 C 367.882812 405.4375 401.3125 405.4375 435.753906 405.4375 C 435.871094 404.847656 435.992188 404.261719 436.113281 403.652344 C 437.195312 401.574219 439.289062 399.179688 441.820312 400.085938 Z M 441.820312 400.085938 "/><path style=" stroke:none;fill-rule:nonzero;fill:#047ac4;fill-opacity:1;" d="M 370.125 427.195312 C 370.242188 427.195312 370.359375 427.195312 370.480469 427.195312 C 370.523438 430.527344 370.554688 433.855469 370.574219 437.1875 C 370.582031 438.730469 370.59375 440.277344 370.617188 441.824219 C 370.636719 443.316406 370.644531 444.808594 370.648438 446.300781 C 370.652344 446.867188 370.660156 447.4375 370.667969 448.007812 C 370.683594 448.804688 370.683594 449.601562 370.683594 450.398438 C 370.6875 450.851562 370.691406 451.304688 370.695312 451.773438 C 370.480469 452.878906 370.480469 452.878906 369.625 453.539062 C 369.316406 453.671875 369.011719 453.808594 368.699219 453.949219 C 366.621094 455.257812 365.105469 456.515625 364.417969 458.941406 C 364.039062 461.378906 364.382812 463.691406 365.84375 465.71875 C 367.773438 467.375 369.589844 468.335938 372.175781 468.289062 C 374.804688 468.042969 376.949219 466.996094 378.683594 465.003906 C 379.921875 462.964844 380.0625 460.910156 379.753906 458.585938 C 379.210938 456.984375 378.339844 455.601562 377.257812 454.304688 C 378.996094 455.046875 379.703125 456.179688 380.46875 457.871094 C 380.800781 459.167969 381.019531 460.464844 381.179688 461.792969 C 380.945312 461.792969 380.710938 461.792969 380.46875 461.792969 C 380.425781 462.105469 380.378906 462.414062 380.335938 462.730469 C 379.789062 465.6875 379.789062 465.6875 378.820312 466.65625 C 377.28125 467.542969 375.734375 468.367188 374.046875 468.929688 C 373.695312 469.28125 373.695312 469.28125 373.335938 469.640625 C 373.335938 469.40625 373.335938 469.171875 373.335938 468.929688 C 373.117188 468.949219 372.902344 468.96875 372.679688 468.992188 C 370.144531 469.128906 368.273438 468.636719 366.199219 467.144531 C 363.992188 464.84375 363.570312 462.90625 363.605469 459.761719 C 363.820312 457.183594 364.996094 455.664062 366.921875 454.027344 C 367.628906 453.589844 367.628906 453.589844 369.765625 452.878906 C 369.886719 444.402344 370.003906 435.925781 370.125 427.195312 Z M 370.125 427.195312 "/><path style=" stroke:none;fill-rule:nonzero;fill:#0369b9;fill-opacity:1;" d="M 393.664062 352.648438 C 393.902344 352.765625 394.136719 352.882812 394.378906 353.003906 C 394.195312 353.195312 394.007812 353.386719 393.816406 353.582031 C 388.90625 358.828125 388.511719 364.585938 388.515625 371.4375 C 388.507812 377.535156 388.507812 377.535156 386.886719 379.757812 C 385.613281 380.179688 384.664062 380.207031 383.320312 380.113281 C 382.273438 379.578125 382.273438 379.578125 381.539062 379.042969 C 381.714844 378.691406 381.714844 378.691406 381.894531 378.328125 C 382.21875 378.511719 382.542969 378.695312 382.875 378.886719 C 383.941406 379.46875 383.941406 379.46875 384.792969 379.332031 C 385.125 379.1875 385.125 379.1875 385.460938 379.042969 C 385.71875 378.933594 385.976562 378.820312 386.242188 378.707031 C 386.949219 378.375 386.949219 378.375 387.246094 377.617188 C 387.289062 376.800781 387.308594 375.988281 387.320312 375.171875 C 387.332031 374.664062 387.339844 374.15625 387.351562 373.648438 C 387.367188 372.855469 387.378906 372.058594 387.386719 371.265625 C 387.480469 364.128906 388.414062 357.925781 393.664062 352.648438 Z M 393.664062 352.648438 "/><path style=" stroke:none;fill-rule:nonzero;fill:#0370bc;fill-opacity:1;" d="M 423.160156 357.730469 C 423.441406 357.761719 423.722656 357.792969 424.011719 357.824219 C 424.238281 357.882812 424.464844 357.9375 424.699219 357.996094 C 424.875 358.351562 424.875 358.351562 425.054688 358.710938 C 424.792969 358.691406 424.53125 358.671875 424.257812 358.648438 C 422.03125 358.496094 422.03125 358.496094 420.128906 359.492188 C 419.871094 359.824219 419.613281 360.152344 419.347656 360.496094 C 417.507812 362.242188 416.257812 362.667969 413.753906 362.699219 C 413.167969 362.710938 413.167969 362.710938 412.574219 362.722656 C 411.753906 362.738281 410.9375 362.75 410.121094 362.757812 C 407.785156 362.789062 407.785156 362.789062 405.691406 363.71875 C 405.390625 364.066406 405.390625 364.066406 405.078125 364.417969 C 405.390625 363.273438 405.675781 362.726562 406.617188 361.988281 C 408.589844 361.355469 410.515625 361.484375 412.570312 361.566406 C 412.570312 361.683594 412.570312 361.800781 412.570312 361.921875 C 414.539062 362.042969 416.191406 361.867188 417.921875 360.851562 C 418.53125 360.246094 419.046875 359.625 419.554688 358.933594 C 420.617188 357.722656 421.601562 357.535156 423.160156 357.730469 Z M 423.160156 357.730469 "/><path style=" stroke:none;fill-rule:nonzero;fill:#026eba;fill-opacity:1;" d="M 425.390625 334.101562 C 427.566406 334.8125 429.386719 334.597656 431.476562 333.742188 C 432.882812 333.566406 434.007812 333.613281 435.332031 334.144531 C 436.339844 335.007812 436.746094 335.695312 437.183594 336.953125 C 437.070312 338.335938 437.070312 338.335938 436.824219 339.449219 C 436.707031 339.449219 436.589844 339.449219 436.46875 339.449219 C 436.449219 339.128906 436.449219 339.128906 436.429688 338.796875 C 436.328125 337.566406 436.21875 336.492188 435.734375 335.347656 C 434.636719 334.5 433.53125 334.386719 432.1875 334.457031 C 431.285156 334.699219 430.410156 334.996094 429.523438 335.296875 C 427.738281 335.75 426.058594 335.386719 424.339844 334.8125 C 422.648438 334.621094 421.492188 334.578125 420.039062 335.527344 C 419.808594 335.761719 419.582031 335.996094 419.347656 336.238281 C 419.859375 334.621094 419.859375 334.621094 420.640625 333.988281 C 422.28125 333.511719 423.792969 333.554688 425.390625 334.101562 Z M 425.390625 334.101562 "/><path style=" stroke:none;fill-rule:nonzero;fill:#047ece;fill-opacity:1;" d="M 327.679688 328.75 C 327.914062 328.867188 328.148438 328.984375 328.390625 329.105469 C 328.050781 329.503906 328.050781 329.503906 327.699219 329.910156 C 326.15625 331.96875 326.503906 334.496094 326.484375 336.972656 C 326.476562 337.476562 326.46875 337.980469 326.453125 338.484375 C 326.371094 341.605469 326.496094 343.996094 328.390625 346.582031 C 328.507812 346.820312 328.628906 347.054688 328.75 347.296875 C 327.445312 346.851562 327.042969 346.703125 326.25 345.515625 C 325.507812 342.796875 325.417969 340.042969 325.425781 337.242188 C 325.421875 336.875 325.414062 336.511719 325.410156 336.132812 C 325.40625 333.328125 325.761719 330.941406 327.679688 328.75 Z M 327.679688 328.75 "/><path style=" stroke:none;fill-rule:nonzero;fill:#054c93;fill-opacity:1;" d="M 386.53125 308.0625 C 386.648438 308.0625 386.765625 308.0625 386.886719 308.0625 C 386.890625 308.28125 386.894531 308.5 386.894531 308.726562 C 386.917969 311.011719 386.949219 313.296875 386.980469 315.582031 C 386.992188 316.4375 387.003906 317.289062 387.011719 318.140625 C 387.023438 319.367188 387.042969 320.59375 387.0625 321.820312 C 387.066406 322.390625 387.066406 322.390625 387.070312 322.976562 C 387.109375 325.011719 387.15625 326.519531 388.671875 328.035156 C 390.605469 328.242188 392.078125 328.195312 393.664062 326.964844 C 393.296875 328.15625 392.902344 328.421875 391.816406 329.082031 C 390.457031 329.460938 390.457031 329.460938 389.117188 329.0625 C 387.0625 327.875 387.0625 327.875 386.503906 326.097656 C 386.066406 324.257812 386.121094 322.480469 386.183594 320.601562 C 386.191406 320.242188 386.203125 319.882812 386.210938 319.511719 C 386.238281 318.367188 386.273438 317.226562 386.308594 316.085938 C 386.328125 315.308594 386.351562 314.53125 386.371094 313.753906 C 386.421875 311.855469 386.472656 309.960938 386.53125 308.0625 Z M 386.53125 308.0625 "/><path style=" stroke:none;fill-rule:nonzero;fill:#0269b2;fill-opacity:1;" d="M 428.640625 299.53125 C 429.96875 300.398438 430.710938 301.121094 431.117188 302.710938 C 430.890625 302.496094 430.890625 302.496094 430.660156 302.28125 C 428.910156 300.699219 427.40625 299.625 424.988281 299.390625 C 423.980469 299.5 423.390625 299.648438 422.558594 300.214844 C 421.609375 301.636719 421.542969 302.820312 421.84375 304.496094 C 422.609375 305.378906 422.609375 305.378906 423.628906 305.921875 C 423.898438 306.128906 424.171875 306.332031 424.453125 306.546875 C 424.652344 306.691406 424.851562 306.839844 425.054688 306.992188 C 424.9375 307.226562 424.820312 307.460938 424.699219 307.703125 C 423.757812 307.117188 422.8125 306.527344 421.84375 305.921875 C 421.726562 306.15625 421.609375 306.390625 421.488281 306.632812 C 420.347656 302.507812 420.347656 302.507812 421.332031 300.503906 C 423.476562 298.03125 425.917969 298.097656 428.640625 299.53125 Z M 428.640625 299.53125 "/><path style=" stroke:none;fill-rule:nonzero;fill:#0270bb;fill-opacity:1;" d="M 364.417969 331.601562 C 364.789062 332.71875 364.75 333.027344 364.417969 334.101562 C 365.078125 334.074219 365.078125 334.074219 365.75 334.050781 C 370.355469 333.925781 374.074219 334.246094 377.855469 337.144531 C 378.328125 337.667969 378.328125 337.667969 378.328125 338.738281 C 377.988281 338.414062 377.652344 338.089844 377.300781 337.757812 C 374.453125 335.34375 371.390625 334.949219 367.761719 334.902344 C 367.367188 334.890625 366.976562 334.882812 366.574219 334.871094 C 365.617188 334.84375 364.660156 334.828125 363.703125 334.8125 C 364.015625 332.40625 364.015625 332.40625 364.417969 331.601562 Z M 364.417969 331.601562 "/><path style=" stroke:none;fill-rule:nonzero;fill:#026fbc;fill-opacity:1;" d="M 407.019531 323.019531 C 407.933594 323.753906 407.933594 323.753906 408.289062 324.46875 C 408.097656 324.367188 407.90625 324.261719 407.710938 324.15625 C 405.664062 323.1875 404.023438 322.921875 401.78125 323.109375 C 401.078125 323.363281 401.078125 323.363281 400.710938 324.179688 C 400.308594 325.683594 400.210938 326.792969 400.84375 328.238281 C 401.511719 329.175781 401.511719 329.175781 402.605469 329.976562 C 403.742188 330.96875 404.03125 331.582031 404.367188 333.03125 C 404.132812 333.03125 403.894531 333.03125 403.652344 333.03125 C 403.527344 332.722656 403.402344 332.410156 403.273438 332.09375 C 402.640625 330.992188 402.269531 330.574219 401.3125 329.820312 C 400.128906 328.847656 399.558594 328.191406 399.371094 326.609375 C 399.578125 325.171875 399.929688 323.914062 400.972656 322.863281 C 403.050781 321.488281 404.9375 321.847656 407.019531 323.019531 Z M 407.019531 323.019531 "/><path style=" stroke:none;fill-rule:nonzero;fill:#047ac5;fill-opacity:1;" d="M 387.601562 365.84375 C 387.71875 365.84375 387.835938 365.84375 387.957031 365.84375 C 388.046875 367.367188 388.121094 368.890625 388.191406 370.414062 C 388.214844 370.929688 388.242188 371.445312 388.269531 371.964844 C 388.582031 377.402344 388.582031 377.402344 386.886719 379.757812 C 385.613281 380.179688 384.664062 380.207031 383.320312 380.113281 C 382.273438 379.578125 382.273438 379.578125 381.539062 379.042969 C 381.65625 378.808594 381.773438 378.570312 381.894531 378.328125 C 382.21875 378.511719 382.542969 378.695312 382.875 378.886719 C 383.941406 379.46875 383.941406 379.46875 384.792969 379.332031 C 385.015625 379.238281 385.234375 379.140625 385.460938 379.042969 C 385.71875 378.933594 385.976562 378.820312 386.242188 378.707031 C 386.949219 378.375 386.949219 378.375 387.246094 377.617188 C 387.300781 376.730469 387.335938 375.855469 387.359375 374.972656 C 387.367188 374.710938 387.371094 374.449219 387.378906 374.183594 C 387.402344 373.351562 387.425781 372.519531 387.445312 371.6875 C 387.460938 371.121094 387.476562 370.558594 387.492188 369.996094 C 387.53125 368.613281 387.566406 367.226562 387.601562 365.84375 Z M 387.601562 365.84375 "/><path style=" stroke:none;fill-rule:nonzero;fill:#0161a9;fill-opacity:1;" d="M 348.007812 358.710938 C 348.265625 358.984375 348.523438 359.253906 348.789062 359.535156 C 350.421875 361.09375 351.824219 361.972656 354.074219 361.964844 C 354.546875 361.96875 354.546875 361.96875 355.03125 361.96875 C 355.867188 361.976562 355.867188 361.976562 356.570312 361.566406 C 358.785156 361.414062 360.242188 361.761719 362.277344 362.636719 C 362.160156 362.871094 362.042969 363.105469 361.921875 363.347656 C 361.664062 363.230469 361.410156 363.113281 361.148438 362.992188 C 360.085938 362.617188 359.363281 362.566406 358.242188 362.601562 C 357.710938 362.613281 357.710938 362.613281 357.167969 362.625 C 356.429688 362.644531 355.691406 362.667969 354.949219 362.695312 C 352.640625 362.738281 350.980469 362.648438 349.195312 361.015625 C 348.007812 359.503906 348.007812 359.503906 348.007812 358.710938 Z M 348.007812 358.710938 "/><path style=" stroke:none;fill-rule:nonzero;fill:#037fca;fill-opacity:1;" d="M 441.820312 400.085938 C 441.414062 400.234375 441.007812 400.382812 440.59375 400.535156 C 439.285156 400.988281 439.285156 400.988281 439.078125 401.871094 C 439.039062 402.105469 439.003906 402.339844 438.964844 402.585938 C 438.277344 403.183594 437.636719 403.605469 436.824219 404.011719 C 436.453125 404.714844 436.09375 405.429688 435.753906 406.152344 C 433.59375 406.222656 433.59375 406.222656 432.902344 406.152344 C 432.667969 405.914062 432.429688 405.679688 432.1875 405.4375 C 433.367188 405.4375 434.542969 405.4375 435.753906 405.4375 C 435.785156 405.1875 435.8125 404.9375 435.84375 404.679688 C 436.441406 402.394531 437.765625 401.230469 439.679688 400.011719 C 440.542969 399.671875 440.960938 399.777344 441.820312 400.085938 Z M 441.820312 400.085938 "/><path style=" stroke:none;fill-rule:nonzero;fill:#047fcc;fill-opacity:1;" d="M 410.183594 361.496094 C 410.632812 361.507812 411.078125 361.515625 411.539062 361.527344 C 411.878906 361.539062 412.21875 361.550781 412.570312 361.566406 C 412.453125 361.800781 412.335938 362.035156 412.214844 362.277344 C 411.109375 362.449219 410.015625 362.558594 408.90625 362.648438 C 407.21875 362.824219 406.300781 363.25 405.078125 364.417969 C 405.402344 363.332031 405.648438 362.75 406.550781 362.042969 C 407.832031 361.445312 408.777344 361.457031 410.183594 361.496094 Z M 410.183594 361.496094 "/><path style=" stroke:none;fill-rule:nonzero;fill:#036fba;fill-opacity:1;" d="M 386.53125 325.894531 C 386.765625 325.894531 387.003906 325.894531 387.246094 325.894531 C 387.621094 326.480469 387.976562 327.074219 388.316406 327.679688 C 388.871094 328.234375 389.417969 328.109375 390.1875 328.125 C 391.632812 328.117188 392.5 327.871094 393.664062 326.964844 C 393.296875 328.15625 392.902344 328.421875 391.816406 329.082031 C 390.457031 329.460938 390.457031 329.460938 389.117188 329.0625 C 387.0625 327.875 387.0625 327.875 386.644531 326.542969 C 386.605469 326.328125 386.570312 326.117188 386.53125 325.894531 Z M 386.53125 325.894531 "/><path style=" stroke:none;fill-rule:nonzero;fill:#0479c3;fill-opacity:1;" d="M 413.640625 354.074219 C 414.230469 354.074219 414.816406 354.074219 415.421875 354.074219 C 413.972656 355.753906 411.621094 356.460938 409.460938 356.660156 C 408.710938 356.660156 407.964844 356.621094 407.21875 356.570312 C 407.21875 356.453125 407.21875 356.335938 407.21875 356.214844 C 411.328125 355.460938 411.328125 355.460938 413.285156 355.144531 C 413.402344 354.792969 413.519531 354.4375 413.640625 354.074219 Z M 413.640625 354.074219 "/><path style=" stroke:none;fill-rule:nonzero;fill:#0476be;fill-opacity:1;" d="M 357.664062 361.476562 C 359.40625 361.488281 360.6875 361.941406 362.277344 362.636719 C 362.160156 362.871094 362.042969 363.105469 361.921875 363.347656 C 361.691406 363.230469 361.464844 363.113281 361.230469 362.992188 C 359.972656 362.582031 358.976562 362.609375 357.671875 362.679688 C 356.925781 362.636719 356.925781 362.636719 355.855469 361.921875 C 356.402344 361.375 356.902344 361.492188 357.664062 361.476562 Z M 357.664062 361.476562 "/><path style=" stroke:none;fill-rule:nonzero;fill:#0275c0;fill-opacity:1;" d="M 325.894531 341.589844 C 326.011719 341.589844 326.128906 341.589844 326.25 341.589844 C 326.3125 341.792969 326.371094 341.996094 326.433594 342.203125 C 327.019531 344.0625 327.726562 345.640625 328.75 347.296875 C 327.445312 346.851562 327.042969 346.703125 326.25 345.515625 C 326.105469 344.550781 326.105469 344.550781 326.027344 343.484375 C 326 343.128906 325.976562 342.777344 325.949219 342.410156 C 325.929688 342.140625 325.914062 341.871094 325.894531 341.589844 Z M 325.894531 341.589844 "/><path style=" stroke:none;fill-rule:nonzero;fill:#00b5fa;fill-opacity:1;" d="M 390.8125 466.429688 C 391.785156 467.015625 392.203125 467.421875 392.683594 468.460938 C 393.003906 469.863281 393 471.058594 392.953125 472.496094 C 392.835938 472.496094 392.71875 472.496094 392.59375 472.496094 C 392.5 472.058594 392.5 472.058594 392.398438 471.609375 C 392.265625 471.03125 392.265625 471.03125 392.128906 470.445312 C 392.039062 470.0625 391.953125 469.683594 391.863281 469.289062 C 391.535156 468.242188 391.167969 467.609375 390.457031 466.789062 C 390.574219 466.671875 390.691406 466.554688 390.8125 466.429688 Z M 390.8125 466.429688 "/><path style=" stroke:none;fill-rule:nonzero;fill:#018dde;fill-opacity:1;" d="M 415.066406 321.617188 C 415.300781 321.734375 415.539062 321.851562 415.78125 321.972656 C 415.730469 322.148438 415.675781 322.324219 415.625 322.507812 C 415.34375 323.746094 415.214844 324.988281 415.066406 326.253906 C 414.832031 326.136719 414.597656 326.015625 414.355469 325.894531 C 413.996094 324.464844 413.851562 323.695312 414.511719 322.351562 C 414.695312 322.109375 414.878906 321.867188 415.066406 321.617188 Z M 415.066406 321.617188 "/><path style=" stroke:none;fill-rule:nonzero;fill:#0373c0;fill-opacity:1;" d="M 421.128906 304.496094 C 422.574219 305.128906 423.792969 306.0625 425.054688 306.992188 C 424.9375 307.226562 424.820312 307.460938 424.699219 307.703125 C 423.757812 307.117188 422.8125 306.527344 421.84375 305.921875 C 421.726562 306.15625 421.609375 306.390625 421.488281 306.632812 C 421.371094 305.929688 421.253906 305.222656 421.128906 304.496094 Z M 421.128906 304.496094 "/><path style=" stroke:none;fill-rule:nonzero;fill:#0885cc;fill-opacity:1;" d="M 376.902344 466.789062 C 376.902344 467.140625 376.902344 467.496094 376.902344 467.859375 C 376.605469 467.960938 376.605469 467.960938 376.300781 468.066406 C 376.042969 468.160156 375.785156 468.253906 375.519531 468.347656 C 375.261719 468.441406 375.007812 468.53125 374.742188 468.625 C 373.984375 468.90625 373.984375 468.90625 373.335938 469.640625 C 373.214844 469.171875 373.097656 468.699219 372.976562 468.214844 C 373.203125 468.140625 373.425781 468.070312 373.65625 467.992188 C 373.945312 467.898438 374.238281 467.800781 374.539062 467.703125 C 374.828125 467.605469 375.117188 467.511719 375.417969 467.414062 C 376.191406 467.164062 376.191406 467.164062 376.902344 466.789062 Z M 376.902344 466.789062 "/><path style=" stroke:none;fill-rule:nonzero;fill:#0267b1;fill-opacity:1;" d="M 423.628906 333.742188 C 423.628906 333.859375 423.628906 333.980469 423.628906 334.101562 C 423.066406 334.230469 423.066406 334.230469 422.492188 334.367188 C 421.199219 334.730469 420.347656 335.332031 419.347656 336.238281 C 419.863281 334.605469 419.863281 334.605469 420.683594 333.988281 C 421.691406 333.679688 422.582031 333.695312 423.628906 333.742188 Z M 423.628906 333.742188 "/><path style=" stroke:none;fill-rule:nonzero;fill:#026ab4;fill-opacity:1;" d="M 444.671875 321.972656 C 446.070312 322.425781 446.738281 322.867188 447.527344 324.113281 C 447.40625 324.347656 447.289062 324.582031 447.167969 324.824219 C 446.753906 324.417969 446.335938 324.007812 445.921875 323.601562 C 445.6875 323.371094 445.457031 323.144531 445.21875 322.910156 C 444.671875 322.328125 444.671875 322.328125 444.671875 321.972656 Z M 444.671875 321.972656 "/><path style=" stroke:none;fill-rule:nonzero;fill:#069bee;fill-opacity:1;" d="M 372.976562 323.398438 C 373.09375 323.398438 373.214844 323.398438 373.335938 323.398438 C 373.335938 324.222656 373.335938 325.046875 373.335938 325.894531 C 373.214844 325.894531 373.097656 325.894531 372.976562 325.894531 C 372.976562 325.070312 372.976562 324.25 372.976562 323.398438 Z M 372.976562 323.398438 "/><path style=" stroke:none;fill-rule:nonzero;fill:#079def;fill-opacity:1;" d="M 348.007812 302.355469 C 348.363281 302.53125 348.363281 302.53125 348.722656 302.710938 C 348.605469 303.0625 348.488281 303.417969 348.367188 303.78125 C 348.25 303.308594 348.128906 302.839844 348.007812 302.355469 Z M 348.007812 302.355469 "/><path style=" stroke:none;fill-rule:nonzero;fill:#0aadf4;fill-opacity:1;" d="M 375.117188 443.601562 C 375.472656 445.03125 375.472656 445.03125 375.472656 445.03125 Z M 375.117188 443.601562 "/><path style=" stroke:none;fill-rule:nonzero;fill:#09a7f8;fill-opacity:1;" d="M 413.285156 361.566406 C 414.710938 361.921875 414.710938 361.921875 414.710938 361.921875 Z M 413.285156 361.566406 "/><path style=" stroke:none;fill-rule:nonzero;fill:#04a0f4;fill-opacity:1;" d="M 340.875 343.730469 C 341.109375 343.730469 341.347656 343.730469 341.589844 343.730469 C 341.589844 343.964844 341.589844 344.203125 341.589844 344.445312 C 341.355469 344.445312 341.117188 344.445312 340.875 344.445312 C 340.875 344.207031 340.875 343.972656 340.875 343.730469 Z M 340.875 343.730469 "/><path style=" stroke:none;fill-rule:nonzero;fill:#069ef1;fill-opacity:1;" d="M 372.976562 318.046875 C 373.335938 319.476562 373.335938 319.476562 373.335938 319.476562 Z M 372.976562 318.046875 "/><path style=" stroke:none;fill-rule:nonzero;fill:#0aa1e5;fill-opacity:1;" d="M 374.046875 468.929688 C 375.117188 469.285156 375.117188 469.285156 375.117188 469.285156 Z M 374.046875 468.929688 "/><path style=" stroke:none;fill-rule:nonzero;fill:#09a4ee;fill-opacity:1;" d="M 325.179688 398.660156 C 326.25 399.015625 326.25 399.015625 326.25 399.015625 Z M 325.179688 398.660156 "/><path style=" stroke:none;fill-rule:nonzero;fill:#049ff3;fill-opacity:1;" d="M 339.449219 343.730469 C 340.519531 344.085938 340.519531 344.085938 340.519531 344.085938 Z M 339.449219 343.730469 "/><path style=" stroke:none;fill-rule:nonzero;fill:#069ff6;fill-opacity:1;" d="M 371.90625 333.742188 C 372.976562 334.101562 372.976562 334.101562 372.976562 334.101562 Z M 371.90625 333.742188 "/><path style=" stroke:none;fill-rule:nonzero;fill:#05a1f7;fill-opacity:1;" d="M 400.441406 333.386719 C 401.511719 333.742188 401.511719 333.742188 401.511719 333.742188 Z M 400.441406 333.386719 "/><path style=" stroke:none;fill-rule:nonzero;fill:#079af0;fill-opacity:1;" d="M 432.902344 333.03125 C 433.972656 333.386719 433.972656 333.386719 433.972656 333.386719 Z M 432.902344 333.03125 "/><path style=" stroke:none;fill-rule:nonzero;fill:#05a1f5;fill-opacity:1;" d="M 421.84375 333.03125 C 422.914062 333.386719 422.914062 333.386719 422.914062 333.386719 Z M 421.84375 333.03125 "/><path style=" stroke:none;fill-rule:nonzero;fill:#039ef3;fill-opacity:1;" d="M 345.15625 333.03125 C 346.226562 333.386719 346.226562 333.386719 346.226562 333.386719 Z M 345.15625 333.03125 "/><path style=" stroke:none;fill-rule:nonzero;fill:#039df9;fill-opacity:1;" d="M 356.925781 318.046875 C 357.164062 318.046875 357.398438 318.046875 357.640625 318.046875 C 357.523438 318.285156 357.40625 318.519531 357.285156 318.761719 C 357.164062 318.527344 357.046875 318.292969 356.925781 318.046875 Z M 356.925781 318.046875 "/><path style=" stroke:none;fill-rule:nonzero;fill:#0c84c2;fill-opacity:1;" d="M 385.460938 480.699219 C 386.175781 481.054688 386.175781 481.054688 386.175781 481.054688 Z M 385.460938 480.699219 "/><path style=" stroke:none;fill-rule:nonzero;fill:#0d9de2;fill-opacity:1;" d="M 371.195312 469.285156 C 371.90625 469.640625 371.90625 469.640625 371.90625 469.640625 Z M 371.195312 469.285156 "/><path style=" stroke:none;fill-rule:nonzero;fill:#0b9adf;fill-opacity:1;" d="M 370.125 469.285156 C 370.835938 469.640625 370.835938 469.640625 370.835938 469.640625 Z M 370.125 469.285156 "/><path style=" stroke:none;fill-rule:nonzero;fill:#0aaaf3;fill-opacity:1;" d="M 367.628906 452.878906 C 368.339844 453.234375 368.339844 453.234375 368.339844 453.234375 Z M 367.628906 452.878906 "/><path style=" stroke:none;fill-rule:nonzero;fill:#089ae9;fill-opacity:1;" d="M 481.769531 428.980469 C 482.480469 429.335938 482.480469 429.335938 482.480469 429.335938 Z M 481.769531 428.980469 "/><path style=" stroke:none;fill-rule:nonzero;fill:#0ea8f3;fill-opacity:1;" d="M 372.976562 421.84375 C 373.691406 422.203125 373.691406 422.203125 373.691406 422.203125 Z M 372.976562 421.84375 "/><path style=" stroke:none;fill-rule:nonzero;fill:#09a1ed;fill-opacity:1;" d="M 441.820312 398.660156 C 442.53125 399.015625 442.53125 399.015625 442.53125 399.015625 Z M 441.820312 398.660156 "/><path style=" stroke:none;fill-rule:nonzero;fill:#0ba4f1;fill-opacity:1;" d="M 381.894531 388.671875 C 382.609375 389.03125 382.609375 389.03125 382.609375 389.03125 Z M 381.894531 388.671875 "/><path style=" stroke:none;fill-rule:nonzero;fill:#04a1f0;fill-opacity:1;" d="M 406.507812 361.566406 C 407.21875 361.921875 407.21875 361.921875 407.21875 361.921875 Z M 406.507812 361.566406 "/><path style=" stroke:none;fill-rule:nonzero;fill:#069df4;fill-opacity:1;" d="M 359.066406 357.285156 C 359.78125 357.640625 359.78125 357.640625 359.78125 357.640625 Z M 359.066406 357.285156 "/><path style=" stroke:none;fill-rule:nonzero;fill:#069ef3;fill-opacity:1;" d="M 356.570312 356.929688 C 357.285156 357.285156 357.285156 357.285156 357.285156 357.285156 Z M 356.570312 356.929688 "/><path style=" stroke:none;fill-rule:nonzero;fill:#069ff2;fill-opacity:1;" d="M 425.410156 343.730469 C 426.125 344.085938 426.125 344.085938 426.125 344.085938 Z M 425.410156 343.730469 "/><path style=" stroke:none;fill-rule:nonzero;fill:#04a1f5;fill-opacity:1;" d="M 430.046875 343.375 C 430.761719 343.730469 430.761719 343.730469 430.761719 343.730469 Z M 430.046875 343.375 "/><path style=" stroke:none;fill-rule:nonzero;fill:#029ff6;fill-opacity:1;" d="M 380.46875 338.738281 C 381.179688 339.09375 381.179688 339.09375 381.179688 339.09375 Z M 380.46875 338.738281 "/><path style=" stroke:none;fill-rule:nonzero;fill:#05a1f4;fill-opacity:1;" d="M 376.542969 335.882812 C 377.257812 336.238281 377.257812 336.238281 377.257812 336.238281 Z M 376.542969 335.882812 "/><path style=" stroke:none;fill-rule:nonzero;fill:#04a0f5;fill-opacity:1;" d="M 372.976562 334.101562 C 373.691406 334.457031 373.691406 334.457031 373.691406 334.457031 Z M 372.976562 334.101562 "/><path style=" stroke:none;fill-rule:nonzero;fill:#049df2;fill-opacity:1;" d="M 366.914062 333.386719 C 367.628906 333.742188 367.628906 333.742188 367.628906 333.742188 Z M 366.914062 333.386719 "/><path style=" stroke:none;fill-rule:nonzero;fill:#04a1f2;fill-opacity:1;" d="M 334.457031 333.03125 C 335.167969 333.386719 335.167969 333.386719 335.167969 333.386719 Z M 334.457031 333.03125 "/><path style=" stroke:none;fill-rule:nonzero;fill:#049ff0;fill-opacity:1;" d="M 327.679688 329.820312 C 328.390625 330.175781 328.390625 330.175781 328.390625 330.175781 Z M 327.679688 329.820312 "/><path style=" stroke:none;fill-rule:nonzero;fill:#058cdc;fill-opacity:1;" d="M 445.386719 321.617188 C 446.097656 321.972656 446.097656 321.972656 446.097656 321.972656 Z M 445.386719 321.617188 "/><path style=" stroke:none;fill-rule:nonzero;fill:#039bec;fill-opacity:1;" d="M 366.199219 321.617188 C 366.914062 321.972656 366.914062 321.972656 366.914062 321.972656 Z M 366.199219 321.617188 "/><path style=" stroke:none;fill-rule:nonzero;fill:#059bf3;fill-opacity:1;" d="M 422.914062 306.992188 C 423.628906 307.347656 423.628906 307.347656 423.628906 307.347656 Z M 422.914062 306.992188 "/></g></svg>