<?xml version="1.0" encoding="UTF-8"?>
<svg version="1.1" xmlns="http://www.w3.org/2000/svg" width="1024" height="1024">
<path d="M0 0 C4.56135302 4.31376392 7.15780782 8.31561564 10 14 C103.72 14 197.44 14 294 14 C294.33 12.35 294.66 10.7 295 9 C298.29715632 2.66945987 303.33527148 -0.77842383 310 -3 C324.69127517 -4.12583893 324.69127517 -4.12583893 331 1 C336.26697262 5.95346234 339.83518867 11.302877 340.09375 18.671875 C339.70617726 25.68694154 338.36618944 31.77735809 333.16796875 36.75390625 C326.96421738 41.67657703 321.00965767 43.90785882 313 43 C305.97681627 41.6470224 300.74251546 38.36278996 296 33 C296 32.34 296 31.68 296 31 C295.34 30.67 294.68 30.34 294 30 C294 29.67 294 29.34 294 29 C249.45 29 204.9 29 159 29 C158.67 39.89 158.34 50.78 158 62 C245.12 62 332.24 62 422 62 C423.32 59.36 424.64 56.72 426 54 C430.16669248 49.31247096 434.12363142 46.1649779 440 44 C440.66 43.67 441.32 43.34 442 43 C450.23084636 43.42977521 457.76429814 45.4381194 464 51 C468.07773639 56.70319352 470.56440748 63.14267502 469.7421875 70.21875 C468.28308018 78.1775172 464.62046533 83.28928428 458 88 C451.63695074 91.36313386 445.43542833 92.08164587 438.453125 90.37890625 C431.42675393 87.98355248 426.35041964 83.70083928 423 77 C335.88 77 248.76 77 159 77 C154.72848325 127.8554494 154.72848325 127.8554494 161 177 C162.96498322 178.38442 164.97048465 179.71203834 167 181 C173.04828873 187.06255357 175.86920658 192.38071381 176 201 C175.60880152 206.29566831 175.0716504 210.59154519 171.8125 214.875 C170.884375 215.57625 169.95625 216.2775 169 217 C168.43667969 217.43957031 167.87335938 217.87914062 167.29296875 218.33203125 C160.40856052 223.53658387 154.58995863 224.76851001 146 224 C139.15172955 222.02676953 133.35683593 217.7799527 129.5703125 211.70703125 C126.65289105 205.37924473 126.62411322 199.77359644 128 193 C128.33 192.34 128.66 191.68 129 191 C123.41499433 191.19898708 123.41499433 191.19898708 119 194 C119 193.34 119 192.68 119 192 C118.39414062 192.05800781 117.78828125 192.11601563 117.1640625 192.17578125 C110.0563222 192.55850573 104.81520709 191.18374624 99 187 C92.81054442 180.54689621 91.62855732 175.11734081 91.7265625 166.296875 C92.32530287 159.07777685 95.62259483 154.80832003 101.0234375 150.2265625 C103 149 103 149 109 147 C109 123.57 109 100.14 109 76 C106.36 76.33 103.72 76.66 101 77 C98.4394418 77.08594829 95.87704839 77.12623995 93.31504822 77.12698364 C92.58435625 77.12854363 91.85366428 77.13010362 91.10083014 77.13171089 C88.67388848 77.13567067 86.24701039 77.13255041 83.82006836 77.12939453 C82.06938134 77.13075117 80.31869462 77.13253257 78.56800842 77.13470459 C73.81807401 77.13925813 69.06816136 77.13749512 64.31822658 77.1343255 C59.3049697 77.13177879 54.29171459 77.13414699 49.27845764 77.13571167 C40.82748078 77.13753184 32.37651264 77.13513646 23.92553711 77.13037109 C14.26155346 77.12498338 4.59759109 77.12665119 -5.066392 77.1321975 C-13.42887901 77.13679909 -21.79135976 77.13734382 -30.15384763 77.13475883 C-35.11756862 77.13322703 -40.08127979 77.13291307 -45.04500008 77.13629532 C-70.71245685 77.15145702 -96.34453094 76.79747847 -122 76 C-122.33 76.66 -122.66 77.32 -123 78 C-127.79364545 84.5690697 -133.0348219 89.12155763 -141 91 C-148.87199877 92.00640265 -155.46167545 90.19158902 -161.75 85.375 C-166.5090584 80.99623166 -168.29966615 75.6145797 -169.9375 69.5 C-170.0679082 62.19714061 -167.18906849 56.35768006 -162.6796875 50.7265625 C-157.91675553 45.83071149 -152.07713493 43.90880376 -145.375 43.625 C-138.56665739 43.72541803 -132.89525663 46.08712517 -128.07421875 50.9375 C-125.15113009 54.62101029 -123.84769202 57.3670316 -123 62 C-121.73917917 61.99815641 -120.47835835 61.99631283 -119.17933083 61.99441338 C-89.27538389 61.95113301 -59.371445 61.91813669 -29.46747444 61.89786934 C-25.78983967 61.89536781 -22.11220498 61.89277918 -18.43457031 61.89013672 C-17.70239431 61.8896121 -16.97021832 61.88908748 -16.21585517 61.88854696 C-4.34788673 61.87983538 7.5200624 61.86406128 19.38801937 61.84569441 C31.55826137 61.82701628 43.72849324 61.81588771 55.89874899 61.81182301 C63.41337313 61.80907361 70.92794272 61.80037814 78.44255008 61.78416707 C84.19685224 61.77238296 89.95111916 61.77108336 95.70543098 61.77378464 C98.07182845 61.773232 100.43822789 61.76922202 102.80461311 61.76158905 C106.02260092 61.75171371 109.24035078 61.75400386 112.45834351 61.75949097 C113.40580016 61.75366528 114.3532568 61.7478396 115.32942426 61.74183738 C116.18683828 61.74581948 117.04425229 61.74980158 117.92764854 61.75390434 C118.67114095 61.7531449 119.41463336 61.75238546 120.18065584 61.75160301 C122 62 122 62 124 64 C123.67 64.66 123.34 65.32 123 66 C123.66 66 124.32 66 125 66 C124.67 66.66 124.34 67.32 124 68 C123.76970044 70.37123246 123.58880058 72.74741943 123.4375 75.125 C123.35371094 76.40632812 123.26992188 77.68765625 123.18359375 79.0078125 C123.12300781 79.99523437 123.06242187 80.98265625 123 82 C123.66 82 124.32 82 125 82 C124.67 82.66 124.34 83.32 124 84 C123.84504237 86.24974161 123.74989072 88.50371536 123.68359375 90.7578125 C123.6524221 91.75238968 123.6524221 91.75238968 123.62062073 92.76705933 C123.55520769 94.88626694 123.49627895 97.005599 123.4375 99.125 C123.39430691 100.56121081 123.35069236 101.99740902 123.30664062 103.43359375 C123.19953501 106.95559594 123.09824425 110.47773825 123 114 C123.66 114.33 124.32 114.66 125 115 C124.34 115 123.68 115 123 115 C123.33 125.56 123.66 136.12 124 147 C126.64 148.32 129.28 149.64 132 151 C138.10890262 156.97314922 140.137639 163.72133443 141 172 C140.34 172 139.68 172 139 172 C138.67 174.64 138.34 177.28 138 180 C139.485 179.01 139.485 179.01 141 178 C141.99 178 142.98 178 144 178 C143.83766876 177.12103058 143.67533752 176.24206116 143.50808716 175.3364563 C142.67689978 169.46172811 142.8610744 163.53705851 142.87060547 157.61669922 C142.8692488 156.2641902 142.86746738 154.91168154 142.86529541 153.55917358 C142.86075351 149.90233493 142.86249703 146.24552463 142.8656745 142.58868551 C142.86821384 138.75534078 142.86585627 134.9219984 142.86428833 131.08865356 C142.86247167 124.65463833 142.86486019 118.22063459 142.86962891 111.78662109 C142.87507519 104.35266191 142.87330419 96.91873013 142.8678025 89.48477161 C142.86326255 83.09394467 142.86262501 76.70312597 142.86524117 70.31229794 C142.86679848 66.49877099 142.86701255 62.68525692 142.86370468 58.8717308 C142.86081301 55.28810214 142.86282551 51.7045088 142.86859894 48.12088394 C142.87054843 46.1812571 142.86758398 44.24162727 142.86447144 42.30200195 C142.86870117 40.56513626 142.86870117 40.56513626 142.87301636 38.79318237 C142.87339338 37.78922361 142.87377041 36.78526485 142.87415886 35.7508831 C142.99690843 33.06758156 143.3983836 30.61391335 144 28 C143.01 28.33 142.02 28.66 141 29 C139.19851282 29.09061574 137.39380606 29.12195458 135.59004211 29.12025452 C133.90523239 29.12231651 133.90523239 29.12231651 132.18638611 29.12442017 C130.33709251 29.11902725 130.33709251 29.11902725 128.45043945 29.11352539 C126.50394501 29.11374443 126.50394501 29.11374443 124.51812744 29.1139679 C120.95848745 29.11425514 117.39888107 29.10837019 113.8392489 29.10139394 C110.11965622 29.09514826 106.40006281 29.09455564 102.6804657 29.09336853 C95.63632227 29.0902588 88.59219434 29.08205023 81.54805773 29.07201904 C73.52879585 29.06084679 65.50953322 29.05534465 57.49026549 29.05032361 C40.99350125 29.03986733 24.4967526 29.02227481 8 29 C7.38576172 30.11455566 6.77152344 31.22911133 6.13867188 32.37744141 C4.36576082 35.59444711 2.66755997 37.41154673 -0.5 39.375 C-1.62921875 40.09816406 -1.62921875 40.09816406 -2.78125 40.8359375 C-8.72993849 43.95690435 -15.23710614 43.71001187 -21.5625 41.875 C-27.96136526 39.49197432 -32.34217927 35.87570466 -35.4375 29.75 C-38.0683059 23.00289005 -38.10189943 15.65302152 -35.2421875 8.953125 C-32.07628482 3.9752906 -27.34696225 0.2517132 -22.1875 -2.5 C-14.53582945 -3.70026205 -6.75898792 -4.2409336 0 0 Z M129 188 C128.34 188.66 127.68 189.32 127 190 C127.99 190 128.98 190 130 190 C129.67 189.34 129.34 188.68 129 188 Z " fill="#00A1F5" transform="translate(362,557)"/>
<path d="M0 0 C3.11755856 2.91642575 3.83751542 5.77540087 4 10 C1.98799363 18.18215922 -2.76632214 24.33477192 -9.91015625 28.83203125 C-17.47968275 32.76512277 -24.32646645 34.73295567 -32.75341797 35.58764648 C-41.93213286 36.56044239 -49.74201761 38.27858006 -56.375 45.125 C-64.20244008 55.84772551 -63.5399337 67.69030204 -63.49072266 80.31811523 C-63.47695923 93.66451131 -64.1774938 105.10255857 -73.98046875 115.16015625 C-81.39019423 121.91060248 -89.05232255 124.07305516 -99 124 C-106.5295255 122.96911194 -113.31277432 120.11225341 -119 115 C-120.12109375 113.015625 -120.12109375 113.015625 -121 111 C-122.49040551 108.53123961 -122.49040551 108.53123961 -124 106.07421875 C-126.75541952 100.35887591 -127.31661152 94.81309492 -127.4921875 88.57421875 C-127.55807315 86.95635892 -127.6244963 85.33852091 -127.69140625 83.72070312 C-127.78588959 81.20661411 -127.8748399 78.6926107 -127.95361328 76.17797852 C-128.35877176 63.81336663 -129.01167467 53.17224896 -137.9765625 43.73925781 C-145.0587286 37.65173956 -152.83368084 36.26202318 -161.875 35.5625 C-174.50341835 34.26404449 -183.59564817 31.61728405 -192.4453125 21.94140625 C-196.12703834 17.34387424 -197.89634985 12.90805875 -198 7 C-196.49316367 3.01937354 -194.5835894 0.3890596 -191 -2 C-187.00247392 -2.65364024 -182.80687093 -2.9588258 -179.15234375 -1.01953125 C-176.91818255 0.83750811 -175.01684338 2.98152662 -173.0625 5.125 C-167.93240052 9.7887268 -161.99433469 10.44907754 -155.375 10.9375 C-142.19733953 12.20611075 -132.24474155 15.31040701 -122 24 C-121.26910156 24.59554688 -120.53820312 25.19109375 -119.78515625 25.8046875 C-110.74411549 33.89129977 -105.64348319 45.90771135 -104.87799072 57.91357422 C-104.60783169 64.01170452 -104.54876713 70.11557626 -104.46826172 76.21850586 C-104.43445293 78.54821707 -104.38940775 80.87752693 -104.34375 83.20703125 C-104.33583435 84.26963921 -104.33583435 84.26963921 -104.32775879 85.35371399 C-104.24831098 89.31044746 -103.88537153 92.48861807 -102 96 C-99.4496561 97.47651489 -97.87814711 98.10644207 -94.9375 97.75 C-90.70149356 96.29295443 -90.70149356 96.29295443 -88 93 C-87.88014014 90.71820962 -87.8206538 88.43315536 -87.7890625 86.1484375 C-87.76091825 84.72394834 -87.73225366 83.29946938 -87.703125 81.875 C-87.66247219 79.64877468 -87.62557757 77.42272436 -87.59863281 75.19628906 C-87.35786686 56.85656544 -85.53624501 38.96603088 -72.2578125 25.03125 C-61.1226059 15.01341707 -48.84964413 11.75283725 -34.34814453 10.12597656 C-29.51464822 9.54770073 -26.02631312 8.95105991 -22 6 C-21.278125 5.690625 -20.55625 5.38125 -19.8125 5.0625 C-17.52354893 3.7207011 -17.10779933 2.36330523 -16 0 C-10.16174047 -3.89217302 -6.00337525 -3.15144645 0 0 Z " fill="#009CF6" transform="translate(608,400)"/>
<path d="M0 0 C5.37806926 3.85073462 8.09409456 8.20077878 9.26953125 14.625 C10.53035208 14.62315641 11.7911729 14.62131283 13.09020042 14.61941338 C42.99414736 14.57613301 72.89808625 14.54313669 102.80205681 14.52286934 C106.47969158 14.52036781 110.15732627 14.51777918 113.83496094 14.51513672 C114.56713694 14.5146121 115.29931293 14.51408748 116.05367608 14.51354696 C127.92164452 14.50483538 139.78959365 14.48906128 151.65755062 14.47069441 C163.82779262 14.45201628 175.99802449 14.44088771 188.16828024 14.43682301 C195.68290438 14.43407361 203.19747397 14.42537814 210.71208133 14.40916707 C216.46638349 14.39738296 222.22065041 14.39608336 227.97496223 14.39878464 C230.3413597 14.398232 232.70775914 14.39422202 235.07414436 14.38658905 C238.29213217 14.37671371 241.50988203 14.37900386 244.72787476 14.38449097 C245.67533141 14.37866528 246.62278805 14.3728396 247.59895551 14.36683738 C248.45636953 14.37081948 249.31378354 14.37480158 250.19717979 14.37890434 C250.9406722 14.3781449 251.68416461 14.37738546 252.45018709 14.37660301 C254.26953125 14.625 254.26953125 14.625 256.26953125 16.625 C255.93953125 17.285 255.60953125 17.945 255.26953125 18.625 C255.92953125 18.625 256.58953125 18.625 257.26953125 18.625 C256.93953125 19.285 256.60953125 19.945 256.26953125 20.625 C256.03923169 22.99623246 255.85833183 25.37241943 255.70703125 27.75 C255.62324219 29.03132812 255.53945313 30.31265625 255.453125 31.6328125 C255.39253906 32.62023437 255.33195312 33.60765625 255.26953125 34.625 C255.92953125 34.625 256.58953125 34.625 257.26953125 34.625 C256.93953125 35.285 256.60953125 35.945 256.26953125 36.625 C256.11457362 38.87474161 256.01942197 41.12871536 255.953125 43.3828125 C255.92195335 44.37738968 255.92195335 44.37738968 255.89015198 45.39205933 C255.82473894 47.51126694 255.7658102 49.630599 255.70703125 51.75 C255.66383816 53.18621081 255.62022361 54.62240902 255.57617188 56.05859375 C255.46906626 59.58059594 255.3677755 63.10273825 255.26953125 66.625 C255.92953125 66.955 256.58953125 67.285 257.26953125 67.625 C256.60953125 67.625 255.94953125 67.625 255.26953125 67.625 C255.59953125 78.185 255.92953125 88.745 256.26953125 99.625 C258.24953125 100.615 260.22953125 101.605 262.26953125 102.625 C264.09765625 104.4921875 264.09765625 104.4921875 265.51953125 106.5 C265.9990625 107.15742187 266.47859375 107.81484375 266.97265625 108.4921875 C270.57750998 114.42065177 271.02534439 119.8131145 270.26953125 126.625 C268.50211391 132.80566902 264.65600437 137.22134277 259.26953125 140.625 C253.96153186 143.15489179 248.14360353 144.77805863 242.26953125 143.625 C234.5865455 140.86760941 229.51559449 137.33103726 225.95703125 129.875 C224.49038842 122.94177937 224.34906978 116.71798914 227.9375 110.44140625 C231.831012 105.1320717 236.40163579 102.55894773 242.26953125 99.625 C242.59953125 75.865 242.92953125 52.105 243.26953125 27.625 C165.38953125 27.625 87.50953125 27.625 7.26953125 27.625 C6.60953125 29.605 5.94953125 31.585 5.26953125 33.625 C1.50688556 38.29271451 -3.82357945 41.63744195 -9.73046875 42.625 C-16.77160521 43.01874776 -23.70900625 43.23072959 -29.41796875 38.625 C-34.56165323 33.16822168 -37.59632258 26.13718543 -37.73046875 18.625 C-36.3746257 11.44163925 -32.84770731 4.70847304 -26.92578125 0.2734375 C-18.17086349 -4.94945335 -8.85926536 -4.91096285 0 0 Z " fill="#00A9FC" transform="translate(229.73046875,604.375)"/>
<path d="M0 0 C2.52482171 2.52482171 3.54929415 3.74647075 4.25 7.25 C3.92089438 11.84102336 3.29123515 15.23690634 -0.0625 18.5 C-0.949375 19.0775 -1.83625 19.655 -2.75 20.25 C-7.29173786 24.36925062 -9.4779614 27.3462318 -10.05639648 33.52050781 C-10.1141246 36.80643588 -10.16678249 40.09103377 -10.17553711 43.37744141 C-10.18739118 45.48069285 -10.23657725 47.58096418 -10.28710938 49.68359375 C-10.38187812 57.50738302 -9.99424109 64.07407312 -4.75 70.25 C1.01780904 75.02567862 6.82060326 74.35655579 14.0234375 74.140625 C18.4772035 74.29160012 20.13427034 75.13427034 23.25 78.25 C25.59833356 81.23878817 25.67117149 84.47206082 25.56640625 88.22265625 C24.86940265 92.6886423 22.32731048 95.44892298 18.8125 98.0625 C11.34436006 101.52334534 2.78765557 100.52985157 -4.94921875 98.34765625 C-16.32861009 94.02028208 -24.54550793 86.29269173 -29.75 75.25 C-32.38032321 67.70245078 -33.29162219 60.45577444 -33.5 52.5 C-33.53311279 51.45231445 -33.56622559 50.40462891 -33.6003418 49.32519531 C-33.93473796 36.59656724 -33.54682052 25.23300069 -28.75 13.25 C-28.37746094 12.31414062 -28.00492187 11.37828125 -27.62109375 10.4140625 C-27.33363281 9.69992187 -27.04617188 8.98578125 -26.75 8.25 C-26.09 8.25 -25.43 8.25 -24.75 8.25 C-24.523125 7.6725 -24.29625 7.095 -24.0625 6.5 C-21.06801021 1.36658893 -16.43185078 -0.62100441 -10.95703125 -2.2734375 C-6.49820615 -3.23622805 -3.78372183 -2.40782298 0 0 Z " fill="#009BF5" transform="translate(359.75,335.75)"/>
<path d="M0 0 C6.47703469 5.29093498 11.20454447 14.55049771 12.49060059 22.79573059 C12.64519106 24.8709308 12.72062435 26.93113436 12.7578125 29.01171875 C12.78050705 29.7709967 12.8032016 30.53027466 12.82658386 31.31256104 C12.87087382 32.90904744 12.90832713 34.50573703 12.93920898 36.10253906 C12.98789158 38.50808897 13.06358546 40.91168237 13.14257812 43.31640625 C13.57664316 59.00536478 12.37830422 73.9624856 1.12109375 85.96875 C-6.9928949 93.83646743 -15.90224504 98.28999201 -27.28515625 98.84765625 C-33.43987121 98.67721799 -38.41203862 97.31929388 -42.82421875 92.77734375 C-44.86391674 89.08646168 -45.33606512 85.95742248 -44.82421875 81.77734375 C-42.70627418 77.45673683 -40.51594668 74.94256717 -35.94140625 73.21484375 C-33.35371261 72.68011739 -31.02437677 72.78543924 -28.38671875 72.90234375 C-23.48058687 73.02364921 -20.43406462 72.30026701 -16.48046875 69.359375 C-10.37004004 63.52276267 -10.08604344 56.28197864 -9.85546875 48.1640625 C-9.79856969 43.65582821 -9.83663635 39.15763311 -10.01171875 34.65234375 C-10.02936279 33.95439697 -10.04700684 33.2564502 -10.06518555 32.53735352 C-10.34682597 27.57411659 -11.71303733 24.61522448 -14.82421875 20.77734375 C-16.7990708 19.40703825 -18.79808592 18.07062003 -20.82421875 16.77734375 C-24.268953 13.01575895 -24.33564276 10.1214076 -24.17578125 5.1875 C-23.66868734 1.71108955 -22.45955007 0.05654921 -19.82421875 -2.22265625 C-13.35643353 -6.17519166 -6.03485906 -3.59590047 0 0 Z " fill="#009AF3" transform="translate(683.82421875,337.22265625)"/>
<path d="M0 0 C6.32562127 6.75344106 10.69643799 14.23232184 11.1875 23.5625 C11.0946875 24.7690625 11.0946875 24.7690625 11 26 C11.99 26.495 11.99 26.495 13 27 C11.74051958 42.21319766 10.07633058 55.12507807 -2.03125 65.7890625 C-10.23257261 71.82119471 -20.90304489 74.31621022 -31 73 C-35.69296488 71.34877162 -38.43318345 69.27802758 -41 65 C-42.14080625 61.50398084 -42.55089178 58.50030102 -41.265625 55 C-39.54110228 51.81626575 -38.02602499 50.01735 -35 48 C-31.40083407 47.14305573 -28.10708352 47.00288408 -24.4375 47.125 C-20.48686657 47.16497268 -18.07238719 46.68833879 -15 44 C-14.12177688 41.91466367 -14.12177688 41.91466367 -14 40 C-13.34 40 -12.68 40 -12 40 C-11.34841286 29.31897799 -11.34841286 29.31897799 -16 20 C-19.02824524 18.05327092 -21.84006411 17.63803104 -25.375 17.1875 C-30.71393944 16.29529755 -33.29078186 14.90444014 -37 11 C-38.87079631 7.25840739 -38.53120124 3.07462598 -38 -1 C-36.59363178 -4.37528372 -34.46194139 -6.33168394 -31.0859375 -7.875 C-19.97069618 -11.10852475 -8.77266212 -6.91666872 0 0 Z " fill="#009AF4" transform="translate(598,255)"/>
<path d="M0 0 C2.34815877 2.98856571 2.41516536 6.21895138 2.32421875 9.96875 C1.79002404 13.31551204 0.13123774 15.44251471 -2 18 C-5.27228127 20.18152085 -7.03414008 20.40566799 -10.875 20.875 C-17.23322687 21.87050866 -17.23322687 21.87050866 -22 26 C-24.61448764 32.34946998 -25.13703165 38.93001454 -22.75 45.375 C-20.36357621 48.95463569 -18.61415234 50.56693474 -14.4375 51.6875 C-10.46165386 52.04894056 -6.57317621 51.97945295 -2.5859375 51.83984375 C0.21362321 52.01323044 1.68447054 52.43801569 4 54 C6.40313395 56.99337738 8.01609447 60.24570287 7.98046875 64.12890625 C6.99236229 68.99556142 4.9789881 71.92532738 1 75 C-5.29747019 78.22553351 -13.27841911 77.93642891 -20.01171875 76.2421875 C-30.36455848 72.65470961 -38.46234466 66.54768162 -44 57 C-49.48834985 44.20896976 -48.94866599 31.14726289 -45 18 C-41.0920636 8.89400717 -34.29771119 1.78282647 -25.3125 -2.4375 C-16.5025417 -5.87627474 -7.52367326 -6.4226479 0 0 Z " fill="#009AF4" transform="translate(461,251)"/>
<path d="M0 0 C3.17853839 1.7799815 4.59433964 2.70926249 5.6875 6.1875 C5.8421875 7.0846875 5.8421875 7.0846875 6 8 C6.66 8.33 7.32 8.66 8 9 C8 10.65 8 12.3 8 14 C7.34 14 6.68 14 6 14 C5.9175 14.61875 5.835 15.2375 5.75 15.875 C5 18 5 18 2.9375 19.25 C2.298125 19.4975 1.65875 19.745 1 20 C1 20.66 1 21.32 1 22 C0.34 22 -0.32 22 -1 22 C-1 22.66 -1 23.32 -1 24 C-1.64324219 24.56847656 -2.28648437 25.13695312 -2.94921875 25.72265625 C-7.43315663 30.70196251 -6.07813223 39.23231591 -5.8984375 45.59765625 C-5.56124359 51.03646917 -5.12196343 55.92478849 -3 61 C1.72327566 63.46431774 4.90242897 62.95669415 10.0625 61.9375 C14.04162294 61.16157103 15.63878841 60.87959614 19.5625 62.1875 C20.366875 62.785625 21.17125 63.38375 22 64 C22.598125 64.391875 23.19625 64.78375 23.8125 65.1875 C25.80010533 68.22121339 26.10096061 71.45964779 26 75 C24.27627936 80.17116191 21.44297796 82.92409218 17 86 C9.25691027 89.12701701 -0.21584213 89.17132358 -8 86 C-17.72614128 80.79609877 -22.74473016 74.38534187 -27.01953125 64.35546875 C-31.64809482 48.51508585 -31.10969961 26.97912083 -23.8125 12.1875 C-18.06329138 2.5645868 -10.96840069 -1.15540152 0 0 Z " fill="#009AF3" transform="translate(402,272)"/>
<path d="M0 0 C6.3238893 3.90880575 9.5429912 10.50265655 12.39453125 17.15625 C15.93813745 32.29711285 17.24236694 55.3071282 9.39453125 69.15625 C3.48700594 77.8768826 -2.94043716 82.76790614 -12.91796875 86.09375 C-21.14280868 86.86800191 -28.55872476 86.01545239 -35.91796875 82.09375 C-38.62483206 79.74404226 -39.77426732 78.52485429 -40.91796875 75.09375 C-41.18393153 70.97132688 -41.31242961 68.1379111 -39.85546875 64.28125 C-37.17855304 61.25892581 -34.76052806 60.26605623 -30.91796875 59.09375 C-27.98046875 59.34375 -27.98046875 59.34375 -24.91796875 60.09375 C-20.9567605 60.90791138 -17.84212284 61.4673442 -13.98046875 59.90625 C-11.75567531 57.95112849 -11.21819134 56.99590168 -10.91796875 54.09375 C-10.25796875 54.09375 -9.59796875 54.09375 -8.91796875 54.09375 C-8.83031806 50.07305575 -8.77735857 46.0526099 -8.73046875 42.03125 C-8.70533203 40.89751953 -8.68019531 39.76378906 -8.65429688 38.59570312 C-8.59960253 32.34231611 -8.64135816 27.51505115 -11.91796875 22.09375 C-13.64156364 20.48271709 -13.64156364 20.48271709 -15.60546875 19.65625 C-16.69859375 19.140625 -17.79171875 18.625 -18.91796875 18.09375 C-19.24796875 18.75375 -19.57796875 19.41375 -19.91796875 20.09375 C-23.10949567 8.52446492 -23.10949567 8.52446492 -20.35546875 2.90625 C-14.30470819 -4.07539681 -7.75360477 -3.66361773 0 0 Z " fill="#009BF5" transform="translate(635.91796875,273.90625)"/>
<path d="M0 0 C6.21608715 5.18007263 11.5034128 10.69816501 14 18.5 C14 19.49 14 20.48 14 21.5 C14.66 21.83 15.32 22.16 16 22.5 C16.0878954 25.85399849 16.14068879 29.2076964 16.1875 32.5625 C16.21263672 33.50544922 16.23777344 34.44839844 16.26367188 35.41992188 C16.32456615 41.24547423 15.9225045 45.40572609 13 50.5 C9.72671853 53.53025361 6.46389844 54.5 2 54.5 C1.505 55.49 1.505 55.49 1 56.5 C-0.03125 56.335 -1.0625 56.17 -2.125 56 C-10.22549269 55.00190358 -19.42998769 54.03170904 -27 57.5 C-29.37313077 59.8258151 -29.37313077 59.8258151 -31.4375 62.5625 C-35.55959908 67.34054449 -35.55959908 67.34054449 -39.625 68.8125 C-44.49487023 68.36158609 -48.25870272 67.12521079 -51.875 63.75 C-53.85702506 59.78594988 -54.43086867 56.4858834 -53.48046875 52.10546875 C-50.89399613 44.41691315 -45.97601688 39.33661615 -38.96484375 35.33984375 C-36.1859042 34.0713257 -34.06818273 33.5 -31 33.5 C-30.67 32.84 -30.34 32.18 -30 31.5 C-22.74 31.17 -15.48 30.84 -8 30.5 C-11.00324018 23.62620349 -11.00324018 23.62620349 -15.625 19.375 C-18.94814837 16.70358978 -20.48201419 14.90287938 -21 10.5 C-20.42964226 6.4652471 -19.43318029 2.9482664 -16.515625 0 C-10.92514977 -3.69279098 -5.76765301 -2.88382651 0 0 Z " fill="#009CF6" transform="translate(575,339.5)"/>
<path d="M0 0 C2.99512603 3.24471987 4.03494926 6.037231 4.25 10.4375 C2.79527117 16.36032451 -0.05165826 18.92213694 -4.91015625 22.46875 C-7.43086196 25.16606567 -7.93521581 27.89128902 -8.75 31.4375 C-7.51765625 31.39109375 -6.2853125 31.3446875 -5.015625 31.296875 C7.32244543 30.96979067 18.54066469 31.42462188 28.49609375 39.67578125 C32.72935032 43.92789419 36.23353611 48.62182856 37.3125 54.625 C37.2427401 58.88035409 36.67672296 60.9591971 34.25 64.4375 C30.51963613 67.44251534 27.0076585 68.27056461 22.25 68.4375 C17.06868653 66.71039551 14.86642589 64.16719296 12.25 59.4375 C12.25 58.7775 12.25 58.1175 12.25 57.4375 C4.2774617 54.94124408 -3.27225326 55.36810279 -11.55078125 55.69140625 C-18.49405993 55.83413386 -22.86371203 55.22400103 -28.75 51.4375 C-34.10504661 44.52776244 -33.2651407 35.86119571 -32.4765625 27.55859375 C-31.02763132 17.94917278 -27.01012698 9.06324695 -19.75 2.4375 C-13.1758091 -2.25018395 -7.38021335 -4.19330304 0 0 Z " fill="#009CF6" transform="translate(464.75,339.5625)"/>
<path d="M0 0 C7.12531333 7.64630398 10.97004865 15.49593748 11.23706055 26.01464844 C11.27666145 27.47206451 11.27666145 27.47206451 11.31706238 28.95892334 C11.34004898 29.99857239 11.36303558 31.03822144 11.38671875 32.109375 C11.41224319 33.19075745 11.43776764 34.27213989 11.46406555 35.3862915 C11.51600452 37.6725125 11.56543959 39.95879157 11.61254883 42.24511719 C11.68693691 45.72366863 11.77772734 49.20154737 11.86914062 52.6796875 C11.91768002 54.90622814 11.96523773 57.13279044 12.01171875 59.359375 C12.04077805 60.39092712 12.06983734 61.42247925 12.09977722 62.48529053 C12.2015122 68.39468716 12.21463389 74.4251803 10 80 C5.86485875 83.17348049 2.11563157 83.63945395 -3 83 C-6.19192719 81.37392388 -8.33613777 80.14697898 -10.14868164 77.01538086 C-11.42193487 72.50550113 -11.29844318 68.10600978 -11.30859375 63.44140625 C-11.33374928 61.34309613 -11.35914737 59.2447889 -11.38476562 57.14648438 C-11.413516 53.8505119 -11.43754501 50.5545896 -11.45629883 47.25854492 C-11.47797858 44.06923885 -11.51741413 40.88051148 -11.55859375 37.69140625 C-11.55870956 36.70999161 -11.55882538 35.72857697 -11.5589447 34.71742249 C-11.63563311 29.4028784 -11.99832573 25.5847364 -15 21 C-16.74450338 19.49439252 -16.74450338 19.49439252 -18.6875 18.625 C-19.780625 18.08875 -20.87375 17.5525 -22 17 C-22 16.34 -22 15.68 -22 15 C-22.66 15 -23.32 15 -24 15 C-26.53288947 11.2006658 -26.43535915 7.39894138 -26 3 C-24.87125677 -0.48029164 -23.12052827 -2.12768304 -20 -4 C-13.65210275 -6.35779041 -5.37552138 -3.62263398 0 0 Z " fill="#009AF3" transform="translate(493,274)"/>
<path d="M0 0 C2.9375 2.5 2.9375 2.5 5 5 C5.495 5.495 5.495 5.495 6 6 C6.44091366 10.1038887 6.41558183 13.85714998 5 17.75 C2.58705338 20.46456495 -0.00068642 22.03576267 -3.16015625 23.7890625 C-5.78511367 25.51674148 -6.84129545 27.38333619 -7.61613464 30.39405823 C-7.9806939 32.86893692 -8.13080924 35.1956697 -8.1418457 37.69506836 C-8.15239738 39.04688454 -8.15239738 39.04688454 -8.16316223 40.42601013 C-8.16732651 41.38757523 -8.17149078 42.34914032 -8.17578125 43.33984375 C-8.19897243 45.39258846 -8.22308947 47.44532288 -8.24804688 49.49804688 C-8.28318507 52.72166927 -8.31253079 55.94491032 -8.32592773 59.16870117 C-8.34141698 62.28871213 -8.38162131 65.40762397 -8.42578125 68.52734375 C-8.42387283 69.48688461 -8.42196442 70.44642548 -8.41999817 71.43504333 C-8.52330654 77.10047419 -9.11117094 80.56805549 -13 85 C-16.3125 87.0625 -16.3125 87.0625 -20 88 C-23.93515179 86.81945446 -27.69040446 85.52517215 -30 82 C-32.00531799 75.56594707 -32.23839522 69.77692719 -32.08203125 63.0703125 C-32.06412033 62.03993866 -32.04620941 61.00956482 -32.02775574 59.94796753 C-31.98674048 57.77786508 -31.94019889 55.60786078 -31.88842773 53.43798828 C-31.8128969 50.14231825 -31.76377281 46.84696724 -31.71679688 43.55078125 C-31.67347606 41.43225832 -31.62860487 39.31376641 -31.58203125 37.1953125 C-31.56936722 36.22208038 -31.55670319 35.24884827 -31.5436554 34.24612427 C-31.24851236 23.73975697 -28.67904648 14.12337286 -21.40234375 6.27734375 C-15.02693598 0.36665818 -8.54614451 -2.24161167 0 0 Z " fill="#009BF5" transform="translate(549,270)"/>
<path d="M0 0 C5.5255949 4.07500695 9.31529571 9.02723132 11.26171875 15.66796875 C11.53548946 20.47969629 10.98465441 23.66861651 8.13671875 27.60546875 C4.74847081 30.03616836 2.40365507 31.09666719 -1.73828125 31.66796875 C-7.07283168 30.1308949 -9.56067371 28.11661931 -12.73828125 23.66796875 C-16.4937628 19.63769587 -18.4519949 17.84051866 -24.05078125 17.41796875 C-28.25303524 17.70286733 -30.25841535 18.29869835 -33.73828125 20.66796875 C-34.70924527 21.97713372 -35.64435936 23.31331625 -36.55078125 24.66796875 C-39.32968827 28.60354126 -41.83795059 30.2493645 -46.49609375 31.45703125 C-50.33772711 31.81843927 -52.55164681 30.72990868 -55.73828125 28.66796875 C-58.70023154 25.40222869 -59.96868745 22.95644019 -60.05078125 18.60546875 C-59.94765625 17.30609375 -59.84453125 16.00671875 -59.73828125 14.66796875 C-59.64546875 13.30671875 -59.64546875 13.30671875 -59.55078125 11.91796875 C-58.40039336 8.73227922 -56.45149694 7.64121652 -53.73828125 5.66796875 C-52.97515625 4.86359375 -52.21203125 4.05921875 -51.42578125 3.23046875 C-36.8116062 -10.70397722 -16.56655835 -10.53289817 0 0 Z " fill="#0099F3" transform="translate(535.73828125,230.33203125)"/>
<path d="M0 0 C2.70552388 2.19823815 4.44778333 3.89556667 6 7 C6.60307318 13.03073176 5.43805816 17.13096628 2 22 C-5.48787101 30.38890113 -15.04709124 35.4625799 -26.31420898 36.13891602 C-29.00200657 36.24226355 -31.68541395 36.28408888 -34.375 36.3125 C-35.2825 36.34150391 -36.19 36.37050781 -37.125 36.40039062 C-43.19787963 36.45726918 -48.00917692 35.64330834 -53 32 C-55.9575457 28.7223736 -57.01461565 25.84770766 -56.9375 21.375 C-55.65832788 16.76998036 -54.46150291 14.11535749 -50.625 11.1875 C-45.13197531 9.38806088 -39.73017815 9.7704528 -34 10 C-34 10.33 -34 10.66 -34 11 C-28.47628527 11.34523217 -23.85070736 10.84522143 -19 8 C-17.28922371 6.30102217 -15.84414104 4.56625172 -14.421875 2.62109375 C-10.42208869 -1.93910218 -5.45677079 -1.53684454 0 0 Z " fill="#009CF6" transform="translate(625,438)"/>
<path d="M0 0 C3.0233136 1.92392683 4.83152939 3.77888232 7 6.625 C9.35084674 9.41663051 10.45949093 10.15335653 14 11 C20.1764647 11.5398802 20.1764647 11.5398802 26 10 C32.20628094 9.57198062 36.29352198 10.55436656 42 13 C42 13.66 42 14.32 42 15 C42.66 15 43.32 15 44 15 C46.42555587 23.82972136 46.42555587 23.82972136 44.75 28.4375 C44.1725 29.283125 43.595 30.12875 43 31 C42.34 31.99 41.68 32.98 41 34 C35.10472515 36.32456281 28.44373084 36.38712918 22.1875 36.375 C20.87700684 36.37258301 20.87700684 36.37258301 19.54003906 36.37011719 C12.44240458 36.23610039 6.4903354 34.94829116 0 32 C-0.75539063 31.71125 -1.51078125 31.4225 -2.2890625 31.125 C-9.01113164 28.30525564 -13.21179037 22.63619124 -16 16 C-16.64010706 11.91679077 -16.93323987 7.79110268 -14.984375 4.05078125 C-10.6840172 -1.29876023 -6.37262347 -1.61189888 0 0 Z " fill="#009CF5" transform="translate(408,438)"/>
<path d="M0 0 C1.4540625 0.495 1.4540625 0.495 2.9375 1 C9.04497771 2.99427844 14.15064069 2.39973715 20 0 C23.94829298 -0.49455004 27.1018727 -0.35925092 30.8125 1.125 C33.64207349 3.5503487 34.77932625 5.47360918 36 9 C35.83270132 13.76801252 35.02097164 17.27413498 32 21 C22.48354702 28.24077944 9.39661701 27.30755488 -2 27 C-2 26.34 -2 25.68 -2 25 C-2.886875 24.9175 -3.77375 24.835 -4.6875 24.75 C-8.57685141 23.86939213 -10.22552402 22.84946182 -13 20 C-15.1433638 16.21339062 -16 13.73444603 -16 9.375 C-14.80638034 5.34653364 -13.20415439 3.65710364 -10 1 C-6.82393721 -0.58803139 -3.46616738 -0.28068775 0 0 Z " fill="#009DF7" transform="translate(624,370)"/>
<path d="M0 0 C3.6502722 3.18228859 4.73496996 6.31448894 5.09765625 11.01171875 C4.87517863 15.54136305 2.79156032 18.26932893 -0.4375 21.25 C-6.05617723 25.08714543 -10.74486036 25.36784799 -17.41992188 25.56640625 C-19.2838865 25.64528608 -21.14352231 25.81540109 -23 26 C-23.33 26.66 -23.66 27.32 -24 28 C-24.33 27.01 -24.66 26.02 -25 25 C-26.98 25.33 -28.96 25.66 -31 26 C-31 25.34 -31 24.68 -31 24 C-31.86625 23.938125 -32.7325 23.87625 -33.625 23.8125 C-38.42199757 22.65766725 -41.40973543 20.09625784 -44.375 16.1875 C-45.36186931 12.73345741 -45.68115809 9.51369667 -45 6 C-43.2524257 2.97910019 -41.16782234 0.58391117 -38 -1 C-32.63181712 -1.26840914 -29.10448744 -0.70149581 -24 1 C-19.31809265 1.37757317 -16.2826023 1.26438337 -12 -0.625 C-7.60305719 -2.44263384 -4.26582549 -2.0619733 0 0 Z " fill="#009AF3" transform="translate(408,371)"/>
<path d="M0 0 C77.88 0 155.76 0 236 0 C236 23.76 236 47.52 236 72 C234.35 72.99 232.7 73.98 231 75 C225.18217118 78.67270758 220.93223217 82.20095806 219 89 C217.93957209 95.83755079 218.90134028 102.31826006 223 108 C228.4096996 112.64804514 233.49876052 115.34405944 240.75390625 115.2109375 C248.11695101 114.51945156 254.1329489 111.57930248 259 106 C262.47356919 100.28541843 262.86212632 94.52217299 262 88 C260.47511594 83.51504689 258.02912717 79.6349526 255 76 C259.86817455 78.08192146 261.85533913 81.26355816 264 86 C264.9330212 89.64117502 265.54076765 93.27130751 266 97 C265.34 97 264.68 97 264 97 C263.87625 97.86625 263.7525 98.7325 263.625 99.625 C262.09090909 107.90909091 262.09090909 107.90909091 259.375 110.625 C255.06356288 113.12109517 250.73288006 115.42237331 246 117 C245.34 117.66 244.68 118.32 244 119 C244 118.34 244 117.68 244 117 C243.39414062 117.05800781 242.78828125 117.11601563 242.1640625 117.17578125 C235.0563222 117.55850573 229.81520709 116.18374624 224 112 C217.81054442 105.54689621 216.62855732 100.11734081 216.7265625 91.296875 C217.32530287 84.07777685 220.62259483 79.80832003 226.0234375 75.2265625 C228 74 228 74 234 72 C234 48.57 234 25.14 234 1 C231.36 1.33 228.72 1.66 226 2 C223.4394418 2.08594829 220.87704839 2.12623995 218.31504822 2.12698364 C217.58435625 2.12854363 216.85366428 2.13010362 216.10083014 2.13171089 C213.67388848 2.13567067 211.24701039 2.13255041 208.82006836 2.12939453 C207.06938134 2.13075117 205.31869462 2.13253257 203.56800842 2.13470459 C198.81807401 2.13925813 194.06816136 2.13749512 189.31822658 2.1343255 C184.3049697 2.13177879 179.29171459 2.13414699 174.27845764 2.13571167 C165.82748078 2.13753184 157.37651264 2.13513646 148.92553711 2.13037109 C139.26155346 2.12498338 129.59759109 2.12665119 119.933608 2.1321975 C111.57112099 2.13679909 103.20864024 2.13734382 94.84615237 2.13475883 C89.88243138 2.13322703 84.91872021 2.13291307 79.95499992 2.13629532 C54.28754315 2.15145702 28.65546906 1.79747847 3 1 C2.67 1.66 2.34 2.32 2 3 C-2.78070297 9.5513337 -8.03937487 14.15070777 -16 16 C-20.93648817 16.5204864 -24.61706796 16.47773861 -29 14 C-28.24976563 14.04640625 -27.49953125 14.0928125 -26.7265625 14.140625 C-18.90046064 14.41660844 -11.47552057 13.9384581 -5.33984375 8.5390625 C-3.03223409 5.88833887 -1.57386231 3.14772462 0 0 Z " fill="#07649B" transform="translate(237,632)"/>
<path d="M0 0 C2.93325018 2.42311971 3.3791378 4.31702134 4 8 C5.26082083 7.99815641 6.52164165 7.99631283 7.82066917 7.99441338 C37.72461611 7.95113301 67.628555 7.91813669 97.53252556 7.89786934 C101.21016033 7.89536781 104.88779502 7.89277918 108.56542969 7.89013672 C109.29760569 7.8896121 110.02978168 7.88908748 110.78414483 7.88854696 C122.65211327 7.87983538 134.5200624 7.86406128 146.38801937 7.84569441 C158.55826137 7.82701628 170.72849324 7.81588771 182.89874899 7.81182301 C190.41337313 7.80907361 197.92794272 7.80037814 205.44255008 7.78416707 C211.19685224 7.77238296 216.95111916 7.77108336 222.70543098 7.77378464 C225.07182845 7.773232 227.43822789 7.76922202 229.80461311 7.76158905 C233.02260092 7.75171371 236.24035078 7.75400386 239.45834351 7.75949097 C240.40580016 7.75366528 241.3532568 7.7478396 242.32942426 7.74183738 C243.18683828 7.74581948 244.04425229 7.74980158 244.92764854 7.75390434 C245.67114095 7.7531449 246.41463336 7.75238546 247.18065584 7.75160301 C249 8 249 8 251 10 C250.67 10.66 250.34 11.32 250 12 C250.66 12 251.32 12 252 12 C251.67 12.66 251.34 13.32 251 14 C250.76970044 16.37123246 250.58880058 18.74741943 250.4375 21.125 C250.35371094 22.40632812 250.26992188 23.68765625 250.18359375 25.0078125 C250.12300781 25.99523437 250.06242188 26.98265625 250 28 C250.66 28 251.32 28 252 28 C251.67 28.66 251.34 29.32 251 30 C250.84504237 32.24974161 250.74989072 34.50371536 250.68359375 36.7578125 C250.6524221 37.75238968 250.6524221 37.75238968 250.62062073 38.76705933 C250.55520769 40.88626694 250.49627895 43.005599 250.4375 45.125 C250.39430691 46.56121081 250.35069236 47.99740902 250.30664062 49.43359375 C250.19953501 52.95559594 250.09824425 56.47773825 250 60 C250.66 60.33 251.32 60.66 252 61 C251.34 61 250.68 61 250 61 C250.33 71.56 250.66 82.12 251 93 C252.98 93.99 254.96 94.98 257 96 C256.34 96.33 255.68 96.66 255 97 C252.69 96.01 250.38 95.02 248 94 C248 66.28 248 38.56 248 10 C167.48 10 86.96 10 4 10 C0 2 0 2 0 0 Z " fill="#057DC7" transform="translate(235,611)"/>
<path d="M0 0 C46.2 0 92.4 0 140 0 C140 49.83 140 99.66 140 151 C136.535 152.98 136.535 152.98 133 155 C132.34 154.67 131.68 154.34 131 154 C134.625 151 134.625 151 138 151 C137.83766876 150.12103058 137.67533752 149.24206116 137.50808716 148.3364563 C136.67689978 142.46172811 136.8610744 136.53705851 136.87060547 130.61669922 C136.8692488 129.2641902 136.86746738 127.91168154 136.86529541 126.55917358 C136.86075351 122.90233493 136.86249703 119.24552463 136.8656745 115.58868551 C136.86821384 111.75534078 136.86585627 107.9219984 136.86428833 104.08865356 C136.86247167 97.65463833 136.86486019 91.22063459 136.86962891 84.78662109 C136.87507519 77.35266191 136.87330419 69.91873013 136.8678025 62.48477161 C136.86326255 56.09394467 136.86262501 49.70312597 136.86524117 43.31229794 C136.86679848 39.49877099 136.86701255 35.68525692 136.86370468 31.8717308 C136.86081301 28.28810214 136.86282551 24.7045088 136.86859894 21.12088394 C136.87054843 19.1812571 136.86758398 17.24162727 136.86447144 15.30200195 C136.86729126 14.14409149 136.87011108 12.98618103 136.87301636 11.79318237 C136.8735819 10.28724423 136.8735819 10.28724423 136.87415886 8.7508831 C136.99690843 6.06758156 137.3983836 3.61391335 138 1 C137.01 1.33 136.02 1.66 135 2 C133.20497387 2.08031742 131.40699954 2.10028745 129.61022949 2.08660889 C128.49135849 2.08075775 127.37248749 2.07490662 126.2197113 2.06887817 C124.99156204 2.05742767 123.76341278 2.04597717 122.49804688 2.03417969 C120.51356315 2.02207574 118.52907937 2.00997967 116.54459381 1.99818087 C114.4108637 1.98474255 112.27715939 1.96901173 110.14344788 1.95290375 C105.69815861 1.92031569 101.25286482 1.89959333 96.80749512 1.88165283 C96.05745413 1.87856637 95.30741315 1.8754799 94.53464365 1.87229991 C93.00101478 1.86599205 91.46738584 1.85970231 89.93375683 1.85343027 C79.58412567 1.81039984 69.23466428 1.75852537 58.88525391 1.67773438 C51.90406302 1.6233286 44.9230245 1.58658167 37.94163752 1.57022786 C34.24636051 1.56083826 30.55163199 1.54220474 26.85655212 1.50191498 C22.73815848 1.45713842 18.62058915 1.45103338 14.50195312 1.44824219 C13.27380386 1.42869476 12.0456546 1.40914734 10.7802887 1.38900757 C9.66141769 1.39443573 8.54254669 1.39986389 7.38977051 1.40545654 C6.41564461 1.39954876 5.44151871 1.39364098 4.43787384 1.38755417 C1.73936144 1.7878569 1.73936144 1.7878569 0.16313934 4.53715897 C-0.22069664 5.34989651 -0.60453262 6.16263405 -1 7 C-1.33 6.34 -1.66 5.68 -2 5 C-1.34 3.35 -0.68 1.7 0 0 Z " fill="#0574BA" transform="translate(368,584)"/>
<path d="M0 0 C-1.134375 0.4125 -2.26875 0.825 -3.4375 1.25 C-7.10132107 2.52981828 -7.10132107 2.52981828 -7.6875 5 C-7.790625 5.66 -7.89375 6.32 -8 7 C-9.92467295 8.67632805 -11.72136768 9.86068384 -14 11 C-15.485 13.97 -15.485 13.97 -17 17 C-111.38 17 -205.76 17 -303 17 C-303.99 14.03 -304.98 11.06 -306 8 C-303 11 -303 11 -301 15 C-207.28 15 -113.56 15 -17 15 C-16.67 13.35 -16.34 11.7 -16 10 C-12.96273073 4.16844301 -7.09634599 -2.55024934 0 0 Z " fill="#0370BA" transform="translate(673,556)"/>
<path d="M0 0 C0.33 0 0.66 0 1 0 C1.11576913 9.33571733 1.20465127 18.67118822 1.25906086 28.00746632 C1.28517285 32.34255611 1.3205991 36.67715542 1.37719727 41.01196289 C1.43146148 45.19411231 1.46140847 49.37578954 1.47438622 53.55826378 C1.48363631 55.15515263 1.50169978 56.75201517 1.52865028 58.34870338 C1.56486939 60.58305641 1.56994881 62.81545025 1.56762695 65.05004883 C1.57873001 66.32245926 1.58983307 67.59486969 1.60127258 68.90583801 C1 72 1 72 -1.40437317 73.85160828 C-2.26093002 74.23057755 -3.11748688 74.60954681 -4 75 C-9.81782882 78.67270758 -14.06776783 82.20095806 -16 89 C-17.06042791 95.83755079 -16.09865972 102.31826006 -12 108 C-6.5903004 112.64804514 -1.50123948 115.34405944 5.75390625 115.2109375 C13.11695101 114.51945156 19.1329489 111.57930248 24 106 C27.47356919 100.28541843 27.86212632 94.52217299 27 88 C25.47511594 83.51504689 23.02912717 79.6349526 20 76 C24.86817455 78.08192146 26.85533913 81.26355816 29 86 C29.9330212 89.64117502 30.54076765 93.27130751 31 97 C30.34 97 29.68 97 29 97 C28.87625 97.86625 28.7525 98.7325 28.625 99.625 C27.09090909 107.90909091 27.09090909 107.90909091 24.375 110.625 C20.06356288 113.12109517 15.73288006 115.42237331 11 117 C10.01 117.99 10.01 117.99 9 119 C9 118.34 9 117.68 9 117 C8.39414062 117.05800781 7.78828125 117.11601563 7.1640625 117.17578125 C0.0563222 117.55850573 -5.18479291 116.18374624 -11 112 C-17.18945558 105.54689621 -18.37144268 100.11734081 -18.2734375 91.296875 C-17.67469713 84.07777685 -14.37740517 79.80832003 -8.9765625 75.2265625 C-7 74 -7 74 -1 72 C-0.67 48.24 -0.34 24.48 0 0 Z " fill="#047AC4" transform="translate(472,632)"/>
<path d="M0 0 C0.66 0.33 1.32 0.66 2 1 C1.48050781 1.53367187 0.96101562 2.06734375 0.42578125 2.6171875 C-13.34617146 17.33102976 -14.44932317 33.47461515 -14.43579102 52.67480469 C-14.46176079 69.77330519 -14.46176079 69.77330519 -19 76 C-22.57634313 77.19211438 -25.24064683 77.25926574 -29 77 C-31.9375 75.5 -31.9375 75.5 -34 74 C-33.505 73.01 -33.505 73.01 -33 72 C-32.0925 72.515625 -31.185 73.03125 -30.25 73.5625 C-27.26483763 75.19587744 -27.26483763 75.19587744 -24.875 74.8125 C-23.946875 74.4103125 -23.946875 74.4103125 -23 74 C-22.278125 73.690625 -21.55625 73.38125 -20.8125 73.0625 C-18.83508829 72.12472314 -18.83508829 72.12472314 -18 70 C-17.88014014 67.71820962 -17.8206538 65.43315536 -17.7890625 63.1484375 C-17.76091825 61.72394834 -17.73225366 60.29946938 -17.703125 58.875 C-17.66247219 56.64877468 -17.62557757 54.42272436 -17.59863281 52.19628906 C-17.33601853 32.19232489 -14.7254227 14.80017104 0 0 Z " fill="#0369B9" transform="translate(538,423)"/>
<path d="M0 0 C0.78761719 0.08765625 1.57523438 0.1753125 2.38671875 0.265625 C3.02222656 0.42546875 3.65773438 0.5853125 4.3125 0.75 C4.8075 1.74 4.8075 1.74 5.3125 2.75 C4.57644531 2.69199219 3.84039063 2.63398438 3.08203125 2.57421875 C-3.15857659 2.14319197 -3.15857659 2.14319197 -8.5 4.9375 C-9.221875 5.865625 -9.94375 6.79375 -10.6875 7.75 C-15.84511675 12.64973592 -19.34821726 13.84670633 -26.37109375 13.92578125 C-28.00981445 13.96155273 -28.00981445 13.96155273 -29.68164062 13.99804688 C-31.97311896 14.04093898 -34.26484442 14.07223117 -36.55664062 14.09179688 C-43.10385201 14.1825748 -43.10385201 14.1825748 -48.97265625 16.79296875 C-49.82150391 17.76169922 -49.82150391 17.76169922 -50.6875 18.75 C-49.81890377 15.53619394 -49.01914598 14.00993874 -46.375 11.9375 C-40.84900591 10.15794258 -35.4442251 10.51938935 -29.6875 10.75 C-29.6875 11.08 -29.6875 11.41 -29.6875 11.75 C-24.16378527 12.09523217 -19.53820736 11.59522143 -14.6875 8.75 C-12.97672371 7.05102217 -11.53164104 5.31625172 -10.109375 3.37109375 C-7.13216716 -0.02325035 -4.3654885 -0.54839194 0 0 Z " fill="#0370BC" transform="translate(620.6875,437.25)"/>
<path d="M0 0 C6.10747771 1.99427844 11.21314069 1.39973715 17.0625 -1 C21.01079298 -1.49455004 24.1643727 -1.35925092 27.875 0.125 C30.70457349 2.5503487 31.84182625 4.47360918 33.0625 8 C32.75 11.875 32.75 11.875 32.0625 15 C31.7325 15 31.4025 15 31.0625 15 C31.00642578 14.09507812 31.00642578 14.09507812 30.94921875 13.171875 C30.66511582 9.71807472 30.36191145 6.70449752 29 3.5 C25.92845604 1.12203049 22.82670362 0.80221981 19.0625 1 C16.52885034 1.68025642 14.07738214 2.51616656 11.59375 3.359375 C6.5894789 4.62588806 1.87564569 3.6043819 -2.9375 2 C-7.68088885 1.45815221 -10.92565358 1.33920234 -15 4 C-15.639375 4.66 -16.27875 5.32 -16.9375 6 C-15.50271739 1.45652174 -15.50271739 1.45652174 -13.3125 -0.3125 C-8.70711116 -1.64563887 -4.47869019 -1.52466049 0 0 Z " fill="#026EBA" transform="translate(626.9375,371)"/>
<path d="M0 0 C0.66 0.33 1.32 0.66 2 1 C1.0409375 2.11375 1.0409375 2.11375 0.0625 3.25 C-4.27142619 9.02856826 -3.29093306 16.10815706 -3.35009766 23.05200195 C-3.36659679 24.46688353 -3.39380734 25.88168383 -3.43212891 27.29614258 C-3.66732365 36.04436451 -3.31411458 42.74677315 2 50 C2.33 50.66 2.66 51.32 3 52 C-0.65316671 50.75023244 -1.78065836 50.32901247 -4 47 C-6.08479481 39.3868565 -6.33737392 31.65773399 -6.3125 23.8125 C-6.32861328 22.78447266 -6.34472656 21.75644531 -6.36132812 20.69726562 C-6.36636024 12.83206207 -5.37820166 6.14651619 0 0 Z " fill="#047ECE" transform="translate(353,356)"/>
<path d="M0 0 C0.33 0 0.66 0 1 0 C1.00586624 0.61530075 1.01173248 1.2306015 1.01777649 1.86454773 C1.0817438 8.27254944 1.16617237 14.68005048 1.26245117 21.08764648 C1.29569167 23.47852983 1.32372629 25.86949148 1.34643555 28.26049805 C1.37999683 31.69874419 1.43231524 35.13627329 1.48828125 38.57421875 C1.49786613 40.17604256 1.49786613 40.17604256 1.50764465 41.81022644 C1.62059397 47.52018638 1.74919202 51.74919202 6 56 C11.42501744 56.58285311 15.54386325 56.44991232 20 53 C18.96506903 56.33477758 17.86466121 57.08226476 14.8125 58.9375 C11 60 11 60 7.25 58.875 C1.48501244 55.54904564 1.48501244 55.54904564 -0.07568359 50.56445312 C-1.30967815 45.40929088 -1.15236793 40.42502384 -0.9765625 35.15625 C-0.95153656 34.14655151 -0.92651062 33.13685303 -0.90072632 32.09655762 C-0.81908819 28.89733456 -0.72228303 25.69878168 -0.625 22.5 C-0.56670298 20.32033916 -0.50940101 18.14065146 -0.453125 15.9609375 C-0.31359386 10.6402602 -0.16163511 5.32004926 0 0 Z " fill="#054C93" transform="translate(518,298)"/>
<path d="M0 0 C3.718299 2.43506067 5.79595558 4.46343837 6.94140625 8.91796875 C6.30525391 8.32048828 6.30525391 8.32048828 5.65625 7.7109375 C0.74627783 3.27577583 -3.47029479 0.26976277 -10.24609375 -0.39453125 C-13.07137523 -0.08061109 -14.71851109 0.33005551 -17.05859375 1.91796875 C-19.718621 5.90800963 -19.90188794 9.22448293 -19.05859375 13.91796875 C-16.91188687 16.40205576 -16.91188687 16.40205576 -14.05859375 17.91796875 C-13.29546875 18.49546875 -12.53234375 19.07296875 -11.74609375 19.66796875 C-11.18921875 20.08046875 -10.63234375 20.49296875 -10.05859375 20.91796875 C-10.38859375 21.57796875 -10.71859375 22.23796875 -11.05859375 22.91796875 C-13.69859375 21.26796875 -16.33859375 19.61796875 -19.05859375 17.91796875 C-19.38859375 18.57796875 -19.71859375 19.23796875 -20.05859375 19.91796875 C-23.25012067 8.34868367 -23.25012067 8.34868367 -20.49609375 2.73046875 C-14.48346558 -4.20717914 -7.64122976 -4.01635796 0 0 Z " fill="#0269B2" transform="translate(636.05859375,274.08203125)"/>
<path d="M0 0 C1.04449911 3.13349732 0.93423645 3.98968256 0 7 C1.84851563 6.93039062 1.84851563 6.93039062 3.734375 6.859375 C16.64552579 6.51709821 27.07496646 7.41516739 37.671875 15.53515625 C39 17 39 17 39 20 C38.05125 19.0925 37.1025 18.185 36.125 17.25 C28.14129965 10.48967264 19.55151204 9.38601656 9.375 9.25 C8.27542969 9.22035156 7.17585938 9.19070313 6.04296875 9.16015625 C3.36190895 9.09021556 0.68168021 9.03714771 -2 9 C-1.125 2.25 -1.125 2.25 0 0 Z " fill="#0270BB" transform="translate(456,364)"/>
<path d="M0 0 C2.5625 2.0625 2.5625 2.0625 3.5625 4.0625 C3.02625 3.77375 2.49 3.485 1.9375 3.1875 C-3.79639433 0.47144479 -8.39997683 -0.27396026 -14.6875 0.25 C-16.65881818 0.96012779 -16.65881818 0.96012779 -17.6875 3.25 C-18.81104891 7.46330842 -19.08981691 10.57666704 -17.3125 14.625 C-15.44077568 17.26038956 -15.44077568 17.26038956 -12.375 19.5 C-9.18656883 22.2813974 -8.3804045 24.00801064 -7.4375 28.0625 C-8.0975 28.0625 -8.7575 28.0625 -9.4375 28.0625 C-9.788125 27.19625 -10.13875 26.33 -10.5 25.4375 C-12.27536957 22.34492075 -13.31251017 21.17889824 -16 19.0625 C-19.32133736 16.33350306 -20.91583773 14.4966293 -21.4375 10.0625 C-20.86714226 6.0277471 -19.87068029 2.5107664 -16.953125 -0.4375 C-11.1217335 -4.28942833 -5.83666867 -3.2897587 0 0 Z " fill="#026FBC" transform="translate(575.4375,339.9375)"/>
<path d="M0 0 C0.33 0 0.66 0 1 0 C1.24372097 4.26741625 1.45823285 8.53505738 1.64697266 12.80517578 C1.71500343 14.25445701 1.79070054 15.70340114 1.87451172 17.15185547 C2.74682518 32.40157635 2.74682518 32.40157635 -2 39 C-5.57634313 40.19211438 -8.24064683 40.25926574 -12 40 C-14.9375 38.5 -14.9375 38.5 -17 37 C-16.67 36.34 -16.34 35.68 -16 35 C-15.0925 35.515625 -14.185 36.03125 -13.25 36.5625 C-10.26483763 38.19587744 -10.26483763 38.19587744 -7.875 37.8125 C-7.25625 37.544375 -6.6375 37.27625 -6 37 C-5.278125 36.690625 -4.55625 36.38125 -3.8125 36.0625 C-1.83508829 35.12472314 -1.83508829 35.12472314 -1 33 C-0.84373424 30.52167341 -0.74186802 28.06688669 -0.68359375 25.5859375 C-0.66281265 24.85629791 -0.64203156 24.12665833 -0.62062073 23.37490845 C-0.55518083 21.04170237 -0.49626632 18.70838279 -0.4375 16.375 C-0.39430947 14.79425905 -0.35069501 13.21352961 -0.30664062 11.6328125 C-0.19950519 7.75532496 -0.09822218 3.87772315 0 0 Z " fill="#047AC5" transform="translate(521,460)"/>
<path d="M0 0 C0.721875 0.763125 1.44375 1.52625 2.1875 2.3125 C6.75957585 6.68137248 10.6909012 9.1433404 17 9.125 C18.3303125 9.12886719 18.3303125 9.12886719 19.6875 9.1328125 C22.02676966 9.15127902 22.02676966 9.15127902 24 8 C30.20628094 7.57198062 34.29352198 8.55436656 40 11 C39.67 11.66 39.34 12.32 39 13 C38.28448975 12.67185303 37.56897949 12.34370605 36.83178711 12.00561523 C33.85746715 10.94938419 31.82598654 10.80708386 28.69140625 10.91015625 C27.19963867 10.94012695 27.19963867 10.94012695 25.67773438 10.97070312 C23.60469542 11.03178954 21.53177048 11.09687927 19.45898438 11.16601562 C12.97918592 11.28764291 8.32731793 11.04101383 3.3203125 6.46484375 C0 2.22222222 0 2.22222222 0 0 Z " fill="#0161A9" transform="translate(410,440)"/>
<path d="M0 0 C-1.134375 0.4125 -2.26875 0.825 -3.4375 1.25 C-7.10132107 2.52981828 -7.10132107 2.52981828 -7.6875 5 C-7.790625 5.66 -7.89375 6.32 -8 7 C-9.92467295 8.67632805 -11.72136768 9.86068384 -14 11 C-15.04808041 12.97522846 -16.0520411 14.97481509 -17 17 C-23.0546875 17.1953125 -23.0546875 17.1953125 -25 17 C-25.66 16.34 -26.32 15.68 -27 15 C-23.7 15 -20.4 15 -17 15 C-16.9175 14.29875 -16.835 13.5975 -16.75 12.875 C-15.07941911 6.47110661 -11.35956005 3.20815651 -6 -0.21484375 C-3.57627518 -1.1663451 -2.410198 -0.86616491 0 0 Z " fill="#037FCA" transform="translate(673,556)"/>
<path d="M0 0 C1.25425781 0.02707031 2.50851562 0.05414063 3.80078125 0.08203125 C4.75339844 0.11683594 5.70601562 0.15164063 6.6875 0.1875 C6.3575 0.8475 6.0275 1.5075 5.6875 2.1875 C2.59318979 2.66296718 -0.47084011 2.97626097 -3.58984375 3.22265625 C-8.31754812 3.71493195 -10.88793191 4.90894063 -14.3125 8.1875 C-13.40744768 5.14323309 -12.72244096 3.50701281 -10.1875 1.53125 C-6.5911449 -0.1496551 -3.95163547 -0.11079352 0 0 Z " fill="#047FCC" transform="translate(584.3125,447.8125)"/>
<path d="M0 0 C0.66 0 1.32 0 2 0 C3.04892238 1.63631892 4.04906703 3.30485863 5 5 C6.56033623 6.56033623 8.08947136 6.20707559 10.25 6.25 C14.29790179 6.22417607 16.72952997 5.5319768 20 3 C18.96506903 6.33477758 17.86466121 7.08226476 14.8125 8.9375 C11 10 11 10 7.25 8.875 C1.48724832 5.55033557 1.48724832 5.55033557 0.3125 1.8125 C0.209375 1.214375 0.10625 0.61625 0 0 Z " fill="#036FBA" transform="translate(518,348)"/>
<path d="M0 0 C1.65 0 3.3 0 5 0 C0.92790406 4.70583273 -5.65766187 6.68830419 -11.72265625 7.25390625 C-13.81681251 7.25058746 -15.910329 7.13702761 -18 7 C-18 6.67 -18 6.34 -18 6 C-6.47835991 3.88838269 -6.47835991 3.88838269 -1 3 C-0.67 2.01 -0.34 1.02 0 0 Z " fill="#0479C3" transform="translate(594,427)"/>
<path d="M0 0 C4.8887941 0.03133842 8.48099801 1.30534459 12.9375 3.25 C12.6075 3.91 12.2775 4.57 11.9375 5.25 C11.298125 4.92 10.65875 4.59 10 4.25 C6.48000904 3.1006152 3.68539326 3.17502972 0.0234375 3.375 C-2.0625 3.25 -2.0625 3.25 -5.0625 1.25 C-3.53040284 -0.28209716 -2.13059947 0.04385453 0 0 Z " fill="#0476BE" transform="translate(437.0625,447.75)"/>
<path d="M0 0 C0.33 0 0.66 0 1 0 C1.17015625 0.56847656 1.3403125 1.13695312 1.515625 1.72265625 C3.15067737 6.9322114 5.13309172 11.35363141 8 16 C4.34683329 14.75023244 3.21934164 14.32901247 1 11 C0.5859375 8.30078125 0.5859375 8.30078125 0.375 5.3125 C0.30023438 4.31863281 0.22546875 3.32476562 0.1484375 2.30078125 C0.09945313 1.54152344 0.05046875 0.78226562 0 0 Z " fill="#0275C0" transform="translate(348,392)"/>
<path d="M0 0 C2.72334905 1.63400943 3.89585423 2.77608658 5.25 5.6875 C6.14014343 9.61896683 6.13872119 12.97708562 6 17 C5.67 17 5.34 17 5 17 C4.72736328 15.77023437 4.72736328 15.77023437 4.44921875 14.515625 C4.07216797 12.89914062 4.07216797 12.89914062 3.6875 11.25 C3.44386719 10.18265625 3.20023438 9.1153125 2.94921875 8.015625 C2.0245175 5.07789099 0.99907642 3.30705738 -1 1 C-0.67 0.67 -0.34 0.34 0 0 Z " fill="#00B5FA" transform="translate(530,742)"/>
<path d="M0 0 C0.66 0.33 1.32 0.66 2 1 C1.855625 1.495 1.71125 1.99 1.5625 2.5 C0.78005593 5.97752922 0.41305236 9.45955123 0 13 C-0.66 12.67 -1.32 12.34 -2 12 C-3.00376838 7.9849265 -3.40779739 5.83332509 -1.5625 2.0625 C-1.046875 1.381875 -0.53125 0.70125 0 0 Z " fill="#018DDE" transform="translate(598,336)"/>
<path d="M0 0 C4.04420651 1.77945087 7.46078487 4.39529673 11 7 C10.67 7.66 10.34 8.32 10 9 C7.36 7.35 4.72 5.7 2 4 C1.67 4.66 1.34 5.32 1 6 C0.67 4.02 0.34 2.04 0 0 Z " fill="#0373C0" transform="translate(615,288)"/>
<path d="M0 0 C0 0.99 0 1.98 0 3 C-0.83144531 3.29003906 -0.83144531 3.29003906 -1.6796875 3.5859375 C-2.40414063 3.84632813 -3.12859375 4.10671875 -3.875 4.375 C-4.59429687 4.63023437 -5.31359375 4.88546875 -6.0546875 5.1484375 C-8.18157994 5.93877783 -8.18157994 5.93877783 -10 8 C-10.33 6.68 -10.66 5.36 -11 4 C-10.37351562 3.79503906 -9.74703125 3.59007812 -9.1015625 3.37890625 C-8.28429687 3.10949219 -7.46703125 2.84007812 -6.625 2.5625 C-5.81289063 2.29566406 -5.00078125 2.02882813 -4.1640625 1.75390625 C-1.98968201 1.04820271 -1.98968201 1.04820271 0 0 Z " fill="#0885CC" transform="translate(491,743)"/>
<path d="M0 0 C0 0.33 0 0.66 0 1 C-1.5778125 1.37125 -1.5778125 1.37125 -3.1875 1.75 C-6.8133541 2.76700786 -9.19910772 4.45373429 -12 7 C-10.55172414 2.4137931 -10.55172414 2.4137931 -8.25 0.6875 C-5.42890579 -0.17450101 -2.93240449 -0.13329111 0 0 Z " fill="#0267B1" transform="translate(622,370)"/>
<path d="M0 0 C3.91402949 1.26941497 5.79072873 2.51167694 8 6 C7.67 6.66 7.34 7.32 7 8 C5.83035398 6.8572081 4.66435444 5.71068285 3.5 4.5625 C2.8503125 3.92441406 2.200625 3.28632813 1.53125 2.62890625 C0 1 0 1 0 0 Z " fill="#026AB4" transform="translate(681,337)"/>
<path d="M0 0 C0.33 0 0.66 0 1 0 C1 2.31 1 4.62 1 7 C0.67 7 0.34 7 0 7 C0 4.69 0 2.38 0 0 Z " fill="#069BEE" transform="translate(480,341)"/>
<path d="M0 0 C0.99 0.495 0.99 0.495 2 1 C1.67 1.99 1.34 2.98 1 4 C0.67 2.68 0.34 1.36 0 0 Z " fill="#079DEF" transform="translate(410,282)"/>
<path d="M0 0 C1 4 1 4 1 4 Z " fill="#0AADF4" transform="translate(486,678)"/>
<path d="M0 0 C4 1 4 1 4 1 Z " fill="#09A7F8" transform="translate(593,448)"/>
<path d="M0 0 C0.66 0 1.32 0 2 0 C2 0.66 2 1.32 2 2 C1.34 2 0.68 2 0 2 C0 1.34 0 0.68 0 0 Z " fill="#04A0F4" transform="translate(390,398)"/>
<path d="M0 0 C1 4 1 4 1 4 Z " fill="#069EF1" transform="translate(480,326)"/>
<path d="M0 0 C3 1 3 1 3 1 Z " fill="#0AA1E5" transform="translate(483,749)"/>
<path d="" fill="#1092D8" transform="translate(0,0)"/>
<path d="M0 0 C3 1 3 1 3 1 Z " fill="#09A4EE" transform="translate(346,552)"/>
<path d="" fill="#039DF2" transform="translate(0,0)"/>
<path d="M0 0 C3 1 3 1 3 1 Z " fill="#049FF3" transform="translate(386,398)"/>
<path d="M0 0 C3 1 3 1 3 1 Z " fill="#069FF6" transform="translate(477,370)"/>
<path d="M0 0 C3 1 3 1 3 1 Z " fill="#05A1F7" transform="translate(557,369)"/>
<path d="M0 0 C3 1 3 1 3 1 Z " fill="#079AF0" transform="translate(648,368)"/>
<path d="M0 0 C3 1 3 1 3 1 Z " fill="#05A1F5" transform="translate(617,368)"/>
<path d="M0 0 C3 1 3 1 3 1 Z " fill="#039EF3" transform="translate(402,368)"/>
<path d="" fill="#059FF1" transform="translate(0,0)"/>
<path d="" fill="#059CF1" transform="translate(0,0)"/>
<path d="M0 0 C0.66 0 1.32 0 2 0 C1.67 0.66 1.34 1.32 1 2 C0.67 1.34 0.34 0.68 0 0 Z " fill="#039DF9" transform="translate(435,326)"/>
<path d="" fill="#069BF2" transform="translate(0,0)"/>
<path d="M0 0 C2 1 2 1 2 1 Z " fill="#0C84C2" transform="translate(515,782)"/>
<path d="M0 0 C2 1 2 1 2 1 Z " fill="#0D9DE2" transform="translate(475,750)"/>
<path d="M0 0 C2 1 2 1 2 1 Z " fill="#0B9ADF" transform="translate(472,750)"/>
<path d="" fill="#09A2EF" transform="translate(0,0)"/>
<path d="" fill="#09A9F0" transform="translate(0,0)"/>
<path d="" fill="#0AA4ED" transform="translate(0,0)"/>
<path d="M0 0 C2 1 2 1 2 1 Z " fill="#0AAAF3" transform="translate(465,704)"/>
<path d="" fill="#09ACF3" transform="translate(0,0)"/>
<path d="" fill="#08ABF3" transform="translate(0,0)"/>
<path d="" fill="#0BACF6" transform="translate(0,0)"/>
<path d="" fill="#08ADF5" transform="translate(0,0)"/>
<path d="" fill="#08AEF5" transform="translate(0,0)"/>
<path d="" fill="#09ABF4" transform="translate(0,0)"/>
<path d="" fill="#0D94D7" transform="translate(0,0)"/>
<path d="M0 0 C2 1 2 1 2 1 Z " fill="#089AE9" transform="translate(785,637)"/>
<path d="" fill="#0BAAF3" transform="translate(0,0)"/>
<path d="" fill="#0BADF4" transform="translate(0,0)"/>
<path d="" fill="#0A96DC" transform="translate(0,0)"/>
<path d="M0 0 C2 1 2 1 2 1 Z " fill="#0EA8F3" transform="translate(480,617)"/>
<path d="M0 0 C2 1 2 1 2 1 Z " fill="#09A1ED" transform="translate(673,552)"/>
<path d="M0 0 C2 1 2 1 2 1 Z " fill="#0BA4F1" transform="translate(505,524)"/>
<path d="M0 0 C2 1 2 1 2 1 Z " fill="#04A1F0" transform="translate(574,448)"/>
<path d="M0 0 C2 1 2 1 2 1 Z " fill="#069DF4" transform="translate(441,436)"/>
<path d="M0 0 C2 1 2 1 2 1 Z " fill="#069EF3" transform="translate(434,435)"/>
<path d="" fill="#05A4F2" transform="translate(0,0)"/>
<path d="M0 0 C2 1 2 1 2 1 Z " fill="#069FF2" transform="translate(627,398)"/>
<path d="M0 0 C2 1 2 1 2 1 Z " fill="#04A1F5" transform="translate(640,397)"/>
<path d="" fill="#059DF2" transform="translate(0,0)"/>
<path d="" fill="#059CF1" transform="translate(0,0)"/>
<path d="M0 0 C2 1 2 1 2 1 Z " fill="#029FF6" transform="translate(501,384)"/>
<path d="M0 0 C2 1 2 1 2 1 Z " fill="#05A1F4" transform="translate(490,376)"/>
<path d="M0 0 C2 1 2 1 2 1 Z " fill="#04A0F5" transform="translate(480,371)"/>
<path d="" fill="#03A1F6" transform="translate(0,0)"/>
<path d="M0 0 C2 1 2 1 2 1 Z " fill="#049DF2" transform="translate(463,369)"/>
<path d="M0 0 C2 1 2 1 2 1 Z " fill="#04A1F2" transform="translate(372,368)"/>
<path d="" fill="#049EF6" transform="translate(0,0)"/>
<path d="" fill="#089DF4" transform="translate(0,0)"/>
<path d="" fill="#069DF6" transform="translate(0,0)"/>
<path d="M0 0 C2 1 2 1 2 1 Z " fill="#049FF0" transform="translate(353,359)"/>
<path d="" fill="#059EF2" transform="translate(0,0)"/>
<path d="" fill="#078FE1" transform="translate(0,0)"/>
<path d="M0 0 C2 1 2 1 2 1 Z " fill="#058CDC" transform="translate(683,336)"/>
<path d="M0 0 C2 1 2 1 2 1 Z " fill="#039BEC" transform="translate(461,336)"/>
<path d="" fill="#059DF3" transform="translate(0,0)"/>
<path d="" fill="#049CEF" transform="translate(0,0)"/>
<path d="" fill="#059EF0" transform="translate(0,0)"/>
<path d="" fill="#079CF2" transform="translate(0,0)"/>
<path d="" fill="#089FEE" transform="translate(0,0)"/>
<path d="M0 0 C2 1 2 1 2 1 Z " fill="#059BF3" transform="translate(620,295)"/>
<path d="" fill="#0498EF" transform="translate(0,0)"/>
<path d="" fill="#04A6F8" transform="translate(0,0)"/>
<path d="" fill="#0697E7" transform="translate(0,0)"/>
<path d="" fill="#0984C4" transform="translate(0,0)"/>
<path d="" fill="#0B8ACA" transform="translate(0,0)"/>
<path d="" fill="#0B96D8" transform="translate(0,0)"/>
<path d="" fill="#0B92D2" transform="translate(0,0)"/>
<path d="" fill="#0A9CE5" transform="translate(0,0)"/>
<path d="" fill="#0A9BDD" transform="translate(0,0)"/>
<path d="" fill="#0B99DD" transform="translate(0,0)"/>
<path d="" fill="#0D9ADD" transform="translate(0,0)"/>
<path d="" fill="#0C9DE3" transform="translate(0,0)"/>
<path d="" fill="#0DA0E7" transform="translate(0,0)"/>
<path d="" fill="#06A3ED" transform="translate(0,0)"/>
<path d="" fill="#0AABF6" transform="translate(0,0)"/>
<path d="" fill="#09A8F2" transform="translate(0,0)"/>
<path d="" fill="#07A4ED" transform="translate(0,0)"/>
<path d="" fill="#0DACF6" transform="translate(0,0)"/>
<path d="" fill="#0BACF6" transform="translate(0,0)"/>
<path d="" fill="#0AADF7" transform="translate(0,0)"/>
<path d="" fill="#0995DB" transform="translate(0,0)"/>
<path d="" fill="#0C89D1" transform="translate(0,0)"/>
<path d="" fill="#0C95D7" transform="translate(0,0)"/>
<path d="" fill="#0C9DE8" transform="translate(0,0)"/>
<path d="" fill="#079FEC" transform="translate(0,0)"/>
<path d="" fill="#1194D3" transform="translate(0,0)"/>
<path d="" fill="#1093D5" transform="translate(0,0)"/>
<path d="" fill="#0E91D5" transform="translate(0,0)"/>
<path d="" fill="#07A7F3" transform="translate(0,0)"/>
<path d="" fill="#0AA9F6" transform="translate(0,0)"/>
<path d="" fill="#07A6F0" transform="translate(0,0)"/>
<path d="" fill="#0BA2EE" transform="translate(0,0)"/>
<path d="" fill="#0DACF5" transform="translate(0,0)"/>
<path d="" fill="#069BE8" transform="translate(0,0)"/>
<path d="" fill="#0898E4" transform="translate(0,0)"/>
<path d="" fill="#0996E4" transform="translate(0,0)"/>
<path d="" fill="#0B9FE7" transform="translate(0,0)"/>
<path d="" fill="#0B92D6" transform="translate(0,0)"/>
<path d="" fill="#0990DC" transform="translate(0,0)"/>
<path d="" fill="#089DE4" transform="translate(0,0)"/>
<path d="" fill="#089FE8" transform="translate(0,0)"/>
<path d="" fill="#07A7F7" transform="translate(0,0)"/>
<path d="" fill="#0AA9F4" transform="translate(0,0)"/>
<path d="" fill="#0DA6EF" transform="translate(0,0)"/>
<path d="" fill="#0BA9F6" transform="translate(0,0)"/>
<path d="" fill="#0997E3" transform="translate(0,0)"/>
<path d="" fill="#0CA0E8" transform="translate(0,0)"/>
<path d="" fill="#0CA0EB" transform="translate(0,0)"/>
<path d="" fill="#0894E0" transform="translate(0,0)"/>
<path d="" fill="#0D9DE3" transform="translate(0,0)"/>
<path d="" fill="#0996E2" transform="translate(0,0)"/>
<path d="" fill="#0C99E4" transform="translate(0,0)"/>
<path d="" fill="#099EED" transform="translate(0,0)"/>
<path d="" fill="#08A5EB" transform="translate(0,0)"/>
<path d="" fill="#099FE8" transform="translate(0,0)"/>
<path d="" fill="#0B9FEE" transform="translate(0,0)"/>
<path d="" fill="#09A3EA" transform="translate(0,0)"/>
<path d="" fill="#0A99E3" transform="translate(0,0)"/>
<path d="" fill="#0AA5F5" transform="translate(0,0)"/>
<path d="" fill="#0BA4F1" transform="translate(0,0)"/>
<path d="" fill="#0AA2F1" transform="translate(0,0)"/>
<path d="" fill="#0BA2F0" transform="translate(0,0)"/>
<path d="" fill="#099FF0" transform="translate(0,0)"/>
<path d="" fill="#0AA1F0" transform="translate(0,0)"/>
<path d="" fill="#03A7F4" transform="translate(0,0)"/>
<path d="" fill="#0A9EEF" transform="translate(0,0)"/>
<path d="" fill="#08A2ED" transform="translate(0,0)"/>
<path d="" fill="#06A2F1" transform="translate(0,0)"/>
<path d="" fill="#0C9DEC" transform="translate(0,0)"/>
<path d="" fill="#0A9EEC" transform="translate(0,0)"/>
<path d="" fill="#0AA0EE" transform="translate(0,0)"/>
<path d="" fill="#0C9EE8" transform="translate(0,0)"/>
<path d="" fill="#0BA1EF" transform="translate(0,0)"/>
<path d="" fill="#0D9FF3" transform="translate(0,0)"/>
<path d="" fill="#099BEC" transform="translate(0,0)"/>
<path d="" fill="#05A1ED" transform="translate(0,0)"/>
<path d="" fill="#0A9CEB" transform="translate(0,0)"/>
<path d="" fill="#0D9BE8" transform="translate(0,0)"/>
<path d="" fill="#049DF1" transform="translate(0,0)"/>
<path d="" fill="#079FF2" transform="translate(0,0)"/>
<path d="" fill="#059EF5" transform="translate(0,0)"/>
<path d="" fill="#06A3F4" transform="translate(0,0)"/>
<path d="" fill="#059FF3" transform="translate(0,0)"/>
<path d="" fill="#08A2F6" transform="translate(0,0)"/>
<path d="" fill="#03A0F4" transform="translate(0,0)"/>
<path d="" fill="#05A2F8" transform="translate(0,0)"/>
<path d="" fill="#05A2F5" transform="translate(0,0)"/>
<path d="" fill="#099FF3" transform="translate(0,0)"/>
<path d="" fill="#03A1EE" transform="translate(0,0)"/>
<path d="" fill="#05A2F0" transform="translate(0,0)"/>
<path d="" fill="#0BA7F5" transform="translate(0,0)"/>
<path d="" fill="#04A4F1" transform="translate(0,0)"/>
<path d="" fill="#07A1F5" transform="translate(0,0)"/>
<path d="" fill="#07A0F4" transform="translate(0,0)"/>
<path d="" fill="#01A0F4" transform="translate(0,0)"/>
<path d="" fill="#0C9EEA" transform="translate(0,0)"/>
<path d="" fill="#0999E7" transform="translate(0,0)"/>
<path d="" fill="#05A1F7" transform="translate(0,0)"/>
<path d="" fill="#069FF4" transform="translate(0,0)"/>
<path d="" fill="#04A0F8" transform="translate(0,0)"/>
<path d="" fill="#0898E9" transform="translate(0,0)"/>
<path d="" fill="#0A97E5" transform="translate(0,0)"/>
<path d="" fill="#0A9CED" transform="translate(0,0)"/>
<path d="" fill="#039FF6" transform="translate(0,0)"/>
<path d="" fill="#06A0F9" transform="translate(0,0)"/>
<path d="" fill="#099AED" transform="translate(0,0)"/>
<path d="" fill="#0A9CF2" transform="translate(0,0)"/>
<path d="" fill="#0A98E4" transform="translate(0,0)"/>
<path d="" fill="#06A1F3" transform="translate(0,0)"/>
<path d="" fill="#089FF3" transform="translate(0,0)"/>
<path d="" fill="#0798EB" transform="translate(0,0)"/>
<path d="" fill="#05A0F6" transform="translate(0,0)"/>
<path d="" fill="#06A2F4" transform="translate(0,0)"/>
<path d="" fill="#079EF2" transform="translate(0,0)"/>
<path d="" fill="#069DEF" transform="translate(0,0)"/>
<path d="" fill="#08A1F5" transform="translate(0,0)"/>
<path d="" fill="#0B8DDA" transform="translate(0,0)"/>
<path d="" fill="#069DF0" transform="translate(0,0)"/>
<path d="" fill="#089FF5" transform="translate(0,0)"/>
<path d="" fill="#059DF2" transform="translate(0,0)"/>
<path d="" fill="#05A5FB" transform="translate(0,0)"/>
<path d="" fill="#06A1F0" transform="translate(0,0)"/>
<path d="" fill="#069CF1" transform="translate(0,0)"/>
<path d="" fill="#059EF5" transform="translate(0,0)"/>
<path d="" fill="#09A2F4" transform="translate(0,0)"/>
<path d="" fill="#069FF3" transform="translate(0,0)"/>
<path d="" fill="#099DF2" transform="translate(0,0)"/>
<path d="" fill="#07A1F5" transform="translate(0,0)"/>
<path d="" fill="#07A1F2" transform="translate(0,0)"/>
<path d="" fill="#07A1F3" transform="translate(0,0)"/>
<path d="" fill="#09A0F4" transform="translate(0,0)"/>
<path d="" fill="#079BF0" transform="translate(0,0)"/>
<path d="" fill="#079DF1" transform="translate(0,0)"/>
<path d="" fill="#05A1F4" transform="translate(0,0)"/>
<path d="" fill="#099FF5" transform="translate(0,0)"/>
<path d="" fill="#05A3F6" transform="translate(0,0)"/>
<path d="" fill="#03A2F9" transform="translate(0,0)"/>
<path d="" fill="#079EF5" transform="translate(0,0)"/>
<path d="" fill="#059DF1" transform="translate(0,0)"/>
<path d="" fill="#079EF2" transform="translate(0,0)"/>
<path d="" fill="#06A0F8" transform="translate(0,0)"/>
<path d="" fill="#069FF4" transform="translate(0,0)"/>
<path d="" fill="#08A2F8" transform="translate(0,0)"/>
<path d="" fill="#03A1F6" transform="translate(0,0)"/>
<path d="" fill="#079BF3" transform="translate(0,0)"/>
<path d="" fill="#079EEF" transform="translate(0,0)"/>
<path d="" fill="#039EF1" transform="translate(0,0)"/>
<path d="" fill="#03A1F6" transform="translate(0,0)"/>
<path d="" fill="#039DEF" transform="translate(0,0)"/>
<path d="" fill="#019DF1" transform="translate(0,0)"/>
<path d="" fill="#069EEE" transform="translate(0,0)"/>
<path d="" fill="#059EF6" transform="translate(0,0)"/>
<path d="" fill="#089EF3" transform="translate(0,0)"/>
<path d="" fill="#049EF4" transform="translate(0,0)"/>
<path d="" fill="#05A1F5" transform="translate(0,0)"/>
<path d="" fill="#07A0F5" transform="translate(0,0)"/>
<path d="" fill="#06A0F8" transform="translate(0,0)"/>
<path d="" fill="#059FFB" transform="translate(0,0)"/>
<path d="" fill="#05A0F7" transform="translate(0,0)"/>
<path d="" fill="#06A0F7" transform="translate(0,0)"/>
<path d="" fill="#069EF1" transform="translate(0,0)"/>
<path d="" fill="#0599F3" transform="translate(0,0)"/>
<path d="" fill="#059FF5" transform="translate(0,0)"/>
<path d="" fill="#059EEF" transform="translate(0,0)"/>
<path d="" fill="#069CF5" transform="translate(0,0)"/>
<path d="" fill="#079AF3" transform="translate(0,0)"/>
<path d="" fill="#049DF6" transform="translate(0,0)"/>
<path d="" fill="#03A2F7" transform="translate(0,0)"/>
<path d="" fill="#059BEC" transform="translate(0,0)"/>
<path d="" fill="#029FF6" transform="translate(0,0)"/>
<path d="" fill="#009EF7" transform="translate(0,0)"/>
<path d="" fill="#049BF8" transform="translate(0,0)"/>
<path d="" fill="#05A0F8" transform="translate(0,0)"/>
<path d="" fill="#00A3F1" transform="translate(0,0)"/>
<path d="" fill="#03A3F6" transform="translate(0,0)"/>
<path d="" fill="#059EF3" transform="translate(0,0)"/>
<path d="" fill="#049CF1" transform="translate(0,0)"/>
<path d="" fill="#04A5F6" transform="translate(0,0)"/>
<path d="" fill="#089EF7" transform="translate(0,0)"/>
<path d="" fill="#039EF0" transform="translate(0,0)"/>
<path d="" fill="#00A1F1" transform="translate(0,0)"/>
<path d="" fill="#039CF4" transform="translate(0,0)"/>
<path d="" fill="#0498F1" transform="translate(0,0)"/>
<path d="" fill="#059BF4" transform="translate(0,0)"/>
<path d="" fill="#079FF4" transform="translate(0,0)"/>
<path d="" fill="#0792DC" transform="translate(0,0)"/>
<path d="" fill="#0399F1" transform="translate(0,0)"/>
<path d="" fill="#0596F0" transform="translate(0,0)"/>
<path d="" fill="#059CF2" transform="translate(0,0)"/>
<path d="" fill="#0789D5" transform="translate(0,0)"/>
<path d="" fill="#089AEC" transform="translate(0,0)"/>
<path d="" fill="#089EF4" transform="translate(0,0)"/>
<path d="" fill="#0E98E6" transform="translate(0,0)"/>
<path d="" fill="#079CF3" transform="translate(0,0)"/>
<path d="" fill="#0799EE" transform="translate(0,0)"/>
<path d="" fill="#079CF1" transform="translate(0,0)"/>
<path d="" fill="#069DEF" transform="translate(0,0)"/>
<path d="" fill="#049DF4" transform="translate(0,0)"/>
<path d="" fill="#069DF2" transform="translate(0,0)"/>
<path d="" fill="#089CEF" transform="translate(0,0)"/>
<path d="" fill="#07A5F5" transform="translate(0,0)"/>
<path d="" fill="#03A5FA" transform="translate(0,0)"/>
<path d="" fill="#029EF6" transform="translate(0,0)"/>
<path d="" fill="#07A1F2" transform="translate(0,0)"/>
<path d="" fill="#0796E8" transform="translate(0,0)"/>
<path d="" fill="#0A91E2" transform="translate(0,0)"/>
<path d="" fill="#0490E1" transform="translate(0,0)"/>
<path d="" fill="#07A2F6" transform="translate(0,0)"/>
<path d="" fill="#079EF2" transform="translate(0,0)"/>
<path d="" fill="#098BD9" transform="translate(0,0)"/>
<path d="" fill="#05A1F4" transform="translate(0,0)"/>
<path d="" fill="#0A92E3" transform="translate(0,0)"/>
<path d="" fill="#088EDD" transform="translate(0,0)"/>
<path d="" fill="#079FF5" transform="translate(0,0)"/>
<path d="" fill="#039FF6" transform="translate(0,0)"/>
<path d="" fill="#07A5F7" transform="translate(0,0)"/>
<path d="" fill="#079FF3" transform="translate(0,0)"/>
<path d="" fill="#069BEF" transform="translate(0,0)"/>
<path d="" fill="#099CF5" transform="translate(0,0)"/>
<path d="" fill="#079DF3" transform="translate(0,0)"/>
<path d="" fill="#049AF0" transform="translate(0,0)"/>
<path d="" fill="#05A3F5" transform="translate(0,0)"/>
<path d="" fill="#02A0F3" transform="translate(0,0)"/>
<path d="" fill="#07A3F6" transform="translate(0,0)"/>
<path d="" fill="#089EF2" transform="translate(0,0)"/>
<path d="" fill="#06A3F5" transform="translate(0,0)"/>
<path d="" fill="#039EF2" transform="translate(0,0)"/>
<path d="" fill="#079CF2" transform="translate(0,0)"/>
<path d="" fill="#089DF0" transform="translate(0,0)"/>
<path d="" fill="#079EF0" transform="translate(0,0)"/>
<path d="" fill="#049BF1" transform="translate(0,0)"/>
<path d="" fill="#099BF0" transform="translate(0,0)"/>
<path d="" fill="#06A5F8" transform="translate(0,0)"/>
<path d="" fill="#07A0F6" transform="translate(0,0)"/>
<path d="" fill="#04A0F4" transform="translate(0,0)"/>
<path d="" fill="#07A2F5" transform="translate(0,0)"/>
<path d="" fill="#0692E1" transform="translate(0,0)"/>
<path d="" fill="#04A3F7" transform="translate(0,0)"/>
<path d="" fill="#088DDA" transform="translate(0,0)"/>
<path d="" fill="#06A0F4" transform="translate(0,0)"/>
<path d="" fill="#05A0F4" transform="translate(0,0)"/>
<path d="" fill="#079CF2" transform="translate(0,0)"/>
<path d="" fill="#029EF7" transform="translate(0,0)"/>
<path d="" fill="#01A0F5" transform="translate(0,0)"/>
<path d="" fill="#049CF1" transform="translate(0,0)"/>
<path d="" fill="#04A0F7" transform="translate(0,0)"/>
<path d="" fill="#06A0F6" transform="translate(0,0)"/>
<path d="" fill="#0B8FDF" transform="translate(0,0)"/>
<path d="" fill="#059CF4" transform="translate(0,0)"/>
<path d="" fill="#069EF1" transform="translate(0,0)"/>
<path d="" fill="#099DEE" transform="translate(0,0)"/>
<path d="" fill="#089DF1" transform="translate(0,0)"/>
<path d="" fill="#069DF0" transform="translate(0,0)"/>
<path d="" fill="#0A8BD7" transform="translate(0,0)"/>
<path d="" fill="#099BF4" transform="translate(0,0)"/>
<path d="" fill="#058DDC" transform="translate(0,0)"/>
<path d="" fill="#029BF3" transform="translate(0,0)"/>
<path d="" fill="#03A1F5" transform="translate(0,0)"/>
<path d="" fill="#0497EB" transform="translate(0,0)"/>
<path d="" fill="#0494E1" transform="translate(0,0)"/>
<path d="" fill="#049CEE" transform="translate(0,0)"/>
<path d="" fill="#049EF0" transform="translate(0,0)"/>
<path d="" fill="#06A1ED" transform="translate(0,0)"/>
<path d="" fill="#059EF4" transform="translate(0,0)"/>
<path d="" fill="#089DF1" transform="translate(0,0)"/>
<path d="" fill="#049BF3" transform="translate(0,0)"/>
<path d="" fill="#029CF0" transform="translate(0,0)"/>
<path d="" fill="#049BF2" transform="translate(0,0)"/>
<path d="" fill="#059DF4" transform="translate(0,0)"/>
<path d="" fill="#0599F2" transform="translate(0,0)"/>
<path d="" fill="#00A1F5" transform="translate(0,0)"/>
<path d="" fill="#039BF2" transform="translate(0,0)"/>
<path d="" fill="#059EF5" transform="translate(0,0)"/>
<path d="" fill="#039DF2" transform="translate(0,0)"/>
<path d="" fill="#098FDE" transform="translate(0,0)"/>
<path d="" fill="#00A1F2" transform="translate(0,0)"/>
<path d="" fill="#059AED" transform="translate(0,0)"/>
<path d="" fill="#0A90DF" transform="translate(0,0)"/>
<path d="" fill="#0598EF" transform="translate(0,0)"/>
<path d="" fill="#0995E8" transform="translate(0,0)"/>
<path d="" fill="#0991E1" transform="translate(0,0)"/>
<path d="" fill="#0496E6" transform="translate(0,0)"/>
</svg>
