<svg xmlns="http://www.w3.org/2000/svg" xmlns:xlink="http://www.w3.org/1999/xlink" width="1080" zoomAndPan="magnify" viewBox="0 0 810 809.999993" height="1080" preserveAspectRatio="xMidYMid meet" version="1.2"><g id="9a545cf688"><rect x="0" width="810" y="0" height="809.999993" style="fill:#ffffff;fill-opacity:1;stroke:none;"/><rect x="0" width="810" y="0" height="809.999993" style="fill:#ffffff;fill-opacity:1;stroke:none;"/><path style=" stroke:none;fill-rule:nonzero;fill:#00a1f5;fill-opacity:1;" d="M 241.523438 455.261719 C 246.496094 459.964844 249.324219 464.324219 252.421875 470.519531 C 354.5625 470.519531 456.703125 470.519531 561.9375 470.519531 C 562.296875 468.722656 562.65625 466.921875 563.027344 465.070312 C 566.621094 458.171875 572.113281 454.414062 579.375 451.992188 C 595.386719 450.765625 595.386719 450.765625 602.261719 456.351562 C 608 461.75 611.890625 467.582031 612.171875 475.613281 C 611.75 483.257812 610.289062 489.894531 604.625 495.316406 C 597.863281 500.683594 591.375 503.113281 582.644531 502.125 C 574.992188 500.652344 569.285156 497.070312 564.117188 491.226562 C 564.117188 490.507812 564.117188 489.789062 564.117188 489.046875 C 563.398438 488.6875 562.679688 488.328125 561.9375 487.957031 C 561.9375 487.597656 561.9375 487.238281 561.9375 486.867188 C 513.386719 486.867188 464.832031 486.867188 414.808594 486.867188 C 414.449219 498.734375 414.089844 510.605469 413.71875 522.832031 C 508.664062 522.832031 603.613281 522.832031 701.4375 522.832031 C 702.875 519.957031 704.316406 517.078125 705.796875 514.113281 C 710.335938 509.003906 714.648438 505.574219 721.054688 503.214844 C 721.773438 502.855469 722.492188 502.496094 723.234375 502.125 C 732.203125 502.59375 740.414062 504.78125 747.210938 510.84375 C 751.65625 517.058594 754.363281 524.078125 753.46875 531.789062 C 751.878906 540.464844 747.886719 546.035156 740.671875 551.167969 C 733.738281 554.832031 726.976562 555.617188 719.367188 553.761719 C 711.710938 551.148438 706.179688 546.484375 702.527344 539.179688 C 607.582031 539.179688 512.632812 539.179688 414.808594 539.179688 C 410.152344 594.605469 410.152344 594.605469 416.988281 648.164062 C 419.128906 649.671875 421.316406 651.121094 423.527344 652.523438 C 430.117188 659.132812 433.195312 664.925781 433.335938 674.320312 C 432.910156 680.09375 432.324219 684.773438 428.773438 689.441406 C 427.761719 690.207031 426.75 690.972656 425.707031 691.757812 C 425.09375 692.238281 424.480469 692.714844 423.847656 693.210938 C 416.34375 698.882812 410.003906 700.226562 400.640625 699.386719 C 393.175781 697.238281 386.863281 692.609375 382.734375 685.988281 C 379.554688 679.09375 379.523438 672.984375 381.023438 665.601562 C 381.382812 664.882812 381.742188 664.164062 382.113281 663.421875 C 376.027344 663.640625 376.027344 663.640625 371.214844 666.691406 C 371.214844 665.972656 371.214844 665.253906 371.214844 664.511719 C 370.554688 664.574219 369.894531 664.636719 369.214844 664.703125 C 361.46875 665.121094 355.753906 663.621094 349.417969 659.0625 C 342.671875 652.03125 341.382812 646.113281 341.492188 636.5 C 342.144531 628.632812 345.738281 623.980469 351.625 618.984375 C 353.777344 617.648438 353.777344 617.648438 360.316406 615.46875 C 360.316406 589.933594 360.316406 564.398438 360.316406 538.089844 C 357.4375 538.449219 354.5625 538.808594 351.597656 539.179688 C 348.808594 539.273438 346.015625 539.316406 343.222656 539.320312 C 342.425781 539.320312 341.628906 539.320312 340.808594 539.324219 C 338.164062 539.328125 335.519531 539.324219 332.875 539.320312 C 330.964844 539.324219 329.058594 539.324219 327.148438 539.328125 C 321.972656 539.332031 316.796875 539.328125 311.621094 539.328125 C 306.15625 539.324219 300.691406 539.328125 295.230469 539.328125 C 286.019531 539.328125 276.808594 539.328125 267.597656 539.320312 C 257.066406 539.316406 246.535156 539.316406 236 539.324219 C 226.886719 539.328125 217.773438 539.328125 208.660156 539.328125 C 203.25 539.324219 197.839844 539.324219 192.429688 539.328125 C 164.457031 539.34375 136.523438 538.960938 108.5625 538.089844 C 108.203125 538.808594 107.84375 539.527344 107.472656 540.269531 C 102.25 547.429688 96.535156 552.390625 87.855469 554.4375 C 79.277344 555.535156 72.09375 553.558594 65.242188 548.308594 C 60.054688 543.535156 58.101562 537.671875 56.316406 531.007812 C 56.175781 523.046875 59.3125 516.683594 64.226562 510.546875 C 69.417969 505.210938 75.78125 503.117188 83.085938 502.804688 C 90.507812 502.914062 96.6875 505.488281 101.941406 510.777344 C 105.128906 514.789062 106.546875 517.78125 107.472656 522.832031 C 108.847656 522.832031 110.222656 522.828125 111.636719 522.828125 C 144.226562 522.777344 176.816406 522.742188 209.410156 522.722656 C 213.417969 522.71875 217.425781 522.714844 221.433594 522.710938 C 222.230469 522.710938 223.027344 522.710938 223.851562 522.710938 C 236.785156 522.703125 249.71875 522.683594 262.652344 522.664062 C 275.917969 522.644531 289.179688 522.632812 302.445312 522.628906 C 310.632812 522.625 318.824219 522.613281 327.011719 522.597656 C 333.285156 522.585938 339.554688 522.582031 345.828125 522.585938 C 348.40625 522.585938 350.984375 522.582031 353.5625 522.574219 C 357.070312 522.5625 360.578125 522.5625 364.085938 522.570312 C 365.117188 522.5625 366.152344 522.558594 367.214844 522.550781 C 368.148438 522.554688 369.082031 522.558594 370.046875 522.5625 C 370.855469 522.5625 371.667969 522.5625 372.5 522.5625 C 374.484375 522.832031 374.484375 522.832031 376.664062 525.011719 C 376.304688 525.730469 375.945312 526.449219 375.574219 527.191406 C 376.292969 527.191406 377.011719 527.191406 377.753906 527.191406 C 377.394531 527.910156 377.035156 528.628906 376.664062 529.371094 C 376.414062 531.957031 376.214844 534.546875 376.050781 537.136719 C 375.960938 538.53125 375.867188 539.929688 375.773438 541.367188 C 375.707031 542.445312 375.640625 543.519531 375.574219 544.628906 C 376.292969 544.628906 377.011719 544.628906 377.753906 544.628906 C 377.394531 545.347656 377.035156 546.066406 376.664062 546.808594 C 376.496094 549.261719 376.390625 551.71875 376.320312 554.175781 C 376.285156 555.257812 376.285156 555.257812 376.25 556.363281 C 376.179688 558.671875 376.113281 560.984375 376.050781 563.292969 C 376.003906 564.859375 375.957031 566.421875 375.910156 567.988281 C 375.792969 571.828125 375.679688 575.664062 375.574219 579.503906 C 376.292969 579.863281 377.011719 580.222656 377.753906 580.59375 C 377.035156 580.59375 376.316406 580.59375 375.574219 580.59375 C 375.933594 592.101562 376.292969 603.613281 376.664062 615.46875 C 379.542969 616.90625 382.417969 618.347656 385.382812 619.828125 C 392.039062 626.339844 394.25 633.691406 395.191406 642.714844 C 394.472656 642.714844 393.753906 642.714844 393.011719 642.714844 C 392.652344 645.59375 392.292969 648.46875 391.921875 651.433594 C 393.539062 650.355469 393.539062 650.355469 395.191406 649.253906 C 396.269531 649.253906 397.347656 649.253906 398.460938 649.253906 C 398.285156 648.296875 398.105469 647.339844 397.925781 646.351562 C 397.019531 639.949219 397.21875 633.492188 397.230469 627.039062 C 397.230469 625.566406 397.226562 624.089844 397.222656 622.617188 C 397.21875 618.632812 397.222656 614.648438 397.226562 610.660156 C 397.226562 606.484375 397.226562 602.304688 397.222656 598.128906 C 397.222656 591.117188 397.222656 584.105469 397.230469 577.09375 C 397.234375 568.988281 397.234375 560.886719 397.226562 552.785156 C 397.222656 545.820312 397.222656 538.855469 397.222656 531.890625 C 397.226562 527.734375 397.226562 523.578125 397.222656 519.421875 C 397.21875 515.515625 397.222656 511.613281 397.226562 507.707031 C 397.230469 505.59375 397.226562 503.480469 397.222656 501.363281 C 397.226562 499.472656 397.226562 499.472656 397.234375 497.539062 C 397.234375 496.445312 397.234375 495.351562 397.234375 494.226562 C 397.367188 491.300781 397.804688 488.625 398.460938 485.777344 C 397.382812 486.136719 396.304688 486.496094 395.191406 486.867188 C 393.226562 486.964844 391.261719 487 389.296875 487 C 387.460938 487 387.460938 487 385.585938 487.003906 C 383.570312 486.996094 383.570312 486.996094 381.515625 486.992188 C 379.394531 486.992188 379.394531 486.992188 377.230469 486.992188 C 373.347656 486.992188 369.46875 486.984375 365.589844 486.976562 C 361.535156 486.972656 357.484375 486.96875 353.429688 486.96875 C 345.753906 486.964844 338.074219 486.957031 330.398438 486.945312 C 321.660156 486.933594 312.917969 486.929688 304.179688 486.921875 C 286.199219 486.910156 268.222656 486.890625 250.242188 486.867188 C 249.574219 488.082031 248.902344 489.296875 248.214844 490.546875 C 246.28125 494.054688 244.429688 496.035156 240.976562 498.175781 C 239.746094 498.960938 239.746094 498.960938 238.492188 499.765625 C 232.007812 503.167969 224.917969 502.898438 218.023438 500.898438 C 211.050781 498.300781 206.277344 494.359375 202.902344 487.683594 C 200.035156 480.332031 200 472.320312 203.113281 465.019531 C 206.566406 459.59375 211.71875 455.535156 217.34375 452.539062 C 225.683594 451.230469 234.15625 450.640625 241.523438 455.261719 Z M 382.113281 660.152344 C 381.394531 660.871094 380.675781 661.589844 379.933594 662.332031 C 381.011719 662.332031 382.089844 662.332031 383.203125 662.332031 C 382.84375 661.613281 382.484375 660.894531 382.113281 660.152344 Z M 382.113281 660.152344 "/><path style=" stroke:none;fill-rule:nonzero;fill:#009cf6;fill-opacity:1;" d="M 509.625 284.15625 C 513.023438 287.335938 513.808594 290.449219 513.984375 295.054688 C 511.792969 303.972656 506.609375 310.675781 498.824219 315.578125 C 490.574219 319.867188 483.113281 322.011719 473.929688 322.941406 C 463.925781 324 455.414062 325.875 448.183594 333.335938 C 439.65625 345.023438 440.375 357.929688 440.429688 371.691406 C 440.445312 386.234375 439.679688 398.703125 428.996094 409.664062 C 420.921875 417.019531 412.570312 419.375 401.730469 419.296875 C 393.523438 418.171875 386.132812 415.058594 379.933594 409.488281 C 378.710938 407.324219 378.710938 407.324219 377.753906 405.128906 C 376.128906 402.4375 376.128906 402.4375 374.484375 399.761719 C 371.480469 393.53125 370.871094 387.488281 370.679688 380.6875 C 370.605469 378.925781 370.535156 377.164062 370.460938 375.398438 C 370.359375 372.660156 370.261719 369.917969 370.175781 367.179688 C 369.734375 353.703125 369.023438 342.105469 359.253906 331.824219 C 351.535156 325.191406 343.058594 323.675781 333.207031 322.914062 C 319.445312 321.5 309.535156 318.613281 299.890625 308.070312 C 295.878906 303.058594 293.949219 298.222656 293.835938 291.785156 C 295.476562 287.445312 297.558594 284.582031 301.464844 281.976562 C 305.820312 281.265625 310.394531 280.933594 314.375 283.046875 C 316.8125 285.070312 318.882812 287.40625 321.015625 289.742188 C 326.605469 294.824219 333.078125 295.542969 340.289062 296.078125 C 354.652344 297.460938 365.5 300.84375 376.664062 310.3125 C 377.460938 310.960938 378.257812 311.609375 379.078125 312.28125 C 388.929688 321.09375 394.488281 334.1875 395.324219 347.273438 C 395.617188 353.917969 395.683594 360.570312 395.769531 367.222656 C 395.808594 369.761719 395.855469 372.300781 395.90625 374.839844 C 395.914062 375.996094 395.914062 375.996094 395.925781 377.179688 C 396.011719 381.492188 396.40625 384.953125 398.460938 388.78125 C 401.242188 390.390625 402.953125 391.078125 406.15625 390.6875 C 410.773438 389.101562 410.773438 389.101562 413.71875 385.511719 C 413.847656 383.023438 413.914062 380.535156 413.949219 378.046875 C 413.980469 376.492188 414.011719 374.941406 414.042969 373.386719 C 414.085938 370.960938 414.125 368.535156 414.15625 366.109375 C 414.417969 346.121094 416.402344 326.625 430.875 311.4375 C 443.011719 300.519531 456.386719 296.964844 472.191406 295.191406 C 477.457031 294.5625 481.261719 293.910156 485.648438 290.695312 C 486.433594 290.359375 487.222656 290.019531 488.03125 289.675781 C 490.527344 288.210938 490.980469 286.730469 492.1875 284.15625 C 498.550781 279.914062 503.082031 280.722656 509.625 284.15625 Z M 509.625 284.15625 "/><path style=" stroke:none;fill-rule:nonzero;fill:#00a9fc;fill-opacity:1;" d="M 97.371094 506.894531 C 103.230469 511.089844 106.191406 515.832031 107.472656 522.832031 C 108.847656 522.832031 110.222656 522.828125 111.636719 522.828125 C 144.226562 522.777344 176.816406 522.742188 209.410156 522.722656 C 213.417969 522.71875 217.425781 522.714844 221.433594 522.710938 C 222.230469 522.710938 223.027344 522.710938 223.851562 522.710938 C 236.785156 522.703125 249.71875 522.683594 262.652344 522.664062 C 275.917969 522.644531 289.179688 522.632812 302.445312 522.628906 C 310.632812 522.625 318.824219 522.613281 327.011719 522.597656 C 333.285156 522.585938 339.554688 522.582031 345.828125 522.585938 C 348.40625 522.585938 350.984375 522.582031 353.5625 522.574219 C 357.070312 522.5625 360.578125 522.5625 364.085938 522.570312 C 365.117188 522.5625 366.152344 522.558594 367.214844 522.550781 C 368.148438 522.554688 369.082031 522.558594 370.046875 522.5625 C 370.855469 522.5625 371.667969 522.5625 372.5 522.5625 C 374.484375 522.832031 374.484375 522.832031 376.664062 525.011719 C 376.304688 525.730469 375.945312 526.449219 375.574219 527.191406 C 376.292969 527.191406 377.011719 527.191406 377.753906 527.191406 C 377.394531 527.910156 377.035156 528.628906 376.664062 529.371094 C 376.414062 531.957031 376.214844 534.546875 376.050781 537.136719 C 375.960938 538.53125 375.867188 539.929688 375.773438 541.367188 C 375.707031 542.445312 375.640625 543.519531 375.574219 544.628906 C 376.292969 544.628906 377.011719 544.628906 377.753906 544.628906 C 377.394531 545.347656 377.035156 546.066406 376.664062 546.808594 C 376.496094 549.261719 376.390625 551.71875 376.320312 554.175781 C 376.285156 555.257812 376.285156 555.257812 376.25 556.363281 C 376.179688 558.671875 376.113281 560.984375 376.050781 563.292969 C 376.003906 564.859375 375.957031 566.421875 375.910156 567.988281 C 375.792969 571.828125 375.679688 575.664062 375.574219 579.503906 C 376.292969 579.863281 377.011719 580.222656 377.753906 580.59375 C 377.035156 580.59375 376.316406 580.59375 375.574219 580.59375 C 375.933594 592.101562 376.292969 603.613281 376.664062 615.46875 C 378.820312 616.546875 380.980469 617.628906 383.203125 618.738281 C 385.195312 620.773438 385.195312 620.773438 386.746094 622.960938 C 387.269531 623.679688 387.789062 624.394531 388.328125 625.132812 C 392.257812 631.59375 392.746094 637.472656 391.921875 644.894531 C 389.996094 651.628906 385.804688 656.441406 379.933594 660.152344 C 374.148438 662.910156 367.808594 664.679688 361.40625 663.421875 C 353.03125 660.417969 347.507812 656.5625 343.628906 648.4375 C 342.03125 640.878906 341.875 634.097656 345.785156 627.257812 C 350.03125 621.472656 355.011719 618.667969 361.40625 615.46875 C 361.765625 589.574219 362.125 563.679688 362.496094 537 C 277.617188 537 192.742188 537 105.292969 537 C 104.574219 539.160156 103.855469 541.316406 103.113281 543.539062 C 99.011719 548.625 93.203125 552.273438 86.765625 553.347656 C 79.09375 553.777344 71.53125 554.007812 65.308594 548.988281 C 59.703125 543.042969 56.394531 535.378906 56.25 527.191406 C 57.726562 519.363281 61.570312 512.023438 68.027344 507.191406 C 77.566406 501.5 87.714844 501.542969 97.371094 506.894531 Z M 97.371094 506.894531 "/><path style=" stroke:none;fill-rule:nonzero;fill:#009bf5;fill-opacity:1;" d="M 239.070312 214.132812 C 241.824219 216.886719 242.941406 218.21875 243.703125 222.035156 C 243.34375 227.039062 242.660156 230.738281 239.003906 234.296875 C 238.035156 234.925781 237.070312 235.554688 236.074219 236.203125 C 231.125 240.691406 228.742188 243.9375 228.113281 250.667969 C 228.046875 254.246094 227.992188 257.828125 227.980469 261.410156 C 227.96875 263.699219 227.914062 265.988281 227.859375 268.28125 C 227.757812 276.808594 228.179688 283.964844 233.894531 290.695312 C 240.179688 295.902344 246.503906 295.171875 254.355469 294.9375 C 259.207031 295.101562 261.015625 296.019531 264.410156 299.414062 C 266.96875 302.671875 267.050781 306.195312 266.933594 310.28125 C 266.175781 315.148438 263.40625 318.160156 259.574219 321.007812 C 251.433594 324.777344 242.109375 323.695312 233.675781 321.316406 C 221.277344 316.601562 212.320312 308.179688 206.648438 296.144531 C 203.78125 287.917969 202.789062 280.023438 202.5625 271.351562 C 202.527344 270.210938 202.488281 269.066406 202.453125 267.890625 C 202.085938 254.019531 202.511719 241.632812 207.738281 228.574219 C 208.144531 227.554688 208.550781 226.535156 208.96875 225.484375 C 209.28125 224.707031 209.59375 223.925781 209.917969 223.125 C 210.636719 223.125 211.355469 223.125 212.097656 223.125 C 212.34375 222.496094 212.59375 221.867188 212.847656 221.21875 C 216.109375 215.625 221.164062 213.457031 227.128906 211.65625 C 231.988281 210.605469 234.949219 211.511719 239.070312 214.132812 Z M 239.070312 214.132812 "/><path style=" stroke:none;fill-rule:nonzero;fill:#009af3;fill-opacity:1;" d="M 592.261719 215.738281 C 599.320312 221.503906 604.472656 231.597656 605.875 240.582031 C 606.042969 242.84375 606.125 245.089844 606.164062 247.355469 C 606.191406 248.183594 606.214844 249.011719 606.242188 249.863281 C 606.289062 251.605469 606.328125 253.34375 606.363281 255.085938 C 606.417969 257.707031 606.5 260.328125 606.585938 262.945312 C 607.058594 280.046875 605.75 296.347656 593.484375 309.429688 C 584.640625 318.007812 574.929688 322.859375 562.523438 323.46875 C 555.816406 323.28125 550.398438 321.800781 545.589844 316.851562 C 543.367188 312.828125 542.851562 309.417969 543.410156 304.863281 C 545.71875 300.15625 548.105469 297.414062 553.089844 295.53125 C 555.910156 294.949219 558.449219 295.0625 561.324219 295.191406 C 566.671875 295.324219 569.992188 294.535156 574.300781 291.328125 C 580.960938 284.96875 581.269531 277.078125 581.519531 268.230469 C 581.582031 263.316406 581.542969 258.414062 581.351562 253.503906 C 581.332031 252.742188 581.3125 251.984375 581.292969 251.199219 C 580.984375 245.789062 579.496094 242.566406 576.105469 238.382812 C 573.953125 236.890625 571.773438 235.433594 569.566406 234.023438 C 565.8125 229.925781 565.738281 226.769531 565.914062 221.394531 C 566.464844 217.605469 567.785156 215.800781 570.65625 213.316406 C 577.703125 209.007812 585.683594 211.820312 592.261719 215.738281 Z M 592.261719 215.738281 "/><path style=" stroke:none;fill-rule:nonzero;fill:#009af4;fill-opacity:1;" d="M 498.726562 126.128906 C 505.621094 133.488281 510.382812 141.640625 510.917969 151.808594 C 510.816406 153.125 510.816406 153.125 510.714844 154.464844 C 511.792969 155.003906 511.792969 155.003906 512.894531 155.554688 C 511.523438 172.136719 509.707031 186.207031 496.511719 197.828125 C 487.574219 204.402344 475.945312 207.121094 464.941406 205.6875 C 459.828125 203.886719 456.839844 201.632812 454.042969 196.96875 C 452.800781 193.160156 452.351562 189.886719 453.753906 186.070312 C 455.632812 182.601562 457.285156 180.640625 460.582031 178.441406 C 464.503906 177.507812 468.09375 177.355469 472.09375 177.488281 C 476.398438 177.53125 479.03125 177.011719 482.378906 174.082031 C 483.335938 171.808594 483.335938 171.808594 483.46875 169.722656 C 484.1875 169.722656 484.90625 169.722656 485.648438 169.722656 C 486.359375 158.082031 486.359375 158.082031 481.289062 147.925781 C 477.988281 145.804688 474.925781 145.351562 471.070312 144.859375 C 465.253906 143.886719 462.445312 142.371094 458.402344 138.117188 C 456.363281 134.039062 456.734375 129.480469 457.3125 125.039062 C 458.84375 121.359375 461.167969 119.230469 464.847656 117.546875 C 476.960938 114.023438 489.164062 118.589844 498.726562 126.128906 Z M 498.726562 126.128906 "/><path style=" stroke:none;fill-rule:nonzero;fill:#009af4;fill-opacity:1;" d="M 349.417969 121.769531 C 351.976562 125.027344 352.050781 128.546875 351.949219 132.632812 C 351.367188 136.28125 349.5625 138.601562 347.238281 141.386719 C 343.671875 143.765625 341.75 144.007812 337.566406 144.519531 C 330.636719 145.605469 330.636719 145.605469 325.441406 150.105469 C 322.59375 157.027344 322.023438 164.199219 324.625 171.222656 C 327.226562 175.121094 329.132812 176.878906 333.683594 178.101562 C 338.015625 178.496094 342.253906 178.417969 346.601562 178.265625 C 349.652344 178.457031 351.253906 178.917969 353.777344 180.621094 C 356.394531 183.882812 358.152344 187.429688 358.117188 191.660156 C 357.039062 196.964844 354.84375 200.15625 350.507812 203.507812 C 343.644531 207.023438 334.945312 206.707031 327.609375 204.863281 C 316.324219 200.953125 307.5 194.296875 301.464844 183.890625 C 295.484375 169.949219 296.070312 155.714844 300.375 141.386719 C 304.632812 131.464844 312.039062 123.714844 321.832031 119.113281 C 331.433594 115.367188 341.21875 114.769531 349.417969 121.769531 Z M 349.417969 121.769531 "/><path style=" stroke:none;fill-rule:nonzero;fill:#009af3;fill-opacity:1;" d="M 285.117188 144.65625 C 288.582031 146.597656 290.125 147.609375 291.316406 151.398438 C 291.484375 152.378906 291.484375 152.378906 291.65625 153.375 C 292.375 153.734375 293.09375 154.09375 293.835938 154.464844 C 293.835938 156.261719 293.835938 158.0625 293.835938 159.914062 C 293.117188 159.914062 292.398438 159.914062 291.65625 159.914062 C 291.566406 160.589844 291.476562 161.261719 291.382812 161.957031 C 290.566406 164.273438 290.566406 164.273438 288.320312 165.636719 C 287.621094 165.90625 286.925781 166.175781 286.207031 166.453125 C 286.207031 167.171875 286.207031 167.890625 286.207031 168.632812 C 285.488281 168.632812 284.769531 168.632812 284.027344 168.632812 C 284.027344 169.351562 284.027344 170.070312 284.027344 170.8125 C 283.328125 171.433594 282.625 172.050781 281.902344 172.691406 C 277.015625 178.117188 278.492188 187.414062 278.6875 194.351562 C 279.054688 200.277344 279.535156 205.605469 281.847656 211.136719 C 286.996094 213.824219 290.460938 213.269531 296.082031 212.160156 C 300.421875 211.3125 302.160156 211.003906 306.4375 212.429688 C 307.3125 213.082031 308.191406 213.734375 309.09375 214.40625 C 309.746094 214.832031 310.398438 215.261719 311.070312 215.699219 C 313.234375 219.007812 313.5625 222.535156 313.453125 226.394531 C 311.574219 232.03125 308.488281 235.03125 303.644531 238.382812 C 295.207031 241.792969 284.882812 241.839844 276.398438 238.382812 C 265.796875 232.710938 260.328125 225.726562 255.671875 214.792969 C 250.625 197.53125 251.210938 174.058594 259.164062 157.9375 C 265.429688 147.453125 273.164062 143.398438 285.117188 144.65625 Z M 285.117188 144.65625 "/><path style=" stroke:none;fill-rule:nonzero;fill:#009bf5;fill-opacity:1;" d="M 540.050781 146.734375 C 546.941406 150.992188 550.453125 158.179688 553.558594 165.433594 C 557.421875 181.933594 558.84375 207.011719 550.289062 222.105469 C 543.851562 231.609375 536.847656 236.9375 525.972656 240.5625 C 517.007812 241.40625 508.925781 240.476562 500.90625 236.203125 C 497.957031 233.644531 496.703125 232.3125 495.457031 228.574219 C 495.167969 224.082031 495.027344 220.992188 496.613281 216.789062 C 499.53125 213.496094 502.167969 212.414062 506.355469 211.136719 C 509.558594 211.410156 509.558594 211.410156 512.894531 212.226562 C 517.210938 213.113281 520.605469 213.722656 524.816406 212.023438 C 527.238281 209.890625 527.824219 208.851562 528.152344 205.6875 C 528.871094 205.6875 529.589844 205.6875 530.332031 205.6875 C 530.425781 201.304688 530.484375 196.925781 530.535156 192.542969 C 530.5625 191.304688 530.589844 190.070312 530.621094 188.796875 C 530.679688 181.980469 530.632812 176.722656 527.0625 170.8125 C 525.183594 169.058594 525.183594 169.058594 523.042969 168.15625 C 521.851562 167.59375 520.660156 167.03125 519.433594 166.453125 C 519.074219 167.171875 518.714844 167.890625 518.34375 168.632812 C 514.867188 156.023438 514.867188 156.023438 517.867188 149.902344 C 524.460938 142.292969 531.601562 142.742188 540.050781 146.734375 Z M 540.050781 146.734375 "/><path style=" stroke:none;fill-rule:nonzero;fill:#009cf6;fill-opacity:1;" d="M 473.660156 218.222656 C 480.433594 223.867188 486.195312 229.878906 488.917969 238.382812 C 488.917969 239.460938 488.917969 240.542969 488.917969 241.652344 C 489.636719 242.011719 490.355469 242.371094 491.097656 242.742188 C 491.195312 246.398438 491.25 250.054688 491.300781 253.710938 C 491.328125 254.738281 491.355469 255.765625 491.386719 256.824219 C 491.453125 263.171875 491.011719 267.707031 487.828125 273.257812 C 484.261719 276.5625 480.703125 277.617188 475.839844 277.617188 C 475.300781 278.695312 475.300781 278.695312 474.75 279.796875 C 473.625 279.617188 472.503906 279.4375 471.34375 279.253906 C 462.515625 278.164062 452.484375 277.105469 444.234375 280.886719 C 441.648438 283.421875 441.648438 283.421875 439.398438 286.40625 C 434.90625 291.613281 434.90625 291.613281 430.476562 293.214844 C 425.167969 292.722656 421.066406 291.378906 417.125 287.699219 C 414.964844 283.378906 414.339844 279.78125 415.375 275.007812 C 418.195312 266.628906 423.554688 261.09375 431.195312 256.734375 C 434.222656 255.351562 436.53125 254.730469 439.875 254.730469 C 440.234375 254.011719 440.59375 253.292969 440.964844 252.550781 C 448.878906 252.191406 456.789062 251.832031 464.941406 251.460938 C 461.667969 243.96875 461.667969 243.96875 456.632812 239.335938 C 453.007812 236.425781 451.339844 234.460938 450.773438 229.664062 C 451.394531 225.265625 452.480469 221.433594 455.660156 218.222656 C 461.753906 214.195312 467.375 215.078125 473.660156 218.222656 Z M 473.660156 218.222656 "/><path style=" stroke:none;fill-rule:nonzero;fill:#009cf6;fill-opacity:1;" d="M 353.503906 218.289062 C 356.769531 221.824219 357.902344 224.867188 358.136719 229.664062 C 356.550781 236.121094 353.449219 238.910156 348.152344 242.777344 C 345.40625 245.714844 344.855469 248.6875 343.96875 252.550781 C 345.3125 252.5 346.65625 252.449219 348.039062 252.398438 C 361.484375 252.042969 373.710938 252.535156 384.5625 261.53125 C 389.175781 266.164062 392.992188 271.28125 394.167969 277.820312 C 394.09375 282.460938 393.476562 284.726562 390.832031 288.515625 C 386.765625 291.789062 382.9375 292.695312 377.753906 292.875 C 372.105469 290.992188 369.707031 288.222656 366.855469 283.066406 C 366.855469 282.347656 366.855469 281.628906 366.855469 280.886719 C 358.167969 278.167969 349.9375 278.632812 340.917969 278.984375 C 333.347656 279.140625 328.585938 278.476562 322.171875 274.347656 C 316.335938 266.816406 317.25 257.371094 318.109375 248.324219 C 319.691406 237.851562 324.066406 228.167969 331.980469 220.945312 C 339.144531 215.835938 345.460938 213.71875 353.503906 218.289062 Z M 353.503906 218.289062 "/><path style=" stroke:none;fill-rule:nonzero;fill:#009af3;fill-opacity:1;" d="M 384.292969 146.835938 C 392.058594 155.167969 396.25 163.722656 396.539062 175.1875 C 396.582031 176.777344 396.582031 176.777344 396.625 178.398438 C 396.652344 179.53125 396.675781 180.664062 396.703125 181.832031 C 396.730469 183.007812 396.757812 184.1875 396.785156 185.402344 C 396.84375 187.894531 396.898438 190.386719 396.949219 192.875 C 397.03125 196.667969 397.128906 200.457031 397.226562 204.25 C 397.28125 206.675781 397.332031 209.101562 397.382812 211.527344 C 397.414062 212.652344 397.445312 213.777344 397.480469 214.933594 C 397.589844 221.375 397.605469 227.949219 395.191406 234.023438 C 390.683594 237.480469 386.597656 237.992188 381.023438 237.292969 C 377.542969 235.519531 375.207031 234.183594 373.234375 230.769531 C 371.84375 225.855469 371.980469 221.0625 371.96875 215.976562 C 371.941406 213.691406 371.914062 211.402344 371.886719 209.117188 C 371.855469 205.523438 371.828125 201.933594 371.808594 198.339844 C 371.785156 194.863281 371.742188 191.390625 371.695312 187.914062 C 371.695312 186.84375 371.695312 185.773438 371.695312 184.671875 C 371.613281 178.878906 371.214844 174.71875 367.945312 169.722656 C 366.042969 168.082031 366.042969 168.082031 363.925781 167.132812 C 362.734375 166.550781 361.542969 165.964844 360.316406 165.363281 C 360.316406 164.644531 360.316406 163.925781 360.316406 163.183594 C 359.597656 163.183594 358.878906 163.183594 358.136719 163.183594 C 355.375 159.042969 355.484375 154.898438 355.957031 150.105469 C 357.1875 146.3125 359.09375 144.515625 362.496094 142.476562 C 369.414062 139.90625 378.433594 142.886719 384.292969 146.835938 Z M 384.292969 146.835938 "/><path style=" stroke:none;fill-rule:nonzero;fill:#009bf5;fill-opacity:1;" d="M 445.324219 142.476562 C 448.527344 145.203125 448.527344 145.203125 450.773438 147.925781 C 451.3125 148.464844 451.3125 148.464844 451.863281 149.015625 C 452.34375 153.488281 452.316406 157.578125 450.773438 161.820312 C 448.144531 164.78125 445.324219 166.492188 441.878906 168.402344 C 439.019531 170.285156 437.867188 172.320312 437.023438 175.601562 C 436.625 178.300781 436.464844 180.835938 436.449219 183.558594 C 436.4375 185.03125 436.4375 185.03125 436.425781 186.535156 C 436.421875 187.582031 436.417969 188.632812 436.414062 189.710938 C 436.386719 191.949219 436.363281 194.183594 436.335938 196.421875 C 436.296875 199.933594 436.265625 203.449219 436.25 206.960938 C 436.234375 210.363281 436.191406 213.761719 436.140625 217.160156 C 436.144531 218.207031 436.144531 219.253906 436.148438 220.328125 C 436.035156 226.503906 435.394531 230.285156 431.15625 235.113281 C 427.546875 237.363281 427.546875 237.363281 423.527344 238.382812 C 419.238281 237.097656 415.144531 235.6875 412.628906 231.84375 C 410.445312 224.832031 410.1875 218.523438 410.359375 211.214844 C 410.378906 210.089844 410.398438 208.96875 410.417969 207.8125 C 410.464844 205.445312 410.515625 203.082031 410.570312 200.714844 C 410.652344 197.125 410.707031 193.53125 410.757812 189.941406 C 410.804688 187.632812 410.855469 185.324219 410.90625 183.015625 C 410.917969 181.953125 410.933594 180.894531 410.945312 179.800781 C 411.269531 168.347656 414.070312 157.871094 422 149.316406 C 428.945312 142.875 436.011719 140.035156 445.324219 142.476562 Z M 445.324219 142.476562 "/><path style=" stroke:none;fill-rule:nonzero;fill:#0099f3;fill-opacity:1;" d="M 430.871094 99.246094 C 436.894531 103.6875 441.023438 109.082031 443.144531 116.320312 C 443.441406 121.566406 442.84375 125.039062 439.738281 129.332031 C 436.046875 131.980469 433.492188 133.136719 428.976562 133.757812 C 423.164062 132.082031 420.453125 129.886719 416.988281 125.039062 C 412.894531 120.648438 410.761719 118.6875 404.660156 118.226562 C 400.078125 118.539062 397.894531 119.1875 394.101562 121.769531 C 393.042969 123.195312 392.023438 124.652344 391.035156 126.128906 C 388.007812 130.417969 385.273438 132.210938 380.199219 133.527344 C 376.011719 133.921875 373.597656 132.734375 370.125 130.488281 C 366.898438 126.929688 365.515625 124.265625 365.425781 119.523438 C 365.539062 118.105469 365.648438 116.691406 365.765625 115.230469 C 365.867188 113.746094 365.867188 113.746094 365.96875 112.234375 C 367.222656 108.761719 369.347656 107.574219 372.304688 105.421875 C 373.136719 104.546875 373.96875 103.667969 374.824219 102.765625 C 390.753906 87.578125 412.816406 87.765625 430.871094 99.246094 Z M 430.871094 99.246094 "/><path style=" stroke:none;fill-rule:nonzero;fill:#009cf6;fill-opacity:1;" d="M 528.152344 325.570312 C 531.101562 327.964844 533 329.816406 534.691406 333.199219 C 535.347656 339.773438 534.078125 344.242188 530.332031 349.546875 C 522.171875 358.691406 511.753906 364.21875 499.472656 364.957031 C 496.542969 365.070312 493.621094 365.113281 490.6875 365.144531 C 489.699219 365.175781 488.710938 365.207031 487.691406 365.242188 C 481.074219 365.304688 475.828125 364.417969 470.390625 360.445312 C 467.167969 356.875 466.015625 353.742188 466.097656 348.867188 C 467.492188 343.847656 468.796875 340.953125 472.980469 337.761719 C 478.964844 335.800781 484.851562 336.21875 491.097656 336.46875 C 491.097656 336.828125 491.097656 337.1875 491.097656 337.558594 C 497.117188 337.933594 502.160156 337.390625 507.445312 334.289062 C 509.308594 332.4375 510.882812 330.546875 512.433594 328.425781 C 516.792969 323.457031 522.207031 323.894531 528.152344 325.570312 Z M 528.152344 325.570312 "/><path style=" stroke:none;fill-rule:nonzero;fill:#009cf5;fill-opacity:1;" d="M 291.65625 325.570312 C 294.953125 327.667969 296.921875 329.6875 299.285156 332.789062 C 301.847656 335.832031 303.054688 336.636719 306.914062 337.558594 C 313.644531 338.148438 313.644531 338.148438 319.992188 336.46875 C 326.757812 336.003906 331.210938 337.074219 337.429688 339.738281 C 337.429688 340.457031 337.429688 341.175781 337.429688 341.917969 C 338.148438 341.917969 338.867188 341.917969 339.609375 341.917969 C 342.253906 351.542969 342.253906 351.542969 340.425781 356.5625 C 339.796875 357.484375 339.167969 358.40625 338.519531 359.355469 C 337.800781 360.433594 337.082031 361.515625 336.339844 362.625 C 329.914062 365.160156 322.65625 365.226562 315.835938 365.214844 C 314.410156 365.210938 314.410156 365.210938 312.953125 365.207031 C 305.214844 365.0625 298.730469 363.660156 291.65625 360.445312 C 290.832031 360.132812 290.007812 359.816406 289.160156 359.492188 C 281.835938 356.417969 277.257812 350.242188 274.21875 343.007812 C 273.519531 338.558594 273.203125 334.0625 275.324219 329.984375 C 280.011719 324.15625 284.710938 323.8125 291.65625 325.570312 Z M 291.65625 325.570312 "/><path style=" stroke:none;fill-rule:nonzero;fill:#009df7;fill-opacity:1;" d="M 527.0625 251.460938 C 528.648438 252 528.648438 252 530.265625 252.550781 C 536.921875 254.722656 542.484375 254.078125 548.859375 251.460938 C 553.164062 250.921875 556.597656 251.070312 560.644531 252.6875 C 563.726562 255.332031 564.964844 257.425781 566.296875 261.269531 C 566.113281 266.464844 565.230469 270.289062 561.9375 274.347656 C 551.566406 282.238281 537.304688 281.222656 524.882812 280.886719 C 524.882812 280.167969 524.882812 279.449219 524.882812 278.707031 C 523.917969 278.617188 522.949219 278.527344 521.953125 278.433594 C 517.714844 277.476562 515.917969 276.363281 512.894531 273.257812 C 510.558594 269.132812 509.625 266.429688 509.625 261.679688 C 510.925781 257.289062 512.671875 255.445312 516.164062 252.550781 C 519.625 250.820312 523.285156 251.15625 527.0625 251.460938 Z M 527.0625 251.460938 "/><path style=" stroke:none;fill-rule:nonzero;fill:#009af3;fill-opacity:1;" d="M 291.65625 252.550781 C 295.632812 256.019531 296.816406 259.433594 297.210938 264.550781 C 296.96875 269.488281 294.699219 272.460938 291.179688 275.710938 C 285.054688 279.890625 279.945312 280.199219 272.671875 280.414062 C 270.640625 280.5 268.613281 280.6875 266.589844 280.886719 C 266.230469 281.605469 265.871094 282.324219 265.5 283.066406 C 265.140625 281.988281 264.78125 280.910156 264.410156 279.796875 C 262.253906 280.15625 260.09375 280.515625 257.871094 280.886719 C 257.871094 280.167969 257.871094 279.449219 257.871094 278.707031 C 256.925781 278.640625 255.984375 278.574219 255.011719 278.503906 C 249.78125 277.246094 246.527344 274.453125 243.292969 270.191406 C 242.21875 266.429688 241.871094 262.917969 242.613281 259.089844 C 244.519531 255.796875 246.789062 253.1875 250.242188 251.460938 C 256.09375 251.167969 259.9375 251.785156 265.5 253.640625 C 270.601562 254.050781 273.910156 253.929688 278.578125 251.871094 C 283.371094 249.890625 287.007812 250.304688 291.65625 252.550781 Z M 291.65625 252.550781 "/><path style=" stroke:none;fill-rule:nonzero;fill:#07649b;fill-opacity:1;" d="M 105.292969 537 C 190.171875 537 275.046875 537 362.496094 537 C 362.496094 562.894531 362.496094 588.789062 362.496094 615.46875 C 360.699219 616.546875 358.898438 617.628906 357.046875 618.738281 C 350.707031 622.742188 346.074219 626.585938 343.96875 633.996094 C 342.8125 641.449219 343.859375 648.511719 348.328125 654.703125 C 354.222656 659.769531 359.769531 662.707031 367.675781 662.5625 C 375.703125 661.808594 382.257812 658.605469 387.5625 652.523438 C 391.347656 646.296875 391.773438 640.015625 390.832031 632.90625 C 389.171875 628.019531 386.503906 623.789062 383.203125 619.828125 C 388.507812 622.097656 390.675781 625.566406 393.011719 630.726562 C 394.027344 634.695312 394.691406 638.652344 395.191406 642.714844 C 394.472656 642.714844 393.753906 642.714844 393.011719 642.714844 C 392.875 643.660156 392.742188 644.601562 392.601562 645.574219 C 390.929688 654.605469 390.929688 654.605469 387.972656 657.5625 C 383.273438 660.285156 378.550781 662.792969 373.394531 664.511719 C 372.675781 665.230469 371.957031 665.949219 371.214844 666.691406 C 371.214844 665.972656 371.214844 665.253906 371.214844 664.511719 C 370.554688 664.574219 369.894531 664.636719 369.214844 664.703125 C 361.46875 665.121094 355.753906 663.621094 349.417969 659.0625 C 342.671875 652.03125 341.382812 646.113281 341.492188 636.5 C 342.144531 628.632812 345.738281 623.980469 351.625 618.984375 C 353.777344 617.648438 353.777344 617.648438 360.316406 615.46875 C 360.316406 589.933594 360.316406 564.398438 360.316406 538.089844 C 357.4375 538.449219 354.5625 538.808594 351.597656 539.179688 C 348.808594 539.273438 346.015625 539.316406 343.222656 539.320312 C 342.425781 539.320312 341.628906 539.320312 340.808594 539.324219 C 338.164062 539.328125 335.519531 539.324219 332.875 539.320312 C 330.964844 539.324219 329.058594 539.324219 327.148438 539.328125 C 321.972656 539.332031 316.796875 539.328125 311.621094 539.328125 C 306.15625 539.324219 300.691406 539.328125 295.230469 539.328125 C 286.019531 539.328125 276.808594 539.328125 267.597656 539.320312 C 257.066406 539.316406 246.535156 539.316406 236 539.324219 C 226.886719 539.328125 217.773438 539.328125 208.660156 539.328125 C 203.25 539.324219 197.839844 539.324219 192.429688 539.328125 C 164.457031 539.34375 136.523438 538.960938 108.5625 538.089844 C 108.203125 538.808594 107.84375 539.527344 107.472656 540.269531 C 102.261719 547.410156 96.53125 552.421875 87.855469 554.4375 C 82.476562 555.003906 78.464844 554.957031 73.6875 552.257812 C 74.503906 552.308594 75.324219 552.359375 76.164062 552.410156 C 84.695312 552.710938 92.785156 552.191406 99.472656 546.304688 C 101.988281 543.417969 103.578125 540.429688 105.292969 537 Z M 105.292969 537 "/><path style=" stroke:none;fill-rule:nonzero;fill:#057dc7;fill-opacity:1;" d="M 103.113281 514.113281 C 106.308594 516.753906 106.796875 518.820312 107.472656 522.832031 C 108.847656 522.832031 110.222656 522.828125 111.636719 522.828125 C 144.226562 522.777344 176.816406 522.742188 209.410156 522.722656 C 213.417969 522.71875 217.425781 522.714844 221.433594 522.710938 C 222.230469 522.710938 223.027344 522.710938 223.851562 522.710938 C 236.785156 522.703125 249.71875 522.683594 262.652344 522.664062 C 275.917969 522.644531 289.179688 522.632812 302.445312 522.628906 C 310.632812 522.625 318.824219 522.613281 327.011719 522.597656 C 333.285156 522.585938 339.554688 522.582031 345.828125 522.585938 C 348.40625 522.585938 350.984375 522.582031 353.5625 522.574219 C 357.070312 522.5625 360.578125 522.5625 364.085938 522.570312 C 365.117188 522.5625 366.152344 522.558594 367.214844 522.550781 C 368.148438 522.554688 369.082031 522.558594 370.046875 522.5625 C 370.855469 522.5625 371.667969 522.5625 372.5 522.5625 C 374.484375 522.832031 374.484375 522.832031 376.664062 525.011719 C 376.304688 525.730469 375.945312 526.449219 375.574219 527.191406 C 376.292969 527.191406 377.011719 527.191406 377.753906 527.191406 C 377.394531 527.910156 377.035156 528.628906 376.664062 529.371094 C 376.414062 531.957031 376.214844 534.546875 376.050781 537.136719 C 375.960938 538.53125 375.867188 539.929688 375.773438 541.367188 C 375.707031 542.445312 375.640625 543.519531 375.574219 544.628906 C 376.292969 544.628906 377.011719 544.628906 377.753906 544.628906 C 377.394531 545.347656 377.035156 546.066406 376.664062 546.808594 C 376.496094 549.261719 376.390625 551.71875 376.320312 554.175781 C 376.285156 555.257812 376.285156 555.257812 376.25 556.363281 C 376.179688 558.671875 376.113281 560.984375 376.050781 563.292969 C 376.003906 564.859375 375.957031 566.421875 375.910156 567.988281 C 375.792969 571.828125 375.679688 575.664062 375.574219 579.503906 C 376.292969 579.863281 377.011719 580.222656 377.753906 580.59375 C 377.035156 580.59375 376.316406 580.59375 375.574219 580.59375 C 375.933594 592.101562 376.292969 603.613281 376.664062 615.46875 C 378.820312 616.546875 380.980469 617.628906 383.203125 618.738281 C 382.484375 619.097656 381.765625 619.457031 381.023438 619.828125 C 378.507812 618.75 375.988281 617.671875 373.394531 616.558594 C 373.394531 586.347656 373.394531 556.136719 373.394531 525.011719 C 285.640625 525.011719 197.886719 525.011719 107.472656 525.011719 C 103.113281 516.292969 103.113281 516.292969 103.113281 514.113281 Z M 103.113281 514.113281 "/><path style=" stroke:none;fill-rule:nonzero;fill:#0574ba;fill-opacity:1;" d="M 248.0625 484.6875 C 298.414062 484.6875 348.765625 484.6875 400.640625 484.6875 C 400.640625 538.996094 400.640625 593.300781 400.640625 649.253906 C 396.863281 651.414062 396.863281 651.414062 393.011719 653.613281 C 392.292969 653.253906 391.574219 652.894531 390.832031 652.523438 C 394.78125 649.253906 394.78125 649.253906 398.460938 649.253906 C 398.285156 648.296875 398.105469 647.339844 397.925781 646.351562 C 397.019531 639.949219 397.21875 633.492188 397.230469 627.039062 C 397.230469 625.566406 397.226562 624.089844 397.222656 622.617188 C 397.21875 618.632812 397.222656 614.648438 397.226562 610.660156 C 397.226562 606.484375 397.226562 602.304688 397.222656 598.128906 C 397.222656 591.117188 397.222656 584.105469 397.230469 577.09375 C 397.234375 568.988281 397.234375 560.886719 397.226562 552.785156 C 397.222656 545.820312 397.222656 538.855469 397.222656 531.890625 C 397.226562 527.734375 397.226562 523.578125 397.222656 519.421875 C 397.21875 515.515625 397.222656 511.613281 397.226562 507.707031 C 397.230469 505.59375 397.226562 503.480469 397.222656 501.363281 C 397.226562 500.101562 397.230469 498.839844 397.234375 497.539062 C 397.234375 495.898438 397.234375 495.898438 397.234375 494.226562 C 397.367188 491.300781 397.804688 488.625 398.460938 485.777344 C 397.382812 486.136719 396.304688 486.496094 395.191406 486.867188 C 393.234375 486.953125 391.277344 486.976562 389.316406 486.960938 C 388.097656 486.957031 386.878906 486.949219 385.621094 486.941406 C 384.285156 486.929688 382.945312 486.917969 381.566406 486.90625 C 379.402344 486.890625 377.242188 486.878906 375.078125 486.867188 C 372.753906 486.851562 370.425781 486.832031 368.101562 486.816406 C 363.257812 486.78125 358.414062 486.757812 353.566406 486.738281 C 352.75 486.734375 351.933594 486.730469 351.089844 486.726562 C 349.417969 486.722656 347.746094 486.714844 346.078125 486.707031 C 334.796875 486.660156 323.515625 486.605469 312.238281 486.515625 C 304.628906 486.457031 297.023438 486.417969 289.414062 486.398438 C 285.386719 486.390625 281.359375 486.367188 277.332031 486.324219 C 272.84375 486.277344 268.355469 486.269531 263.867188 486.265625 C 262.527344 486.246094 261.191406 486.222656 259.8125 486.203125 C 258.59375 486.207031 257.371094 486.214844 256.117188 486.21875 C 255.054688 486.214844 253.992188 486.207031 252.898438 486.199219 C 249.957031 486.636719 249.957031 486.636719 248.242188 489.632812 C 247.820312 490.519531 247.402344 491.402344 246.972656 492.316406 C 246.613281 491.597656 246.253906 490.878906 245.882812 490.136719 C 246.601562 488.339844 247.320312 486.539062 248.0625 484.6875 Z M 248.0625 484.6875 "/><path style=" stroke:none;fill-rule:nonzero;fill:#0370ba;fill-opacity:1;" d="M 580.464844 454.171875 C 579.230469 454.621094 577.992188 455.070312 576.71875 455.535156 C 572.726562 456.929688 572.726562 456.929688 572.085938 459.621094 C 571.972656 460.339844 571.863281 461.058594 571.746094 461.800781 C 569.648438 463.628906 567.691406 464.917969 565.207031 466.160156 C 563.589844 469.398438 563.589844 469.398438 561.9375 472.699219 C 459.078125 472.699219 356.21875 472.699219 250.242188 472.699219 C 249.164062 469.460938 248.085938 466.226562 246.972656 462.890625 C 250.242188 466.160156 250.242188 466.160156 252.421875 470.519531 C 354.5625 470.519531 456.703125 470.519531 561.9375 470.519531 C 562.296875 468.722656 562.65625 466.921875 563.027344 465.070312 C 566.335938 458.714844 572.730469 451.394531 580.464844 454.171875 Z M 580.464844 454.171875 "/><path style=" stroke:none;fill-rule:nonzero;fill:#047ac4;fill-opacity:1;" d="M 361.40625 537 C 361.765625 537 362.125 537 362.496094 537 C 362.621094 547.175781 362.71875 557.347656 362.777344 567.523438 C 362.808594 572.25 362.84375 576.972656 362.90625 581.695312 C 362.964844 586.253906 363 590.8125 363.011719 595.371094 C 363.023438 597.109375 363.042969 598.851562 363.070312 600.589844 C 363.113281 603.027344 363.117188 605.460938 363.113281 607.894531 C 363.125 609.28125 363.140625 610.667969 363.152344 612.097656 C 362.496094 615.46875 362.496094 615.46875 359.875 617.488281 C 358.941406 617.898438 358.007812 618.3125 357.046875 618.738281 C 350.707031 622.742188 346.074219 626.585938 343.96875 633.996094 C 342.8125 641.449219 343.859375 648.511719 348.328125 654.703125 C 354.222656 659.769531 359.769531 662.707031 367.675781 662.5625 C 375.703125 661.808594 382.257812 658.605469 387.5625 652.523438 C 391.347656 646.296875 391.773438 640.015625 390.832031 632.90625 C 389.171875 628.019531 386.503906 623.789062 383.203125 619.828125 C 388.507812 622.097656 390.675781 625.566406 393.011719 630.726562 C 394.027344 634.695312 394.691406 638.652344 395.191406 642.714844 C 394.472656 642.714844 393.753906 642.714844 393.011719 642.714844 C 392.875 643.660156 392.742188 644.601562 392.601562 645.574219 C 390.929688 654.605469 390.929688 654.605469 387.972656 657.5625 C 383.273438 660.285156 378.550781 662.792969 373.394531 664.511719 C 372.316406 665.589844 372.316406 665.589844 371.214844 666.691406 C 371.214844 665.972656 371.214844 665.253906 371.214844 664.511719 C 370.554688 664.574219 369.894531 664.636719 369.214844 664.703125 C 361.46875 665.121094 355.753906 663.621094 349.417969 659.0625 C 342.671875 652.03125 341.382812 646.113281 341.492188 636.5 C 342.144531 628.632812 345.738281 623.980469 351.625 618.984375 C 353.777344 617.648438 353.777344 617.648438 360.316406 615.46875 C 360.675781 589.574219 361.035156 563.679688 361.40625 537 Z M 361.40625 537 "/><path style=" stroke:none;fill-rule:nonzero;fill:#0369b9;fill-opacity:1;" d="M 433.335938 309.222656 C 434.054688 309.582031 434.773438 309.941406 435.515625 310.3125 C 434.949219 310.894531 434.382812 311.476562 433.800781 312.074219 C 418.789062 328.109375 417.589844 345.707031 417.601562 366.628906 C 417.574219 385.265625 417.574219 385.265625 412.628906 392.050781 C 408.730469 393.351562 405.828125 393.421875 401.730469 393.140625 C 398.527344 391.507812 398.527344 391.507812 396.28125 389.871094 C 396.820312 388.792969 396.820312 388.792969 397.371094 387.691406 C 398.359375 388.253906 399.347656 388.816406 400.367188 389.394531 C 403.621094 391.175781 403.621094 391.175781 406.226562 390.757812 C 407.238281 390.320312 407.238281 390.320312 408.269531 389.871094 C 409.054688 389.535156 409.84375 389.195312 410.652344 388.851562 C 412.808594 387.828125 412.808594 387.828125 413.71875 385.511719 C 413.847656 383.023438 413.914062 380.535156 413.949219 378.046875 C 413.980469 376.492188 414.011719 374.941406 414.042969 373.386719 C 414.085938 370.960938 414.125 368.535156 414.15625 366.109375 C 414.441406 344.308594 417.289062 325.351562 433.335938 309.222656 Z M 433.335938 309.222656 "/><path style=" stroke:none;fill-rule:nonzero;fill:#0370bc;fill-opacity:1;" d="M 523.453125 324.753906 C 524.3125 324.847656 525.167969 324.945312 526.054688 325.042969 C 526.746094 325.21875 527.4375 325.390625 528.152344 325.570312 C 528.691406 326.648438 528.691406 326.648438 529.242188 327.75 C 528.441406 327.6875 527.636719 327.625 526.8125 327.558594 C 520.011719 327.089844 520.011719 327.089844 514.1875 330.132812 C 513.402344 331.144531 512.617188 332.15625 511.804688 333.199219 C 506.183594 338.539062 502.367188 339.84375 494.710938 339.929688 C 492.925781 339.96875 492.925781 339.96875 491.105469 340.007812 C 488.605469 340.054688 486.109375 340.089844 483.613281 340.109375 C 476.476562 340.210938 476.476562 340.210938 470.078125 343.054688 C 469.15625 344.109375 469.15625 344.109375 468.210938 345.1875 C 469.15625 341.683594 470.027344 340.023438 472.910156 337.761719 C 478.933594 335.824219 484.824219 336.21875 491.097656 336.46875 C 491.097656 336.828125 491.097656 337.1875 491.097656 337.558594 C 497.117188 337.933594 502.160156 337.390625 507.445312 334.289062 C 509.308594 332.4375 510.882812 330.546875 512.433594 328.425781 C 515.679688 324.726562 518.695312 324.15625 523.453125 324.753906 Z M 523.453125 324.753906 "/><path style=" stroke:none;fill-rule:nonzero;fill:#026eba;fill-opacity:1;" d="M 530.265625 252.550781 C 536.921875 254.722656 542.484375 254.078125 548.859375 251.460938 C 553.164062 250.921875 556.597656 251.070312 560.644531 252.6875 C 563.726562 255.332031 564.964844 257.425781 566.296875 261.269531 C 565.957031 265.492188 565.957031 265.492188 565.207031 268.898438 C 564.847656 268.898438 564.488281 268.898438 564.117188 268.898438 C 564.054688 267.914062 564.054688 267.914062 563.992188 266.90625 C 563.683594 263.140625 563.355469 259.859375 561.871094 256.367188 C 558.523438 253.773438 555.140625 253.425781 551.039062 253.640625 C 548.277344 254.382812 545.605469 255.292969 542.898438 256.210938 C 537.445312 257.59375 532.308594 256.480469 527.0625 254.730469 C 521.894531 254.140625 518.355469 254.011719 513.917969 256.910156 C 513.21875 257.628906 512.523438 258.347656 511.804688 259.089844 C 513.367188 254.136719 513.367188 254.136719 515.753906 252.210938 C 520.773438 250.757812 525.382812 250.890625 530.265625 252.550781 Z M 530.265625 252.550781 "/><path style=" stroke:none;fill-rule:nonzero;fill:#047ece;fill-opacity:1;" d="M 231.714844 236.203125 C 232.433594 236.5625 233.152344 236.921875 233.894531 237.292969 C 232.847656 238.507812 232.847656 238.507812 231.78125 239.746094 C 227.058594 246.042969 228.128906 253.757812 228.0625 261.328125 C 228.046875 262.867188 228.015625 264.410156 227.972656 265.953125 C 227.71875 275.484375 228.101562 282.789062 233.894531 290.695312 C 234.253906 291.414062 234.613281 292.132812 234.984375 292.875 C 231.003906 291.511719 229.773438 291.054688 227.355469 287.425781 C 225.082031 279.128906 224.808594 270.707031 224.835938 262.15625 C 224.816406 261.035156 224.800781 259.914062 224.78125 258.761719 C 224.777344 250.1875 225.851562 242.902344 231.714844 236.203125 Z M 231.714844 236.203125 "/><path style=" stroke:none;fill-rule:nonzero;fill:#054c93;fill-opacity:1;" d="M 411.539062 172.992188 C 411.898438 172.992188 412.257812 172.992188 412.628906 172.992188 C 412.636719 173.664062 412.640625 174.332031 412.648438 175.023438 C 412.71875 182.007812 412.808594 188.992188 412.914062 195.976562 C 412.949219 198.582031 412.980469 201.1875 413.007812 203.792969 C 413.042969 207.539062 413.101562 211.285156 413.160156 215.03125 C 413.171875 216.777344 413.171875 216.777344 413.183594 218.558594 C 413.304688 224.78125 413.445312 229.390625 418.078125 234.023438 C 423.992188 234.660156 428.480469 234.515625 433.335938 230.753906 C 432.207031 234.386719 431.007812 235.203125 427.683594 237.226562 C 423.527344 238.382812 423.527344 238.382812 419.441406 237.15625 C 413.15625 233.53125 413.15625 233.53125 411.457031 228.101562 C 410.113281 222.480469 410.28125 217.050781 410.476562 211.308594 C 410.503906 210.207031 410.527344 209.105469 410.558594 207.972656 C 410.644531 204.484375 410.75 201 410.859375 197.515625 C 410.921875 195.136719 410.984375 192.761719 411.046875 190.386719 C 411.199219 184.589844 411.363281 178.789062 411.539062 172.992188 Z M 411.539062 172.992188 "/><path style=" stroke:none;fill-rule:nonzero;fill:#0269b2;fill-opacity:1;" d="M 540.203125 146.925781 C 544.257812 149.578125 546.519531 151.789062 547.769531 156.644531 C 547.078125 155.992188 547.078125 155.992188 546.367188 155.328125 C 541.019531 150.496094 536.421875 147.21875 529.039062 146.496094 C 525.957031 146.835938 524.164062 147.285156 521.613281 149.015625 C 518.714844 153.363281 518.515625 156.980469 519.433594 162.09375 C 521.773438 164.800781 521.773438 164.800781 524.882812 166.453125 C 525.714844 167.082031 526.546875 167.710938 527.402344 168.359375 C 528.011719 168.808594 528.617188 169.261719 529.242188 169.722656 C 528.882812 170.441406 528.523438 171.160156 528.152344 171.902344 C 525.273438 170.105469 522.398438 168.304688 519.433594 166.453125 C 519.074219 167.171875 518.714844 167.890625 518.34375 168.632812 C 514.867188 156.023438 514.867188 156.023438 517.867188 149.902344 C 524.417969 142.339844 531.875 142.546875 540.203125 146.925781 Z M 540.203125 146.925781 "/><path style=" stroke:none;fill-rule:nonzero;fill:#0270bb;fill-opacity:1;" d="M 343.96875 244.921875 C 345.105469 248.335938 344.988281 249.269531 343.96875 252.550781 C 345.984375 252.476562 345.984375 252.476562 348.039062 252.398438 C 362.109375 252.023438 373.476562 253.003906 385.023438 261.851562 C 386.472656 263.449219 386.472656 263.449219 386.472656 266.71875 C 385.4375 265.730469 384.40625 264.742188 383.339844 263.722656 C 374.636719 256.355469 365.277344 255.152344 354.1875 255.003906 C 352.988281 254.972656 351.789062 254.9375 350.554688 254.90625 C 347.632812 254.828125 344.710938 254.769531 341.789062 254.730469 C 342.742188 247.375 342.742188 247.375 343.96875 244.921875 Z M 343.96875 244.921875 "/><path style=" stroke:none;fill-rule:nonzero;fill:#026fbc;fill-opacity:1;" d="M 474.136719 218.699219 C 476.929688 220.945312 476.929688 220.945312 478.019531 223.125 C 477.433594 222.8125 476.851562 222.496094 476.25 222.171875 C 470 219.210938 464.980469 218.398438 458.128906 218.96875 C 455.980469 219.746094 455.980469 219.746094 454.859375 222.238281 C 453.636719 226.832031 453.332031 230.226562 455.269531 234.636719 C 457.308594 237.507812 457.308594 237.507812 460.648438 239.949219 C 464.125 242.980469 465.003906 244.863281 466.03125 249.28125 C 465.3125 249.28125 464.59375 249.28125 463.851562 249.28125 C 463.46875 248.335938 463.085938 247.394531 462.695312 246.421875 C 460.757812 243.050781 459.628906 241.78125 456.699219 239.472656 C 453.078125 236.5 451.34375 234.496094 450.773438 229.664062 C 451.394531 225.265625 452.480469 221.433594 455.660156 218.222656 C 462.015625 214.023438 467.777344 215.113281 474.136719 218.699219 Z M 474.136719 218.699219 "/><path style=" stroke:none;fill-rule:nonzero;fill:#047ac5;fill-opacity:1;" d="M 414.808594 349.546875 C 415.167969 349.546875 415.527344 349.546875 415.898438 349.546875 C 416.164062 354.199219 416.398438 358.847656 416.601562 363.503906 C 416.675781 365.082031 416.761719 366.660156 416.851562 368.238281 C 417.800781 384.859375 417.800781 384.859375 412.628906 392.050781 C 408.730469 393.351562 405.828125 393.421875 401.730469 393.140625 C 398.527344 391.507812 398.527344 391.507812 396.28125 389.871094 C 396.640625 389.152344 397 388.433594 397.371094 387.691406 C 398.359375 388.253906 399.347656 388.816406 400.367188 389.394531 C 403.621094 391.175781 403.621094 391.175781 406.226562 390.757812 C 406.898438 390.464844 407.574219 390.171875 408.269531 389.871094 C 409.054688 389.535156 409.84375 389.195312 410.652344 388.851562 C 412.808594 387.828125 412.808594 387.828125 413.71875 385.511719 C 413.890625 382.8125 414 380.136719 414.0625 377.433594 C 414.085938 376.636719 414.109375 375.839844 414.132812 375.023438 C 414.203125 372.480469 414.269531 369.9375 414.332031 367.394531 C 414.378906 365.671875 414.425781 363.949219 414.472656 362.226562 C 414.589844 358 414.703125 353.773438 414.808594 349.546875 Z M 414.808594 349.546875 "/><path style=" stroke:none;fill-rule:nonzero;fill:#0161a9;fill-opacity:1;" d="M 293.835938 327.75 C 294.621094 328.582031 295.410156 329.414062 296.21875 330.269531 C 301.203125 335.03125 305.488281 337.714844 312.363281 337.695312 C 313.8125 337.699219 313.8125 337.699219 315.292969 337.703125 C 317.839844 337.722656 317.839844 337.722656 319.992188 336.46875 C 326.757812 336.003906 331.210938 337.074219 337.429688 339.738281 C 337.070312 340.457031 336.710938 341.175781 336.339844 341.917969 C 335.558594 341.5625 334.78125 341.203125 333.976562 340.835938 C 330.734375 339.683594 328.519531 339.527344 325.105469 339.640625 C 323.480469 339.671875 323.480469 339.671875 321.820312 339.707031 C 319.5625 339.773438 317.300781 339.84375 315.042969 339.917969 C 307.980469 340.050781 302.910156 339.785156 297.453125 334.796875 C 293.835938 330.171875 293.835938 330.171875 293.835938 327.75 Z M 293.835938 327.75 "/><path style=" stroke:none;fill-rule:nonzero;fill:#037fca;fill-opacity:1;" d="M 580.464844 454.171875 C 579.230469 454.621094 577.992188 455.070312 576.71875 455.535156 C 572.726562 456.929688 572.726562 456.929688 572.085938 459.621094 C 571.972656 460.339844 571.863281 461.058594 571.746094 461.800781 C 569.648438 463.628906 567.691406 464.917969 565.207031 466.160156 C 564.066406 468.3125 562.96875 470.492188 561.9375 472.699219 C 555.339844 472.914062 555.339844 472.914062 553.21875 472.699219 C 552.5 471.980469 551.78125 471.261719 551.039062 470.519531 C 554.636719 470.519531 558.230469 470.519531 561.9375 470.519531 C 562.027344 469.753906 562.117188 468.992188 562.210938 468.203125 C 564.03125 461.226562 568.085938 457.667969 573.925781 453.9375 C 576.566406 452.902344 577.839844 453.226562 580.464844 454.171875 Z M 580.464844 454.171875 "/><path style=" stroke:none;fill-rule:nonzero;fill:#047fcc;fill-opacity:1;" d="M 483.808594 336.265625 C 485.175781 336.292969 486.542969 336.324219 487.953125 336.355469 C 488.988281 336.390625 490.027344 336.429688 491.097656 336.46875 C 490.738281 337.1875 490.378906 337.90625 490.007812 338.648438 C 486.636719 339.167969 483.296875 339.507812 479.898438 339.777344 C 474.746094 340.3125 471.941406 341.613281 468.210938 345.1875 C 469.195312 341.871094 469.945312 340.085938 472.707031 337.933594 C 476.625 336.101562 479.503906 336.144531 483.808594 336.265625 Z M 483.808594 336.265625 "/><path style=" stroke:none;fill-rule:nonzero;fill:#036fba;fill-opacity:1;" d="M 411.539062 227.484375 C 412.257812 227.484375 412.976562 227.484375 413.71875 227.484375 C 414.863281 229.269531 415.953125 231.085938 416.988281 232.933594 C 418.6875 234.632812 420.355469 234.25 422.710938 234.296875 C 427.121094 234.269531 429.773438 233.515625 433.335938 230.753906 C 432.207031 234.386719 431.007812 235.203125 427.683594 237.226562 C 423.527344 238.382812 423.527344 238.382812 419.441406 237.15625 C 413.160156 233.535156 413.160156 233.535156 411.878906 229.460938 C 411.765625 228.808594 411.65625 228.15625 411.539062 227.484375 Z M 411.539062 227.484375 "/><path style=" stroke:none;fill-rule:nonzero;fill:#0479c3;fill-opacity:1;" d="M 494.367188 313.582031 C 496.164062 313.582031 497.964844 313.582031 499.816406 313.582031 C 495.378906 318.710938 488.203125 320.871094 481.589844 321.488281 C 479.308594 321.484375 477.027344 321.359375 474.75 321.210938 C 474.75 320.851562 474.75 320.492188 474.75 320.121094 C 487.308594 317.820312 487.308594 317.820312 493.277344 316.851562 C 493.636719 315.773438 493.996094 314.695312 494.367188 313.582031 Z M 494.367188 313.582031 "/><path style=" stroke:none;fill-rule:nonzero;fill:#0476be;fill-opacity:1;" d="M 323.328125 336.195312 C 328.65625 336.230469 332.574219 337.621094 337.429688 339.738281 C 337.070312 340.457031 336.710938 341.175781 336.339844 341.917969 C 335.644531 341.558594 334.945312 341.199219 334.226562 340.828125 C 330.390625 339.574219 327.347656 339.65625 323.355469 339.875 C 321.082031 339.738281 321.082031 339.738281 317.8125 337.558594 C 319.480469 335.890625 321.007812 336.246094 323.328125 336.195312 Z M 323.328125 336.195312 "/><path style=" stroke:none;fill-rule:nonzero;fill:#0275c0;fill-opacity:1;" d="M 226.265625 275.4375 C 226.625 275.4375 226.984375 275.4375 227.355469 275.4375 C 227.539062 276.058594 227.726562 276.675781 227.917969 277.316406 C 229.699219 282.992188 231.859375 287.8125 234.984375 292.875 C 231.003906 291.511719 229.773438 291.054688 227.355469 287.425781 C 226.902344 284.484375 226.902344 284.484375 226.675781 281.226562 C 226.59375 280.144531 226.511719 279.0625 226.425781 277.945312 C 226.375 277.117188 226.320312 276.289062 226.265625 275.4375 Z M 226.265625 275.4375 "/><path style=" stroke:none;fill-rule:nonzero;fill:#00b5fa;fill-opacity:1;" d="M 424.617188 656.882812 C 427.585938 658.664062 428.863281 659.910156 430.339844 663.082031 C 431.308594 667.367188 431.308594 671.027344 431.15625 675.410156 C 430.796875 675.410156 430.4375 675.410156 430.066406 675.410156 C 429.769531 674.070312 429.769531 674.070312 429.464844 672.703125 C 429.054688 670.941406 429.054688 670.941406 428.636719 669.144531 C 428.371094 667.980469 428.105469 666.816406 427.832031 665.617188 C 426.824219 662.417969 425.707031 660.488281 423.527344 657.972656 C 423.886719 657.613281 424.246094 657.253906 424.617188 656.882812 Z M 424.617188 656.882812 "/><path style=" stroke:none;fill-rule:nonzero;fill:#018dde;fill-opacity:1;" d="M 498.726562 214.40625 C 499.445312 214.765625 500.164062 215.125 500.90625 215.496094 C 500.75 216.035156 500.589844 216.574219 500.429688 217.132812 C 499.578125 220.921875 499.175781 224.714844 498.726562 228.574219 C 498.007812 228.214844 497.289062 227.855469 496.546875 227.484375 C 495.453125 223.109375 495.011719 220.765625 497.023438 216.65625 C 497.585938 215.914062 498.148438 215.171875 498.726562 214.40625 Z M 498.726562 214.40625 "/><path style=" stroke:none;fill-rule:nonzero;fill:#0373c0;fill-opacity:1;" d="M 517.253906 162.09375 C 521.660156 164.035156 525.386719 166.882812 529.242188 169.722656 C 528.882812 170.441406 528.523438 171.160156 528.152344 171.902344 C 525.273438 170.105469 522.398438 168.304688 519.433594 166.453125 C 519.074219 167.171875 518.714844 167.890625 518.34375 168.632812 C 517.984375 166.476562 517.625 164.316406 517.253906 162.09375 Z M 517.253906 162.09375 "/><path style=" stroke:none;fill-rule:nonzero;fill:#0885cc;fill-opacity:1;" d="M 382.113281 657.972656 C 382.113281 659.050781 382.113281 660.132812 382.113281 661.242188 C 381.207031 661.558594 381.207031 661.558594 380.28125 661.882812 C 379.492188 662.164062 378.703125 662.449219 377.890625 662.742188 C 377.105469 663.019531 376.324219 663.296875 375.515625 663.585938 C 373.195312 664.445312 373.195312 664.445312 371.214844 666.691406 C 370.855469 665.253906 370.496094 663.816406 370.125 662.332031 C 370.808594 662.109375 371.492188 661.886719 372.195312 661.65625 C 373.085938 661.363281 373.976562 661.066406 374.894531 660.765625 C 375.777344 660.476562 376.664062 660.183594 377.574219 659.882812 C 379.945312 659.117188 379.945312 659.117188 382.113281 657.972656 Z M 382.113281 657.972656 "/><path style=" stroke:none;fill-rule:nonzero;fill:#0267b1;fill-opacity:1;" d="M 524.882812 251.460938 C 524.882812 251.820312 524.882812 252.179688 524.882812 252.550781 C 523.164062 252.957031 523.164062 252.957031 521.410156 253.367188 C 517.457031 254.476562 514.855469 256.316406 511.804688 259.089844 C 513.382812 254.09375 513.382812 254.09375 515.890625 252.210938 C 518.964844 251.269531 521.6875 251.316406 524.882812 251.460938 Z M 524.882812 251.460938 "/><path style=" stroke:none;fill-rule:nonzero;fill:#026ab4;fill-opacity:1;" d="M 589.183594 215.496094 C 593.449219 216.878906 595.496094 218.234375 597.902344 222.035156 C 597.542969 222.753906 597.183594 223.472656 596.8125 224.214844 C 595.539062 222.96875 594.265625 221.71875 592.996094 220.46875 C 592.289062 219.773438 591.582031 219.078125 590.851562 218.363281 C 589.183594 216.585938 589.183594 216.585938 589.183594 215.496094 Z M 589.183594 215.496094 "/><path style=" stroke:none;fill-rule:nonzero;fill:#069bee;fill-opacity:1;" d="M 370.125 219.855469 C 370.484375 219.855469 370.84375 219.855469 371.214844 219.855469 C 371.214844 222.375 371.214844 224.890625 371.214844 227.484375 C 370.855469 227.484375 370.496094 227.484375 370.125 227.484375 C 370.125 224.96875 370.125 222.449219 370.125 219.855469 Z M 370.125 219.855469 "/><path style=" stroke:none;fill-rule:nonzero;fill:#079def;fill-opacity:1;" d="M 293.835938 155.554688 C 294.914062 156.09375 294.914062 156.09375 296.015625 156.644531 C 295.65625 157.722656 295.296875 158.804688 294.925781 159.914062 C 294.566406 158.476562 294.207031 157.039062 293.835938 155.554688 Z M 293.835938 155.554688 "/><path style=" stroke:none;fill-rule:nonzero;fill:#0aadf4;fill-opacity:1;" d="M 376.664062 587.132812 C 377.753906 591.492188 377.753906 591.492188 377.753906 591.492188 Z M 376.664062 587.132812 "/><path style=" stroke:none;fill-rule:nonzero;fill:#09a7f8;fill-opacity:1;" d="M 493.277344 336.46875 C 497.636719 337.558594 497.636719 337.558594 497.636719 337.558594 Z M 493.277344 336.46875 "/><path style=" stroke:none;fill-rule:nonzero;fill:#04a0f4;fill-opacity:1;" d="M 272.039062 281.976562 C 272.757812 281.976562 273.476562 281.976562 274.21875 281.976562 C 274.21875 282.695312 274.21875 283.414062 274.21875 284.15625 C 273.5 284.15625 272.78125 284.15625 272.039062 284.15625 C 272.039062 283.4375 272.039062 282.71875 272.039062 281.976562 Z M 272.039062 281.976562 "/><path style=" stroke:none;fill-rule:nonzero;fill:#069ef1;fill-opacity:1;" d="M 370.125 203.507812 C 371.214844 207.867188 371.214844 207.867188 371.214844 207.867188 Z M 370.125 203.507812 "/><path style=" stroke:none;fill-rule:nonzero;fill:#0aa1e5;fill-opacity:1;" d="M 373.394531 664.511719 C 376.664062 665.601562 376.664062 665.601562 376.664062 665.601562 Z M 373.394531 664.511719 "/><path style=" stroke:none;fill-rule:nonzero;fill:#09a4ee;fill-opacity:1;" d="M 224.085938 449.8125 C 227.355469 450.902344 227.355469 450.902344 227.355469 450.902344 Z M 224.085938 449.8125 "/><path style=" stroke:none;fill-rule:nonzero;fill:#049ff3;fill-opacity:1;" d="M 267.679688 281.976562 C 270.949219 283.066406 270.949219 283.066406 270.949219 283.066406 Z M 267.679688 281.976562 "/><path style=" stroke:none;fill-rule:nonzero;fill:#069ff6;fill-opacity:1;" d="M 366.855469 251.460938 C 370.125 252.550781 370.125 252.550781 370.125 252.550781 Z M 366.855469 251.460938 "/><path style=" stroke:none;fill-rule:nonzero;fill:#05a1f7;fill-opacity:1;" d="M 454.042969 250.371094 C 457.3125 251.460938 457.3125 251.460938 457.3125 251.460938 Z M 454.042969 250.371094 "/><path style=" stroke:none;fill-rule:nonzero;fill:#079af0;fill-opacity:1;" d="M 553.21875 249.28125 C 556.488281 250.371094 556.488281 250.371094 556.488281 250.371094 Z M 553.21875 249.28125 "/><path style=" stroke:none;fill-rule:nonzero;fill:#05a1f5;fill-opacity:1;" d="M 519.433594 249.28125 C 522.703125 250.371094 522.703125 250.371094 522.703125 250.371094 Z M 519.433594 249.28125 "/><path style=" stroke:none;fill-rule:nonzero;fill:#039ef3;fill-opacity:1;" d="M 285.117188 249.28125 C 288.386719 250.371094 288.386719 250.371094 288.386719 250.371094 Z M 285.117188 249.28125 "/><path style=" stroke:none;fill-rule:nonzero;fill:#039df9;fill-opacity:1;" d="M 321.082031 203.507812 C 321.800781 203.507812 322.519531 203.507812 323.261719 203.507812 C 322.902344 204.226562 322.542969 204.945312 322.171875 205.6875 C 321.8125 204.96875 321.453125 204.25 321.082031 203.507812 Z M 321.082031 203.507812 "/><path style=" stroke:none;fill-rule:nonzero;fill:#0c84c2;fill-opacity:1;" d="M 408.269531 700.476562 C 410.449219 701.566406 410.449219 701.566406 410.449219 701.566406 Z M 408.269531 700.476562 "/><path style=" stroke:none;fill-rule:nonzero;fill:#0d9de2;fill-opacity:1;" d="M 364.675781 665.601562 C 366.855469 666.691406 366.855469 666.691406 366.855469 666.691406 Z M 364.675781 665.601562 "/><path style=" stroke:none;fill-rule:nonzero;fill:#0b9adf;fill-opacity:1;" d="M 361.40625 665.601562 C 363.585938 666.691406 363.585938 666.691406 363.585938 666.691406 Z M 361.40625 665.601562 "/><path style=" stroke:none;fill-rule:nonzero;fill:#0aaaf3;fill-opacity:1;" d="M 353.777344 615.46875 C 355.957031 616.558594 355.957031 616.558594 355.957031 616.558594 Z M 353.777344 615.46875 "/><path style=" stroke:none;fill-rule:nonzero;fill:#089ae9;fill-opacity:1;" d="M 702.527344 542.449219 C 704.707031 543.539062 704.707031 543.539062 704.707031 543.539062 Z M 702.527344 542.449219 "/><path style=" stroke:none;fill-rule:nonzero;fill:#0ea8f3;fill-opacity:1;" d="M 370.125 520.652344 C 372.304688 521.742188 372.304688 521.742188 372.304688 521.742188 Z M 370.125 520.652344 "/><path style=" stroke:none;fill-rule:nonzero;fill:#09a1ed;fill-opacity:1;" d="M 580.464844 449.8125 C 582.644531 450.902344 582.644531 450.902344 582.644531 450.902344 Z M 580.464844 449.8125 "/><path style=" stroke:none;fill-rule:nonzero;fill:#0ba4f1;fill-opacity:1;" d="M 397.371094 419.296875 C 399.550781 420.386719 399.550781 420.386719 399.550781 420.386719 Z M 397.371094 419.296875 "/><path style=" stroke:none;fill-rule:nonzero;fill:#04a1f0;fill-opacity:1;" d="M 472.570312 336.46875 C 474.75 337.558594 474.75 337.558594 474.75 337.558594 Z M 472.570312 336.46875 "/><path style=" stroke:none;fill-rule:nonzero;fill:#069df4;fill-opacity:1;" d="M 327.621094 323.390625 C 329.800781 324.480469 329.800781 324.480469 329.800781 324.480469 Z M 327.621094 323.390625 "/><path style=" stroke:none;fill-rule:nonzero;fill:#069ef3;fill-opacity:1;" d="M 319.992188 322.300781 C 322.171875 323.390625 322.171875 323.390625 322.171875 323.390625 Z M 319.992188 322.300781 "/><path style=" stroke:none;fill-rule:nonzero;fill:#069ff2;fill-opacity:1;" d="M 530.332031 281.976562 C 532.511719 283.066406 532.511719 283.066406 532.511719 283.066406 Z M 530.332031 281.976562 "/><path style=" stroke:none;fill-rule:nonzero;fill:#04a1f5;fill-opacity:1;" d="M 544.5 280.886719 C 546.679688 281.976562 546.679688 281.976562 546.679688 281.976562 Z M 544.5 280.886719 "/><path style=" stroke:none;fill-rule:nonzero;fill:#029ff6;fill-opacity:1;" d="M 393.011719 266.71875 C 395.191406 267.808594 395.191406 267.808594 395.191406 267.808594 Z M 393.011719 266.71875 "/><path style=" stroke:none;fill-rule:nonzero;fill:#05a1f4;fill-opacity:1;" d="M 381.023438 258 C 383.203125 259.089844 383.203125 259.089844 383.203125 259.089844 Z M 381.023438 258 "/><path style=" stroke:none;fill-rule:nonzero;fill:#04a0f5;fill-opacity:1;" d="M 370.125 252.550781 C 372.304688 253.640625 372.304688 253.640625 372.304688 253.640625 Z M 370.125 252.550781 "/><path style=" stroke:none;fill-rule:nonzero;fill:#049df2;fill-opacity:1;" d="M 351.597656 250.371094 C 353.777344 251.460938 353.777344 251.460938 353.777344 251.460938 Z M 351.597656 250.371094 "/><path style=" stroke:none;fill-rule:nonzero;fill:#04a1f2;fill-opacity:1;" d="M 252.421875 249.28125 C 254.601562 250.371094 254.601562 250.371094 254.601562 250.371094 Z M 252.421875 249.28125 "/><path style=" stroke:none;fill-rule:nonzero;fill:#049ff0;fill-opacity:1;" d="M 231.714844 239.472656 C 233.894531 240.5625 233.894531 240.5625 233.894531 240.5625 Z M 231.714844 239.472656 "/><path style=" stroke:none;fill-rule:nonzero;fill:#058cdc;fill-opacity:1;" d="M 591.363281 214.40625 C 593.542969 215.496094 593.542969 215.496094 593.542969 215.496094 Z M 591.363281 214.40625 "/><path style=" stroke:none;fill-rule:nonzero;fill:#039bec;fill-opacity:1;" d="M 349.417969 214.40625 C 351.597656 215.496094 351.597656 215.496094 351.597656 215.496094 Z M 349.417969 214.40625 "/><path style=" stroke:none;fill-rule:nonzero;fill:#059bf3;fill-opacity:1;" d="M 522.703125 169.722656 C 524.882812 170.8125 524.882812 170.8125 524.882812 170.8125 Z M 522.703125 169.722656 "/></g></svg>